<?xml version="1.0" encoding="utf-8"?>
<!-- Generator: Adobe Illustrator 20.1.0, SVG Export Plug-In . SVG Version: 6.00 Build 0)  -->
<svg version="1.1" id="Layer_1" xmlns="http://www.w3.org/2000/svg" xmlns:xlink="http://www.w3.org/1999/xlink" x="0px" y="0px"
	 viewBox="0 0 792 652.7" style="enable-background:new 0 0 792 652.7;" xml:space="preserve">
<g>
	<g>
		<path d="M633,477.1c0,30.5,0,59,0,90.6c-35.1-15.6-67.8-30-100.4-44.6c-23-10.3-46.3-19.9-68.6-31.4
			c-23.1-11.9-46.8-16.1-72.7-14.7c-30.5,1.6-61.2,0.7-91.8,0.3c-57.2-0.7-100.9-42.3-101.6-99.6c-1.2-92.4-1.1-184.8,0-277.2
			c0.7-58.5,44.1-99.9,102.6-100.1c129-0.4,258-0.4,387,0c60.7,0.2,102.9,42.3,103.2,103c0.4,90,0.4,180,0,270
			c-0.3,61.3-43.1,103.4-104.6,103.7C669.5,477.2,652.7,477.1,633,477.1z"/>
		<path d="M175.1,263.8c0,35.4,1.7,67.8-0.3,100c-5.4,84.6,60.9,142.8,137,137.6c28-1.9,56.2-0.3,83.9-0.3
			c11.1,39.7-14.1,79.3-54.5,83.8c-26.7,3-53.9,0.7-80.8,2.3c-12.1,0.7-24.9,3.4-35.9,8.5c-34.2,15.9-67.7,33.4-101.5,50.1
			c-4.7,2.3-9.6,4-16.6,6.9c0-22.1,0-42.2,0-65.9c-11.5,0-21.3,0.2-31.2,0c-48.2-1-75.8-28.8-75.9-76.6c-0.1-57-0.1-114,0-171
			c0.1-47.9,27.9-75.4,76.3-75.5C107.9,263.7,140.2,263.8,175.1,263.8z"/>
	</g>
</g>
</svg>
