<?xml version="1.0" encoding="utf-8"?>
<!-- Generator: Adobe Illustrator 20.1.0, SVG Export Plug-In . SVG Version: 6.00 Build 0)  -->
<svg version="1.1" id="Layer_1" xmlns="http://www.w3.org/2000/svg" xmlns:xlink="http://www.w3.org/1999/xlink" x="0px" y="0px"
	 viewBox="0 0 785.8 783.7" style="enable-background:new 0 0 785.8 783.7;" xml:space="preserve">
<g>
	<path d="M235,751.9C76.1,685.7-40.8,497.3,13.5,291.8C69.1,80.9,287.7-47.2,504,16.3c209.3,61.4,330,281.4,263.5,493.8
		c-66.1,211.3-286,318.4-485.2,259.4c0.3-0.9,0.5-1.9,1-2.6c22.7-35.1,37.4-73.5,46.4-114.2c5.1-22.9,11.4-45.5,17.2-68.2
		c0.4-1.7,1-3.4,1.8-6c7.7,12.5,17.7,21.6,29.3,28.9c26.3,16.5,55.2,21.6,85.7,18.3c72.6-8,122.5-48.4,156.5-110.8
		c18.7-34.3,28.8-71.5,33.4-110.2c2.5-21.3,3.9-42.7,2.1-64.2c-3.6-42.6-18.8-80.7-44.9-114.3c-36.2-46.5-83.9-75.6-141.2-87.2
		c-80.7-16.2-157.9-5.7-228.2,38.8c-60.2,38.1-98.1,92.8-111,163.2c-8.7,47.5-3.3,93.7,20.6,136.5c12.3,22,30.1,38.5,53.3,48.9
		c13.1,5.8,20.3,2.3,23.8-11.6c2.2-8.9,4-18,6.8-26.7c3-9.3,1-16.7-5.3-23.9c-14.5-16.5-22.5-36.1-24.7-57.8
		c-4.8-47,6-90.4,33.4-129.1c30.7-43.3,73.3-67.6,125.5-75.4c32.7-4.9,65.3-3.6,96.9,6.8c55.8,18.4,90.2,56.7,97.2,115.1
		c7.7,63.6-3.2,124.6-36.6,180.2c-12.1,20.2-28.3,36.7-50.1,46.7c-18.6,8.5-38,10.7-57.7,4.1c-29-9.6-49-38.5-38.5-75.8
		c8.2-29.1,17.4-58,25.1-87.2c4-15,7.3-30.6,8.3-46c1.6-23.4-7.4-48.7-32.8-57.9c-18.6-6.8-36.7-4.1-53.2,6.5
		c-20.8,13.3-32.2,33.4-38.2,56.7c-8.1,31.5-5.2,62.4,5.9,92.8c1.1,2.9,1.5,6.6,0.8,9.7c-16.3,69.7-33.2,139.3-49,209.1
		c-4.2,18.6-5.3,38-7,57.1C234.2,730.3,235,741,235,751.9z"/>
</g>
</svg>
