<?xml version="1.0" encoding="utf-8"?>
<!-- Generator: Adobe Illustrator 20.1.0, SVG Export Plug-In . SVG Version: 6.00 Build 0)  -->
<svg version="1.1" id="Layer_1" xmlns="http://www.w3.org/2000/svg" xmlns:xlink="http://www.w3.org/1999/xlink" x="0px" y="0px"
	 viewBox="0 0 792 653.7" style="enable-background:new 0 0 792 653.7;" xml:space="preserve">
<g>
	<path d="M771.3,18.5c-13.1,38.2-35.8,66.5-67.3,88.2C734.4,104.2,763,95.5,792,85c-6.1,8.1-11.3,17-18.4,24.1
		c-18.3,18.3-37.2,36-56.2,53.5c-3.8,3.5-5.5,6.5-5.4,11.8c2.1,119.7-35.5,225.9-111.5,317.9c-70.7,85.6-162.1,136.9-271.6,154.6
		c-106.5,17.3-208,1.3-303.4-50c-8.6-4.6-16.9-9.9-25.5-15.7c87.4,6.9,166.5-14.4,237.8-68.2c-74.6-6.4-124.5-43.7-152.3-114
		c25.2,3.9,48.5,3.6,73.1-3c-45.7-11.2-80.7-35.3-105-74.1c-16.5-26.3-24.7-55.1-24.4-87.6c22.8,11,45.7,18.8,72.8,19.5
		c-41.4-30.3-65.5-69-70.6-117.9C27.4,97.5,36,62,52.6,36.9c88.1,103.5,199.6,160.6,336,170.1c-1-9.7-2.4-18.6-2.8-27.5
		c-3.6-75.9,38.7-140.5,110.9-164.5c60.2-20,115.1-7.4,162.6,34.9c6.3,5.6,11.2,7.5,19.6,5.3c29.6-7.5,57.8-18,84.5-32.8
		C765.3,21.4,767.4,20.5,771.3,18.5z"/>
</g>
</svg>
