<?xml version="1.0" encoding="utf-8"?>
<!-- Generator: Adobe Illustrator 19.0.0, SVG Export Plug-In . SVG Version: 6.00 Build 0)  -->
<svg version="1.1" id="Layer_1" xmlns="http://www.w3.org/2000/svg" xmlns:xlink="http://www.w3.org/1999/xlink" x="0px" y="0px"
	 viewBox="0 0 187.2 106.7" style="enable-background:new 0 0 187.2 106.7;" xml:space="preserve">
<style type="text/css">
	.st0{fill:url(#XMLID_372_);}
	.st1{opacity:0.5;}
	.st2{fill-rule:evenodd;clip-rule:evenodd;}
	.st3{fill:url(#XMLID_374_);}
</style>
<g id="XMLID_93_">
	<linearGradient id="XMLID_372_" gradientUnits="userSpaceOnUse" x1="130.3758" y1="145.1403" x2="98.376" y2="65.1406">
		<stop  offset="0" style="stop-color:#E8E8E9"/>
		<stop  offset="1" style="stop-color:#FFFFFF"/>
	</linearGradient>
	<rect id="XMLID_425_" x="0.1" y="0" class="st0" width="187.2" height="106.7"/>
	<g id="XMLID_423_" class="st1">
		<defs>
			<rect id="XMLID_424_" x="-0.1" y="0" class="st1" width="187.2" height="106.7"/>
		</defs>
		<clipPath id="XMLID_373_">
			<use xlink:href="#XMLID_424_"  style="overflow:visible;"/>
		</clipPath>
	</g>
	<g id="XMLID_386_">
		<g id="XMLID_228_">
			<g id="XMLID_229_">
				<path id="XMLID_245_" d="M96.9,67.7C97,67.8,96.9,67.7,96.9,67.7C96.9,67.8,96.9,67.8,96.9,67.7c0,0.1,0.2,0.1,0.1,0
					C97.1,67.7,97,67.7,96.9,67.7z"/>
				<path id="XMLID_244_" d="M99,66.1C99,66.1,99.1,66,99,66.1c0-0.1-0.1-0.1-0.2-0.1c0,0,0,0,0.1,0C98.9,66.1,98.9,66.1,99,66.1z"
					/>
				<path id="XMLID_243_" d="M99.2,66.5c0,0,0.1-0.1,0-0.1C99.1,66.3,99.1,66.4,99.2,66.5C99.1,66.5,99.1,66.5,99.2,66.5z"/>
				<path id="XMLID_242_" d="M96.9,67.7c0-0.1-0.4-0.2-0.3,0c0-0.1,0.1,0,0.2,0c0,0,0,0.1,0,0.1C96.8,67.7,96.9,67.7,96.9,67.7z"/>
				<path id="XMLID_241_" d="M99.3,66.4C99.3,66.3,99.4,66.5,99.3,66.4c0,0.1,0,0.1,0,0.1c0,0,0,0,0,0c0,0,0,0,0,0c0,0,0,0-0.1,0
					c0,0,0.2,0,0.2-0.1c0,0,0.1,0,0,0c0,0,0,0-0.1-0.1C99.4,66.4,99.3,66.3,99.3,66.4C99.4,66.3,99.3,66.3,99.3,66.4
					c0.1-0.1,0.1-0.1,0.1-0.1C99.3,66.2,99.2,66.3,99.3,66.4C99.2,66.3,99.2,66.3,99.3,66.4C99.2,66.4,99.2,66.4,99.3,66.4z"/>
				<path id="XMLID_230_" d="M98.4,65.4c-1.6,0-2.9,1.3-2.9,2.9c0,1.6,1.3,2.9,2.9,2.9c1.6,0,2.9-1.3,2.9-2.9
					C101.3,66.7,100,65.4,98.4,65.4z M99.8,67c-0.1,0-0.3,0-0.4,0.1c0,0-0.2,0-0.1-0.1c0,0,0.2,0,0.2-0.1c0-0.1,0.1-0.1,0.1-0.2
					c0,0,0.2-0.1,0.2-0.1c0,0,0.1,0.1,0.2,0.1C100,66.9,99.9,67,99.8,67c0.1,0,0.1,0,0.1,0c0,0,0-0.1,0.1-0.1c0,0,0,0,0-0.1
					c0,0,0.1,0,0,0c0-0.1-0.2-0.1-0.2-0.2c0,0,0.1,0.1,0.1,0.1c0.1,0,0,0,0.1,0.1c0,0,0.1,0.1,0.1,0.1c0.1,0,0-0.1,0-0.1
					c0,0,0.1,0,0.1,0c0,0,0,0.1,0,0.1c0,0,0.1,0.1,0.1,0c0,0,0.1,0,0.2,0c0,0,0,0.1,0,0.1c0,0,0,0.1-0.1,0.1c0,0-0.1,0-0.2,0
					c0,0-0.3-0.1-0.2,0c0,0.1-0.1,0-0.2-0.1C99.8,67.2,99.8,67.2,99.8,67C99.8,67.1,99.8,67,99.8,67z M99.9,66.3
					C99.9,66.3,99.9,66.3,99.9,66.3C99.9,66.4,100,66.4,99.9,66.3c0,0.1-0.1,0.1-0.1,0.1C99.8,66.4,99.9,66.3,99.9,66.3
					C99.9,66.4,99.9,66.3,99.9,66.3z M100.8,67.9C100.8,67.9,100.8,67.9,100.8,67.9c-0.1-0.1-0.1-0.1-0.1-0.2c0,0,0-0.1,0-0.1
					c0,0-0.1-0.2-0.1-0.2c0.1,0,0.2,0.1,0.2,0.2c0,0.1,0.1,0.1,0.1,0.2C100.8,67.8,100.8,67.9,100.8,67.9z M100.3,66.8
					c0,0,0.1,0.1,0.1,0.1C100.4,66.9,100.3,66.9,100.3,66.8C100.3,66.8,100.3,66.8,100.3,66.8z M100.6,69.4
					C100.5,69.4,100.5,69.5,100.6,69.4C100.5,69.4,100.5,69.4,100.6,69.4z M100.6,69.3c0-0.1,0-0.1,0.1-0.1c0,0,0,0,0,0
					C100.7,69.2,100.6,69.3,100.6,69.3C100.6,69.3,100.6,69.3,100.6,69.3z M100.8,68.6C100.8,68.5,100.8,68.5,100.8,68.6
					c0,0,0,0.2,0,0.3C100.8,68.7,100.7,68.7,100.8,68.6z M96,68.3c0-0.2,0-0.3,0.1-0.5c0.1,0,0.2,0.1,0.2,0.1c0.1,0,0.1,0,0.1,0.1
					c0,0,0.1,0,0.1,0c0.1,0,0.1,0.1,0.1,0.2c0,0,0,0,0.1,0c0.1,0.1,0-0.1,0.1,0c0.2,0.1-0.1,0.4,0,0.4c-0.1,0.1,0,0.2,0.1,0.3
					c0,0.1,0.1,0.2,0.1,0.2c0.1,0.1,0.2,0.1,0.2,0.2c0,0.1,0.1,0.3,0,0.5c0,0.1,0,0.4,0.1,0.4c0,0,0,0,0,0c0,0,0,0,0,0
					c0,0,0,0.1,0,0.1c-0.1,0,0,0.1,0,0.1c0,0,0,0.1,0.1,0.2C96.5,70.1,96,69.2,96,68.3z M98.4,70.7c-0.3,0-0.6-0.1-0.8-0.2
					c0,0,0.1,0,0.1,0c-0.1,0-0.2-0.1-0.1-0.2c-0.1,0-0.1-0.1,0-0.2c0,0-0.1,0-0.1-0.1c0,0,0.1,0,0.1,0c0,0,0,0,0.1-0.1
					c0.1,0,0.1-0.1,0-0.2c0,0,0.1,0,0.1,0c0,0,0-0.1,0.1-0.2c0,0,0.1,0,0.1-0.1c0-0.1,0-0.1,0.1-0.1c0.1-0.1,0.2-0.2,0.2-0.3
					c0-0.1,0.2-0.2,0.1-0.3c-0.1,0-0.2-0.2-0.3-0.1c0-0.1-0.1-0.1-0.1-0.1c0-0.1-0.1-0.1-0.1-0.1c0-0.1,0-0.1-0.2-0.1
					c-0.1,0-0.2-0.1-0.2-0.2c0,0,0,0,0,0c-0.1,0-0.2,0-0.3,0c0,0-0.1,0.1,0,0.1c0,0,0-0.1,0-0.1c0,0,0,0,0,0c0,0-0.1,0-0.1,0.1
					c0,0.1-0.1,0-0.2,0c-0.1,0-0.1-0.1-0.1-0.2c0-0.1-0.2-0.1-0.2-0.1c0-0.1,0.1-0.1,0.1-0.2c-0.1,0-0.1,0-0.1,0.1c0,0-0.2,0-0.2,0
					c0,0-0.1-0.1-0.1-0.1c0,0,0-0.1,0-0.2c0-0.1,0.2-0.2,0.2-0.1c0,0,0.1,0,0.1,0c0,0,0.1,0,0.1,0c0.1,0.1,0,0.1,0.1,0.2
					c0.1-0.1,0-0.2,0.1-0.3c0,0,0.1-0.1,0.1-0.1c0,0,0.1-0.1,0.1-0.1c0,0,0.1-0.1,0.1-0.1c0,0,0.1,0,0.1-0.1c0,0,0-0.1,0-0.1
					c0.1,0,0.1,0,0.2-0.1c-0.1,0-0.1,0.1,0,0c0,0,0.1,0,0.2-0.1c0,0,0,0,0,0c0,0-0.1,0.1-0.1,0c0,0,0-0.1,0-0.1c0,0-0.2,0-0.2,0
					c0.1-0.1,0.1-0.1,0.2-0.1c0.1,0,0.2,0,0.2,0c0,0-0.1,0.1-0.1,0.1c0,0,0.1,0,0.1,0c0,0,0,0,0,0c0,0,0,0,0,0c0,0,0-0.1,0-0.1
					c0,0-0.1,0-0.1,0c0,0,0.1-0.1,0-0.2c0,0-0.1-0.2-0.1-0.2c0,0.1-0.2,0.1-0.1,0c-0.1,0-0.1,0-0.2-0.1c-0.1,0-0.1,0.1-0.1,0.1
					c0.1,0-0.1,0.1-0.1,0.1c0,0,0,0-0.1,0.1c0,0,0,0-0.1,0.1c0,0,0,0,0-0.1c0,0,0,0,0,0c0,0,0,0,0,0c0,0,0,0,0,0c0,0,0,0,0-0.1
					c-0.1,0-0.1-0.1-0.2-0.1c0,0,0,0,0,0c0.1-0.1,0.2-0.1,0.3-0.2l0,0c0.1,0,0.1,0,0.1,0c0,0,0,0,0,0c0.1,0,0.1-0.1,0.2-0.1
					c0,0,0,0,0.1,0c0,0,0,0,0,0c0.1,0,0,0.1,0,0.1c0,0,0,0-0.1,0c0,0-0.1,0-0.1,0c0,0,0.1,0,0.1,0c0,0,0.1,0.1,0.1,0.1
					c0,0,0-0.1,0-0.1c0,0,0.1,0,0.1,0c0.1,0,0-0.1,0-0.1c0,0,0.1,0.1,0.1,0c0,0,0.1,0,0.1,0c0,0-0.1,0-0.1-0.1c0,0,0,0,0,0
					c0.1,0,0.2,0,0.4,0c0,0,0,0,0,0c0,0-0.1,0-0.1,0c0,0,0,0,0.1,0c-0.1,0.1-0.1,0.1-0.1,0.2c0,0,0,0.1,0.1,0.1c0.1,0,0.1,0,0.1-0.1
					c0.1-0.1,0.1-0.1,0.2-0.1c0.1,0,0.2-0.1,0.3-0.1c0.3,0.1,0.5,0.2,0.7,0.3c0,0,0,0.1,0,0.1c0,0,0.1,0,0.1,0c0,0,0,0,0,0
					c0,0,0.1,0.2,0,0.1c0,0,0-0.1,0-0.1c-0.1,0,0,0.1-0.1,0.1c-0.1,0-0.1,0.1-0.1,0.1c0,0-0.1,0.1-0.1,0.1c0,0,0,0,0,0
					c0,0-0.1,0,0,0c0.1,0.1,0,0.2-0.1,0.1c-0.1,0-0.1,0-0.1,0c0,0,0,0.2,0,0.2c0.1,0,0.1,0,0.1,0.1c0,0.1-0.1,0.1-0.1,0.2
					c0,0,0,0.1-0.1,0.1c0,0-0.1,0-0.1,0.1c0,0.1-0.1,0.1-0.1,0.2c0,0,0,0.1,0,0.1c0,0,0,0.1,0,0.1c0,0,0,0,0,0.1
					c0,0.1,0.1,0.1,0.1,0.1c0,0.1,0.1,0.1,0.2,0.2c0,0,0.2,0,0.2,0c0.1,0,0.2-0.1,0.2,0c0,0,0.1,0,0.1,0c0,0,0,0.1,0,0.1
					c0,0,0,0,0,0.1c0,0,0.1,0.1,0.1,0.1c0,0.1,0.1,0.2,0.1,0.2c0,0.1-0.1,0.2-0.1,0.3c0,0.1,0.1,0.2,0.1,0.3c0,0.1,0.1,0.2,0.1,0.2
					c0,0,0,0.1,0,0.1c0,0,0.1,0,0.1,0c0.1,0,0.2-0.1,0.3-0.1c0,0,0,0,0.1-0.1C100,70.3,99.3,70.7,98.4,70.7z"/>
			</g>
		</g>
	</g>
	<g id="XMLID_381_">
		<g id="XMLID_108_">
			<path id="XMLID_109_" class="st2" d="M96.2,33.2c0-0.5,0.2-0.9,0.6-1.2c0.1-0.1,0.3-0.4,0.5-0.3c0.2,0,0.4,0.3,0.5,0.4
				c0.2,0.3,0.5,0.7,0.2,1.1c-0.1,0.2-0.4,0.2-0.5,0.4c-0.1,0.2-0.1,0.4,0,0.6c0.2,0.4,0.5,0.8,0.9,1.1c0.2,0.1,0.4,0.3,0.6,0.2
				c0.2,0,0.4-0.3,0.5-0.4c0.4-0.3,0.9,0.1,1.2,0.4c0.1,0.1,0.3,0.3,0.3,0.5c0,0.2-0.3,0.4-0.4,0.5c-0.4,0.3-0.9,0.4-1.4,0.3
				c-0.5-0.1-1-0.4-1.4-0.8c-0.4-0.4-0.8-0.8-1.1-1.3c-0.1-0.2-0.3-0.4-0.4-0.7C96.2,33.7,96.2,33.5,96.2,33.2
				C96.2,32.9,96.2,33.3,96.2,33.2z"/>
		</g>
	</g>
	
		<radialGradient id="XMLID_374_" cx="-1409.7262" cy="12282.0078" r="41.967" gradientTransform="matrix(0 -1.1022 0.145 0 -1696.9088 -1500.4233)" gradientUnits="userSpaceOnUse">
		<stop  offset="0" style="stop-color:#D3D5D6"/>
		<stop  offset="0.2189" style="stop-color:#E4E5E5"/>
		<stop  offset="0.5594" style="stop-color:#F8F8F8"/>
		<stop  offset="0.7889" style="stop-color:#FFFFFF"/>
	</radialGradient>
	<path id="XMLID_380_" class="st3" d="M90.1,53.4c0-25.5-2.7-46.2-6.1-46.2v92.5C87.3,99.6,90.1,78.9,90.1,53.4z"/>
	<g id="XMLID_371_">
		<g id="XMLID_122_">
			<g id="XMLID_123_">
				<path id="XMLID_125_" d="M101.5,50.6l-2.8-1.9c-0.1-0.1-0.3-0.1-0.5,0l-2.9,2c-0.2,0.1-0.2,0.4-0.1,0.6c0.1,0.1,0.2,0.2,0.3,0.2
					c0.1,0,0.2,0,0.2-0.1l2.7-1.9l2.5,1.7c0.2,0.1,0.5,0.1,0.6-0.1C101.7,51,101.7,50.8,101.5,50.6z"/>
				<polygon id="XMLID_124_" points="96.2,51.5 96.2,54.1 97.9,54.1 97.9,52.3 99.1,52.3 99.1,54.1 100.8,54.1 100.8,51.5 
					98.5,49.9 				"/>
			</g>
		</g>
	</g>
	<g id="XMLID_340_">
		<path id="XMLID_369_" d="M107.5,34.9h1v0.4h-1v1.1H107v-1.1h-1v-0.4h1v-1h0.5V34.9z"/>
		<path id="XMLID_366_" d="M111,33.2v0.4H111c-0.4,0-0.6,0.1-0.8,0.3c-0.2,0.2-0.3,0.5-0.4,0.9c0.2-0.2,0.4-0.3,0.8-0.3
			c0.3,0,0.6,0.1,0.7,0.3c0.2,0.2,0.3,0.5,0.3,0.8c0,0.4-0.1,0.7-0.3,0.9s-0.5,0.3-0.8,0.3c-0.3,0-0.6-0.1-0.8-0.4
			c-0.2-0.3-0.3-0.6-0.3-1v-0.2c0-0.7,0.1-1.2,0.4-1.5C110,33.4,110.4,33.3,111,33.2L111,33.2z M110.4,34.8c-0.2,0-0.3,0-0.4,0.1
			c-0.1,0.1-0.2,0.2-0.3,0.3v0.2c0,0.3,0.1,0.5,0.2,0.7c0.1,0.2,0.3,0.3,0.5,0.3c0.2,0,0.4-0.1,0.5-0.2c0.1-0.2,0.2-0.3,0.2-0.6
			c0-0.2-0.1-0.4-0.2-0.6C110.8,34.9,110.6,34.8,110.4,34.8z"/>
		<path id="XMLID_364_" d="M113.9,36.8h-0.5v-3l-0.9,0.3v-0.4l1.3-0.5h0.1V36.8z"/>
		<path id="XMLID_362_" d="M116.1,34.8h0.3c0.2,0,0.4-0.1,0.5-0.2c0.1-0.1,0.2-0.3,0.2-0.4c0-0.4-0.2-0.6-0.6-0.6
			c-0.2,0-0.4,0.1-0.5,0.2c-0.1,0.1-0.2,0.3-0.2,0.4h-0.5c0-0.3,0.1-0.5,0.3-0.7c0.2-0.2,0.5-0.3,0.8-0.3c0.3,0,0.6,0.1,0.8,0.3
			c0.2,0.2,0.3,0.4,0.3,0.7c0,0.2,0,0.3-0.1,0.4c-0.1,0.1-0.2,0.3-0.4,0.3c0.2,0.1,0.3,0.2,0.5,0.3c0.1,0.1,0.2,0.3,0.2,0.5
			c0,0.3-0.1,0.6-0.3,0.8c-0.2,0.2-0.5,0.3-0.8,0.3c-0.3,0-0.6-0.1-0.8-0.3s-0.3-0.4-0.3-0.7h0.5c0,0.2,0.1,0.3,0.2,0.4
			s0.3,0.2,0.5,0.2c0.2,0,0.4-0.1,0.5-0.2c0.1-0.1,0.2-0.3,0.2-0.5c0-0.2-0.1-0.4-0.2-0.5c-0.1-0.1-0.3-0.2-0.5-0.2h-0.3V34.8z"/>
		<path id="XMLID_360_" d="M122.4,33.5l-1.5,3.3h-0.5l1.5-3.2H120v-0.4h2.4V33.5z"/>
		<path id="XMLID_358_" d="M123.9,34.8h0.3c0.2,0,0.4-0.1,0.5-0.2c0.1-0.1,0.2-0.3,0.2-0.4c0-0.4-0.2-0.6-0.6-0.6
			c-0.2,0-0.4,0.1-0.5,0.2c-0.1,0.1-0.2,0.3-0.2,0.4h-0.5c0-0.3,0.1-0.5,0.3-0.7c0.2-0.2,0.5-0.3,0.8-0.3c0.3,0,0.6,0.1,0.8,0.3
			c0.2,0.2,0.3,0.4,0.3,0.7c0,0.2,0,0.3-0.1,0.4c-0.1,0.1-0.2,0.3-0.4,0.3c0.2,0.1,0.3,0.2,0.5,0.3c0.1,0.1,0.2,0.3,0.2,0.5
			c0,0.3-0.1,0.6-0.3,0.8c-0.2,0.2-0.5,0.3-0.8,0.3c-0.3,0-0.6-0.1-0.8-0.3s-0.3-0.4-0.3-0.7h0.5c0,0.2,0.1,0.3,0.2,0.4
			s0.3,0.2,0.5,0.2c0.2,0,0.4-0.1,0.5-0.2c0.1-0.1,0.2-0.3,0.2-0.5c0-0.2-0.1-0.4-0.2-0.5c-0.1-0.1-0.3-0.2-0.5-0.2h-0.3V34.8z"/>
		<path id="XMLID_355_" d="M128.1,35.2c-0.1,0.1-0.2,0.2-0.3,0.3s-0.3,0.1-0.4,0.1c-0.2,0-0.4-0.1-0.5-0.2c-0.2-0.1-0.3-0.2-0.4-0.4
			c-0.1-0.2-0.1-0.4-0.1-0.6c0-0.2,0-0.5,0.1-0.6c0.1-0.2,0.2-0.3,0.4-0.4c0.2-0.1,0.4-0.2,0.6-0.2c0.4,0,0.6,0.1,0.8,0.4
			c0.2,0.3,0.3,0.6,0.3,1.1v0.1c0,0.7-0.1,1.2-0.4,1.5c-0.3,0.3-0.7,0.5-1.2,0.5h-0.1v-0.4h0.1c0.4,0,0.7-0.1,0.9-0.3
			S128.1,35.6,128.1,35.2z M127.4,35.2c0.2,0,0.3,0,0.4-0.1c0.1-0.1,0.2-0.2,0.3-0.3v-0.2c0-0.3-0.1-0.5-0.2-0.7
			c-0.1-0.2-0.3-0.3-0.5-0.3c-0.2,0-0.4,0.1-0.5,0.2c-0.1,0.2-0.2,0.4-0.2,0.6c0,0.2,0.1,0.4,0.2,0.6S127.2,35.2,127.4,35.2z"/>
		<path id="XMLID_352_" d="M132.7,35.2c-0.1,0.1-0.2,0.2-0.3,0.3s-0.3,0.1-0.4,0.1c-0.2,0-0.4-0.1-0.5-0.2c-0.2-0.1-0.3-0.2-0.4-0.4
			c-0.1-0.2-0.1-0.4-0.1-0.6c0-0.2,0-0.5,0.1-0.6c0.1-0.2,0.2-0.3,0.4-0.4c0.2-0.1,0.4-0.2,0.6-0.2c0.4,0,0.6,0.1,0.8,0.4
			c0.2,0.3,0.3,0.6,0.3,1.1v0.1c0,0.7-0.1,1.2-0.4,1.5c-0.3,0.3-0.7,0.5-1.2,0.5h-0.1v-0.4h0.1c0.4,0,0.7-0.1,0.9-0.3
			S132.7,35.6,132.7,35.2z M132,35.2c0.2,0,0.3,0,0.4-0.1c0.1-0.1,0.2-0.2,0.3-0.3v-0.2c0-0.3-0.1-0.5-0.2-0.7
			c-0.1-0.2-0.3-0.3-0.5-0.3c-0.2,0-0.4,0.1-0.5,0.2c-0.1,0.2-0.2,0.4-0.2,0.6c0,0.2,0.1,0.4,0.2,0.6S131.8,35.2,132,35.2z"/>
		<path id="XMLID_348_" d="M136.2,34.2c0,0.2,0,0.3-0.1,0.5c-0.1,0.1-0.2,0.2-0.4,0.3c0.2,0.1,0.3,0.2,0.4,0.3
			c0.1,0.2,0.2,0.3,0.2,0.5c0,0.3-0.1,0.6-0.3,0.7c-0.2,0.2-0.5,0.3-0.8,0.3c-0.3,0-0.6-0.1-0.8-0.3c-0.2-0.2-0.3-0.4-0.3-0.7
			c0-0.2,0.1-0.4,0.2-0.5c0.1-0.2,0.3-0.3,0.4-0.4c-0.2-0.1-0.3-0.2-0.4-0.3c-0.1-0.1-0.1-0.3-0.1-0.5c0-0.3,0.1-0.5,0.3-0.7
			c0.2-0.2,0.4-0.3,0.8-0.3c0.3,0,0.6,0.1,0.8,0.3C136.2,33.6,136.2,33.9,136.2,34.2z M135.9,35.8c0-0.2-0.1-0.4-0.2-0.5
			c-0.1-0.1-0.3-0.2-0.5-0.2c-0.2,0-0.4,0.1-0.5,0.2c-0.1,0.1-0.2,0.3-0.2,0.5c0,0.2,0.1,0.4,0.2,0.5c0.1,0.1,0.3,0.2,0.5,0.2
			c0.2,0,0.4-0.1,0.5-0.2C135.8,36.2,135.9,36,135.9,35.8z M135.2,33.6c-0.2,0-0.3,0.1-0.4,0.2c-0.1,0.1-0.2,0.3-0.2,0.4
			c0,0.2,0.1,0.3,0.2,0.4c0.1,0.1,0.3,0.2,0.4,0.2s0.3-0.1,0.4-0.2c0.1-0.1,0.2-0.3,0.2-0.4s-0.1-0.3-0.2-0.4
			C135.5,33.6,135.4,33.6,135.2,33.6z"/>
		<path id="XMLID_344_" d="M139.4,34.2c0,0.2,0,0.3-0.1,0.5c-0.1,0.1-0.2,0.2-0.4,0.3c0.2,0.1,0.3,0.2,0.4,0.3
			c0.1,0.2,0.2,0.3,0.2,0.5c0,0.3-0.1,0.6-0.3,0.7c-0.2,0.2-0.5,0.3-0.8,0.3c-0.3,0-0.6-0.1-0.8-0.3c-0.2-0.2-0.3-0.4-0.3-0.7
			c0-0.2,0.1-0.4,0.2-0.5c0.1-0.2,0.3-0.3,0.4-0.4c-0.2-0.1-0.3-0.2-0.4-0.3c-0.1-0.1-0.1-0.3-0.1-0.5c0-0.3,0.1-0.5,0.3-0.7
			c0.2-0.2,0.4-0.3,0.8-0.3c0.3,0,0.6,0.1,0.8,0.3C139.3,33.6,139.4,33.9,139.4,34.2z M139,35.8c0-0.2-0.1-0.4-0.2-0.5
			c-0.1-0.1-0.3-0.2-0.5-0.2c-0.2,0-0.4,0.1-0.5,0.2c-0.1,0.1-0.2,0.3-0.2,0.5c0,0.2,0.1,0.4,0.2,0.5c0.1,0.1,0.3,0.2,0.5,0.2
			c0.2,0,0.4-0.1,0.5-0.2C138.9,36.2,139,36,139,35.8z M138.3,33.6c-0.2,0-0.3,0.1-0.4,0.2c-0.1,0.1-0.2,0.3-0.2,0.4
			c0,0.2,0.1,0.3,0.2,0.4c0.1,0.1,0.3,0.2,0.4,0.2s0.3-0.1,0.4-0.2c0.1-0.1,0.2-0.3,0.2-0.4s-0.1-0.3-0.2-0.4
			C138.6,33.6,138.5,33.6,138.3,33.6z"/>
		<path id="XMLID_341_" d="M142,35.2c-0.1,0.1-0.2,0.2-0.3,0.3c-0.1,0.1-0.3,0.1-0.4,0.1c-0.2,0-0.4-0.1-0.5-0.2
			c-0.2-0.1-0.3-0.2-0.4-0.4c-0.1-0.2-0.1-0.4-0.1-0.6c0-0.2,0-0.5,0.1-0.6c0.1-0.2,0.2-0.3,0.4-0.4c0.2-0.1,0.4-0.2,0.6-0.2
			c0.4,0,0.6,0.1,0.8,0.4c0.2,0.3,0.3,0.6,0.3,1.1v0.1c0,0.7-0.1,1.2-0.4,1.5c-0.3,0.3-0.7,0.5-1.2,0.5h-0.1v-0.4h0.1
			c0.4,0,0.7-0.1,0.9-0.3S142,35.6,142,35.2z M141.3,35.2c0.2,0,0.3,0,0.4-0.1s0.2-0.2,0.3-0.3v-0.2c0-0.3-0.1-0.5-0.2-0.7
			c-0.1-0.2-0.3-0.3-0.5-0.3c-0.2,0-0.4,0.1-0.5,0.2c-0.1,0.2-0.2,0.4-0.2,0.6c0,0.2,0.1,0.4,0.2,0.6
			C141,35.2,141.1,35.2,141.3,35.2z"/>
	</g>
	<g id="XMLID_304_">
		<path id="XMLID_338_" d="M18.2,53.3c0,0-0.1-0.1-0.1-0.1c-0.1,0-0.1-0.1-0.2-0.1c-0.1,0-0.2-0.1-0.3-0.1c-0.1,0-0.2,0-0.3,0
			c-0.2,0-0.3,0-0.4,0.1s-0.1,0.2-0.1,0.3c0,0.1,0,0.1,0.1,0.2s0.1,0.1,0.2,0.1c0.1,0,0.2,0.1,0.3,0.1c0.1,0,0.2,0.1,0.4,0.1
			c0.2,0,0.3,0.1,0.5,0.2c0.1,0.1,0.3,0.1,0.4,0.2c0.1,0.1,0.2,0.2,0.2,0.3s0.1,0.2,0.1,0.4c0,0.2,0,0.4-0.1,0.5
			c-0.1,0.1-0.2,0.2-0.3,0.3s-0.3,0.1-0.4,0.2S17.4,56,17.3,56c-0.3,0-0.5,0-0.8-0.1c-0.3-0.1-0.5-0.2-0.7-0.3l0.3-0.6
			c0,0,0.1,0.1,0.2,0.1c0.1,0,0.2,0.1,0.3,0.1c0.1,0,0.2,0.1,0.4,0.1c0.1,0,0.3,0,0.4,0c0.4,0,0.6-0.1,0.6-0.4c0-0.1,0-0.1-0.1-0.2
			c0-0.1-0.1-0.1-0.2-0.1s-0.2-0.1-0.3-0.1s-0.2-0.1-0.4-0.1c-0.2,0-0.3-0.1-0.4-0.2c-0.1-0.1-0.2-0.1-0.3-0.2
			C16.1,54,16,53.9,16,53.8c0-0.1-0.1-0.2-0.1-0.4c0-0.2,0-0.3,0.1-0.5c0.1-0.1,0.2-0.3,0.3-0.3c0.1-0.1,0.3-0.2,0.4-0.2
			c0.2,0,0.3-0.1,0.5-0.1c0.2,0,0.5,0,0.7,0.1c0.2,0.1,0.4,0.2,0.5,0.3L18.2,53.3z"/>
		<path id="XMLID_336_" d="M20.1,56c-0.3,0-0.5-0.1-0.6-0.3c-0.1-0.2-0.2-0.4-0.2-0.8v-1.6H20v1.5c0,0.4,0.1,0.6,0.4,0.6
			c0.1,0,0.3,0,0.4-0.1c0.1-0.1,0.2-0.2,0.3-0.4v-1.6h0.7v1.8c0,0.1,0,0.1,0,0.2s0.1,0,0.1,0v0.6c-0.1,0-0.1,0-0.2,0s-0.1,0-0.1,0
			c-0.1,0-0.2,0-0.3-0.1c-0.1-0.1-0.1-0.1-0.1-0.2l0-0.2c-0.1,0.2-0.3,0.3-0.5,0.4S20.3,56,20.1,56z"/>
		<path id="XMLID_334_" d="M25.2,55.9h-0.7v-1.5c0-0.2,0-0.4-0.1-0.5s-0.2-0.1-0.3-0.1c-0.1,0-0.1,0-0.2,0c-0.1,0-0.1,0.1-0.2,0.1
			c-0.1,0-0.1,0.1-0.2,0.2c-0.1,0.1-0.1,0.1-0.1,0.2v1.5h-0.7v-2.6h0.6v0.5c0.1-0.2,0.2-0.3,0.4-0.4c0.2-0.1,0.4-0.1,0.6-0.1
			c0.2,0,0.3,0,0.4,0.1c0.1,0.1,0.2,0.1,0.2,0.2s0.1,0.2,0.1,0.3c0,0.1,0,0.2,0,0.4V55.9z"/>
		<path id="XMLID_332_" d="M26,54.9v-0.6h1.5v0.6H26z"/>
		<path id="XMLID_330_" d="M30.8,53h-1.1v2.9H29V53h-1.1v-0.6h3V53z"/>
		<path id="XMLID_328_" d="M33.9,55.9h-0.7v-1.5c0-0.2,0-0.4-0.1-0.5c-0.1-0.1-0.2-0.1-0.3-0.1c-0.1,0-0.1,0-0.2,0
			c-0.1,0-0.1,0.1-0.2,0.1c-0.1,0-0.1,0.1-0.2,0.2c-0.1,0.1-0.1,0.1-0.1,0.2v1.5h-0.7v-3.7h0.7v1.5c0.1-0.2,0.2-0.3,0.4-0.4
			s0.3-0.1,0.5-0.1c0.2,0,0.3,0,0.4,0.1c0.1,0.1,0.2,0.1,0.2,0.2c0.1,0.1,0.1,0.2,0.1,0.3c0,0.1,0,0.2,0,0.4V55.9z"/>
		<path id="XMLID_326_" d="M35.6,56c-0.3,0-0.5-0.1-0.6-0.3c-0.1-0.2-0.2-0.4-0.2-0.8v-1.6h0.7v1.5c0,0.4,0.1,0.6,0.4,0.6
			c0.1,0,0.3,0,0.4-0.1c0.1-0.1,0.2-0.2,0.3-0.4v-1.6h0.7v1.8c0,0.1,0,0.1,0,0.2s0.1,0,0.1,0v0.6c-0.1,0-0.1,0-0.2,0s-0.1,0-0.1,0
			c-0.1,0-0.2,0-0.3-0.1c-0.1-0.1-0.1-0.1-0.1-0.2l0-0.2c-0.1,0.2-0.3,0.3-0.5,0.4S35.8,56,35.6,56z"/>
		<path id="XMLID_324_" d="M42.7,55.9h-0.5v-3l-0.9,0.3v-0.4l1.3-0.5h0.1V55.9z"/>
		<path id="XMLID_322_" d="M45.8,55.9h-0.5v-3l-0.9,0.3v-0.4l1.3-0.5h0.1V55.9z"/>
		<path id="XMLID_319_" d="M49.1,55.9c0-0.1,0-0.1-0.1-0.3c-0.2,0.2-0.5,0.3-0.8,0.3c-0.3,0-0.5-0.1-0.6-0.2
			c-0.2-0.1-0.3-0.3-0.3-0.6c0-0.3,0.1-0.5,0.3-0.6c0.2-0.2,0.5-0.2,0.9-0.2H49v-0.2c0-0.2,0-0.3-0.1-0.4s-0.2-0.1-0.4-0.1
			c-0.2,0-0.3,0-0.4,0.1c-0.1,0.1-0.2,0.2-0.2,0.3h-0.5c0-0.1,0-0.3,0.1-0.4c0.1-0.1,0.2-0.2,0.4-0.3c0.2-0.1,0.3-0.1,0.5-0.1
			c0.3,0,0.5,0.1,0.7,0.2c0.2,0.2,0.3,0.4,0.3,0.6v1.2c0,0.2,0,0.4,0.1,0.6v0H49.1z M48.4,55.6c0.1,0,0.3,0,0.4-0.1s0.2-0.2,0.3-0.3
			v-0.5h-0.4c-0.6,0-0.8,0.2-0.8,0.5c0,0.1,0,0.3,0.1,0.3C48.1,55.6,48.2,55.6,48.4,55.6z"/>
		<path id="XMLID_317_" d="M50.9,53.3l0,0.3c0.2-0.2,0.5-0.3,0.8-0.3c0.4,0,0.6,0.1,0.8,0.4c0.1-0.1,0.2-0.2,0.3-0.3
			c0.1-0.1,0.3-0.1,0.5-0.1c0.6,0,0.9,0.3,0.9,0.9v1.8h-0.5v-1.7c0-0.2,0-0.3-0.1-0.4s-0.2-0.1-0.4-0.1c-0.2,0-0.3,0.1-0.4,0.2
			c-0.1,0.1-0.2,0.2-0.2,0.4v1.8h-0.5v-1.7c0-0.4-0.2-0.6-0.6-0.6c-0.3,0-0.5,0.1-0.6,0.4v1.9h-0.5v-2.6H50.9z"/>
		<path id="XMLID_315_" d="M56.1,54.6h-1.2v-0.4h1.2V54.6z"/>
		<path id="XMLID_313_" d="M58.3,55.9h-0.5v-3l-0.9,0.3v-0.4l1.3-0.5h0.1V55.9z"/>
		<path id="XMLID_310_" d="M62.2,54.4c0,0.5-0.1,0.9-0.3,1.2C61.7,55.9,61.4,56,61,56c-0.4,0-0.7-0.1-0.8-0.4
			c-0.2-0.3-0.3-0.6-0.3-1.1v-0.6c0-0.5,0.1-0.9,0.3-1.2s0.5-0.4,0.8-0.4c0.4,0,0.7,0.1,0.8,0.4s0.3,0.6,0.3,1.1V54.4z M61.7,53.8
			c0-0.4-0.1-0.7-0.2-0.8c-0.1-0.2-0.3-0.3-0.5-0.3c-0.2,0-0.4,0.1-0.5,0.3c-0.1,0.2-0.2,0.4-0.2,0.8v0.7c0,0.4,0.1,0.7,0.2,0.9
			c0.1,0.2,0.3,0.3,0.5,0.3c0.2,0,0.4-0.1,0.5-0.3c0.1-0.2,0.2-0.4,0.2-0.8V53.8z"/>
		<path id="XMLID_307_" d="M65.3,54.7c0,0.4-0.1,0.7-0.3,1c-0.2,0.2-0.4,0.4-0.7,0.4c-0.3,0-0.6-0.1-0.8-0.3V57h-0.5v-3.7h0.4l0,0.3
			c0.2-0.2,0.4-0.3,0.8-0.3c0.3,0,0.6,0.1,0.8,0.4C65.2,53.9,65.3,54.2,65.3,54.7L65.3,54.7z M64.9,54.6c0-0.3-0.1-0.5-0.2-0.7
			c-0.1-0.2-0.3-0.3-0.5-0.3c-0.3,0-0.5,0.1-0.6,0.4v1.3c0.1,0.2,0.3,0.4,0.6,0.4c0.2,0,0.4-0.1,0.5-0.3
			C64.8,55.2,64.9,54.9,64.9,54.6z"/>
		<path id="XMLID_305_" d="M66.6,53.3l0,0.3c0.2-0.2,0.5-0.3,0.8-0.3c0.4,0,0.6,0.1,0.8,0.4c0.1-0.1,0.2-0.2,0.3-0.3
			c0.1-0.1,0.3-0.1,0.5-0.1c0.6,0,0.9,0.3,0.9,0.9v1.8h-0.5v-1.7c0-0.2,0-0.3-0.1-0.4s-0.2-0.1-0.4-0.1c-0.2,0-0.3,0.1-0.4,0.2
			c-0.1,0.1-0.2,0.2-0.2,0.4v1.8h-0.5v-1.7c0-0.4-0.2-0.6-0.6-0.6c-0.3,0-0.5,0.1-0.6,0.4v1.9h-0.5v-2.6H66.6z"/>
	</g>
	<g id="XMLID_267_">
		<path id="XMLID_302_" d="M18.1,63.3v-3.5h2.4v0.6h-1.7v0.9h1.4v0.6h-1.4v1.5H18.1z"/>
		<path id="XMLID_300_" d="M22.8,61.3c-0.2,0-0.4,0-0.5,0.1c-0.2,0.1-0.3,0.2-0.3,0.3v1.6h-0.7v-2.6h0.6v0.6
			c0.1-0.2,0.2-0.3,0.4-0.4c0.1-0.1,0.3-0.2,0.5-0.2c0,0,0.1,0,0.1,0c0,0,0,0,0.1,0V61.3z"/>
		<path id="XMLID_297_" d="M23.5,60.3v-0.7h0.7v0.7H23.5z M23.5,63.3v-2.6h0.7v2.6H23.5z"/>
		<path id="XMLID_295_" d="M25,62.2v-0.6h1.5v0.6H25z"/>
		<path id="XMLID_293_" d="M29.6,60.7c0,0-0.1-0.1-0.1-0.1c-0.1,0-0.1-0.1-0.2-0.1c-0.1,0-0.2-0.1-0.3-0.1c-0.1,0-0.2,0-0.3,0
			c-0.2,0-0.3,0-0.4,0.1c-0.1,0.1-0.1,0.2-0.1,0.3c0,0.1,0,0.1,0.1,0.2c0,0,0.1,0.1,0.2,0.1c0.1,0,0.2,0.1,0.3,0.1
			c0.1,0,0.2,0.1,0.4,0.1c0.2,0,0.3,0.1,0.5,0.1c0.1,0.1,0.3,0.1,0.4,0.2c0.1,0.1,0.2,0.2,0.2,0.3C30,62,30,62.1,30,62.3
			c0,0.2,0,0.4-0.1,0.5s-0.2,0.2-0.3,0.3c-0.1,0.1-0.3,0.1-0.4,0.2c-0.2,0-0.3,0.1-0.5,0.1c-0.3,0-0.5,0-0.8-0.1
			c-0.3-0.1-0.5-0.2-0.7-0.3l0.3-0.6c0,0,0.1,0.1,0.2,0.1c0.1,0,0.2,0.1,0.3,0.1c0.1,0,0.2,0.1,0.4,0.1c0.1,0,0.3,0,0.4,0
			c0.4,0,0.6-0.1,0.6-0.4c0-0.1,0-0.1-0.1-0.2c0-0.1-0.1-0.1-0.2-0.1s-0.2-0.1-0.3-0.1s-0.2-0.1-0.4-0.1c-0.2,0-0.3-0.1-0.4-0.2
			s-0.2-0.1-0.3-0.2c-0.1-0.1-0.1-0.2-0.2-0.3c0-0.1-0.1-0.2-0.1-0.4c0-0.2,0-0.3,0.1-0.5c0.1-0.1,0.2-0.3,0.3-0.4
			c0.1-0.1,0.3-0.2,0.4-0.2c0.2,0,0.3-0.1,0.5-0.1c0.2,0,0.5,0,0.7,0.1s0.4,0.2,0.5,0.3L29.6,60.7z"/>
		<path id="XMLID_290_" d="M31.5,63.4c-0.1,0-0.2,0-0.4-0.1c-0.1,0-0.2-0.1-0.3-0.2s-0.1-0.2-0.2-0.3c0-0.1-0.1-0.2-0.1-0.3
			c0-0.1,0-0.2,0.1-0.3c0.1-0.1,0.1-0.2,0.2-0.3s0.2-0.1,0.4-0.2c0.1,0,0.3-0.1,0.5-0.1c0.1,0,0.2,0,0.3,0c0.1,0,0.2,0,0.3,0.1v-0.2
			c0-0.2,0-0.3-0.1-0.4c-0.1-0.1-0.2-0.1-0.4-0.1c-0.1,0-0.3,0-0.4,0.1c-0.1,0-0.3,0.1-0.4,0.2L30.7,61c0.3-0.2,0.7-0.3,1.1-0.3
			c0.4,0,0.7,0.1,0.9,0.3c0.2,0.2,0.3,0.5,0.3,0.8v0.8c0,0.1,0,0.1,0,0.1c0,0,0.1,0,0.1,0.1v0.6c-0.1,0-0.1,0-0.2,0
			c-0.1,0-0.1,0-0.1,0c-0.1,0-0.2,0-0.3-0.1c-0.1-0.1-0.1-0.1-0.1-0.2l0-0.1c-0.1,0.2-0.3,0.3-0.4,0.4
			C31.9,63.3,31.7,63.4,31.5,63.4z M31.7,62.9c0.1,0,0.2,0,0.3-0.1c0.1,0,0.2-0.1,0.2-0.2c0.1-0.1,0.1-0.1,0.1-0.2v-0.3
			c-0.1,0-0.2-0.1-0.3-0.1c-0.1,0-0.2,0-0.3,0c-0.2,0-0.3,0-0.4,0.1c-0.1,0.1-0.2,0.2-0.2,0.3c0,0.1,0,0.2,0.1,0.3
			C31.5,62.8,31.6,62.9,31.7,62.9z"/>
		<path id="XMLID_288_" d="M35.5,63.2c-0.1,0-0.2,0.1-0.3,0.1s-0.3,0.1-0.4,0.1c-0.1,0-0.2,0-0.3,0c-0.1,0-0.2-0.1-0.2-0.1
			c-0.1-0.1-0.1-0.1-0.1-0.2c0-0.1-0.1-0.2-0.1-0.3v-1.5h-0.3v-0.5h0.3v-0.8h0.7v0.8h0.6v0.5h-0.6v1.3c0,0.1,0,0.2,0.1,0.2
			c0.1,0,0.1,0.1,0.2,0.1s0.1,0,0.2,0c0.1,0,0.1,0,0.2-0.1L35.5,63.2z"/>
		<path id="XMLID_286_" d="M40.6,63.3h-0.5v-3l-0.9,0.3v-0.4l1.3-0.5h0.1V63.3z"/>
		<path id="XMLID_284_" d="M43.7,63.3h-0.5v-3l-0.9,0.3v-0.4l1.3-0.5h0.1V63.3z"/>
		<path id="XMLID_281_" d="M47,63.3c0-0.1,0-0.1-0.1-0.3c-0.2,0.2-0.5,0.3-0.8,0.3c-0.3,0-0.5-0.1-0.6-0.2c-0.2-0.1-0.3-0.3-0.3-0.6
			c0-0.3,0.1-0.5,0.3-0.6c0.2-0.2,0.5-0.2,0.9-0.2h0.4v-0.2c0-0.2,0-0.3-0.1-0.4C46.7,61,46.6,61,46.4,61c-0.2,0-0.3,0-0.4,0.1
			c-0.1,0.1-0.2,0.2-0.2,0.3h-0.5c0-0.1,0-0.3,0.1-0.4c0.1-0.1,0.2-0.2,0.4-0.3c0.2-0.1,0.3-0.1,0.5-0.1c0.3,0,0.5,0.1,0.7,0.2
			s0.3,0.4,0.3,0.6v1.2c0,0.2,0,0.4,0.1,0.6v0H47z M46.3,63c0.1,0,0.3,0,0.4-0.1s0.2-0.2,0.3-0.3V62h-0.4c-0.6,0-0.8,0.2-0.8,0.5
			c0,0.1,0,0.3,0.1,0.3C46,62.9,46.1,63,46.3,63z"/>
		<path id="XMLID_279_" d="M48.8,60.7l0,0.3c0.2-0.2,0.5-0.3,0.8-0.3c0.4,0,0.6,0.1,0.8,0.4c0.1-0.1,0.2-0.2,0.3-0.3
			c0.1-0.1,0.3-0.1,0.5-0.1c0.6,0,0.9,0.3,0.9,0.9v1.8h-0.5v-1.7c0-0.2,0-0.3-0.1-0.4c-0.1-0.1-0.2-0.1-0.4-0.1
			c-0.2,0-0.3,0-0.4,0.1c-0.1,0.1-0.2,0.2-0.2,0.4v1.8H50v-1.7c0-0.4-0.2-0.6-0.6-0.6c-0.3,0-0.5,0.1-0.6,0.4v1.9h-0.5v-2.6H48.8z"
			/>
		<path id="XMLID_277_" d="M54,62h-1.2v-0.4H54V62z"/>
		<path id="XMLID_275_" d="M56.2,63.3h-0.5v-3l-0.9,0.3v-0.4l1.3-0.5h0.1V63.3z"/>
		<path id="XMLID_273_" d="M59.3,63.3h-0.5v-3l-0.9,0.3v-0.4l1.3-0.5h0.1V63.3z"/>
		<path id="XMLID_270_" d="M63.2,62c0,0.4-0.1,0.7-0.3,1c-0.2,0.2-0.4,0.4-0.7,0.4c-0.3,0-0.6-0.1-0.8-0.3v1.3H61v-3.7h0.4l0,0.3
			c0.2-0.2,0.4-0.3,0.8-0.3c0.3,0,0.6,0.1,0.8,0.4C63.1,61.2,63.2,61.6,63.2,62L63.2,62z M62.8,62c0-0.3-0.1-0.5-0.2-0.7
			C62.4,61.1,62.3,61,62,61c-0.3,0-0.5,0.1-0.6,0.4v1.3c0.1,0.2,0.3,0.4,0.6,0.4c0.2,0,0.4-0.1,0.5-0.3C62.7,62.6,62.8,62.3,62.8,62
			z"/>
		<path id="XMLID_268_" d="M64.5,60.7l0,0.3c0.2-0.2,0.5-0.3,0.8-0.3c0.4,0,0.6,0.1,0.8,0.4c0.1-0.1,0.2-0.2,0.3-0.3
			c0.1-0.1,0.3-0.1,0.5-0.1c0.6,0,0.9,0.3,0.9,0.9v1.8h-0.5v-1.7c0-0.2,0-0.3-0.1-0.4C67.1,61.1,67,61,66.8,61c-0.2,0-0.3,0-0.4,0.1
			c-0.1,0.1-0.2,0.2-0.2,0.4v1.8h-0.5v-1.7c0-0.4-0.2-0.6-0.6-0.6c-0.3,0-0.5,0.1-0.6,0.4v1.9h-0.5v-2.6H64.5z"/>
	</g>
	<g id="XMLID_217_">
		<path id="XMLID_263_" d="M13.8,44.7c0,0.2,0,0.5-0.1,0.7c-0.1,0.2-0.2,0.4-0.4,0.5c-0.2,0.1-0.4,0.3-0.6,0.3
			c-0.2,0.1-0.4,0.1-0.7,0.1h-3V40h3.1c0.2,0,0.4,0,0.6,0.1c0.2,0.1,0.3,0.2,0.5,0.4c0.1,0.2,0.2,0.3,0.3,0.5
			c0.1,0.2,0.1,0.4,0.1,0.6c0,0.3-0.1,0.6-0.2,0.9c-0.2,0.3-0.4,0.5-0.7,0.6c0.4,0.1,0.7,0.3,0.9,0.6C13.7,44,13.8,44.3,13.8,44.7z
			 M9.7,40.5v2.4h2.2c0.2,0,0.3,0,0.4-0.1c0.1-0.1,0.3-0.2,0.4-0.3s0.2-0.2,0.2-0.4c0.1-0.1,0.1-0.3,0.1-0.4c0-0.2,0-0.3-0.1-0.5
			c-0.1-0.1-0.1-0.3-0.2-0.4c-0.1-0.1-0.2-0.2-0.3-0.3c-0.1-0.1-0.3-0.1-0.4-0.1H9.7z M13.2,44.6c0-0.2,0-0.3-0.1-0.5
			c-0.1-0.1-0.1-0.3-0.2-0.4c-0.1-0.1-0.2-0.2-0.4-0.3c-0.1-0.1-0.3-0.1-0.4-0.1H9.7v2.4h2.4c0.2,0,0.3,0,0.5-0.1
			c0.1-0.1,0.3-0.2,0.4-0.3s0.2-0.2,0.2-0.4C13.2,44.9,13.2,44.8,13.2,44.6z"/>
		<path id="XMLID_261_" d="M16.7,46.5c-0.5,0-0.9-0.2-1.1-0.5c-0.3-0.3-0.4-0.8-0.4-1.5v-2.8h0.6v2.6c0,1.1,0.4,1.6,1.1,1.6
			c0.2,0,0.4,0,0.5-0.1c0.2-0.1,0.3-0.1,0.5-0.3c0.1-0.1,0.3-0.2,0.4-0.4c0.1-0.2,0.2-0.3,0.3-0.5v-3h0.6v3.9c0,0.2,0.1,0.3,0.2,0.3
			v0.5c-0.1,0-0.2,0-0.3,0c-0.1,0-0.3,0-0.4-0.1c-0.1-0.1-0.1-0.2-0.1-0.3v-0.6c-0.2,0.4-0.5,0.6-0.8,0.9
			C17.5,46.4,17.1,46.5,16.7,46.5z"/>
		<path id="XMLID_259_" d="M22.5,46.5c-0.4,0-0.7-0.1-1.1-0.2c-0.3-0.1-0.6-0.3-0.9-0.5l0.3-0.4c0.3,0.2,0.5,0.4,0.8,0.5
			c0.3,0.1,0.6,0.2,0.9,0.2c0.4,0,0.7-0.1,0.9-0.2s0.3-0.4,0.3-0.7c0-0.1,0-0.2-0.1-0.3s-0.1-0.2-0.3-0.2c-0.1-0.1-0.3-0.1-0.4-0.2
			c-0.2-0.1-0.4-0.1-0.6-0.2c-0.3-0.1-0.5-0.1-0.7-0.2c-0.2-0.1-0.4-0.1-0.5-0.2c-0.1-0.1-0.2-0.2-0.3-0.3s-0.1-0.3-0.1-0.5
			c0-0.2,0-0.4,0.1-0.6c0.1-0.2,0.2-0.3,0.4-0.4c0.2-0.1,0.3-0.2,0.6-0.3c0.2-0.1,0.4-0.1,0.7-0.1c0.4,0,0.7,0.1,1,0.2
			c0.3,0.1,0.5,0.3,0.7,0.5l-0.3,0.4c-0.2-0.2-0.4-0.3-0.6-0.4c-0.2-0.1-0.5-0.1-0.8-0.1c-0.2,0-0.3,0-0.4,0c-0.1,0-0.3,0.1-0.4,0.2
			c-0.1,0.1-0.2,0.2-0.2,0.3s-0.1,0.2-0.1,0.4c0,0.1,0,0.2,0.1,0.3s0.1,0.1,0.2,0.2c0.1,0.1,0.2,0.1,0.4,0.2s0.3,0.1,0.5,0.1
			c0.3,0.1,0.6,0.1,0.8,0.2s0.4,0.2,0.6,0.3c0.2,0.1,0.3,0.2,0.3,0.4c0.1,0.1,0.1,0.3,0.1,0.5c0,0.4-0.2,0.8-0.5,1
			S23.1,46.5,22.5,46.5z"/>
		<path id="XMLID_256_" d="M25.7,40.7v-0.9h0.6v0.9H25.7z M25.7,46.4v-4.7h0.6v4.7H25.7z"/>
		<path id="XMLID_254_" d="M31.9,46.4h-0.6v-2.6c0-0.6-0.1-1-0.2-1.2c-0.2-0.3-0.4-0.4-0.8-0.4c-0.2,0-0.4,0-0.5,0.1
			c-0.2,0.1-0.3,0.2-0.5,0.3c-0.2,0.1-0.3,0.3-0.4,0.4c-0.1,0.2-0.2,0.3-0.3,0.5v2.9H28v-4.7h0.6v1.1c0.1-0.2,0.2-0.3,0.4-0.5
			c0.1-0.1,0.3-0.3,0.5-0.4c0.2-0.1,0.4-0.2,0.6-0.2c0.2-0.1,0.4-0.1,0.6-0.1c0.3,0,0.5,0,0.7,0.1c0.2,0.1,0.3,0.2,0.4,0.4
			s0.2,0.4,0.2,0.6c0,0.3,0.1,0.5,0.1,0.8V46.4z"/>
		<path id="XMLID_251_" d="M35.6,46.5c-0.3,0-0.7-0.1-0.9-0.2c-0.3-0.1-0.5-0.3-0.7-0.5c-0.2-0.2-0.4-0.5-0.5-0.8
			c-0.1-0.3-0.2-0.6-0.2-0.9c0-0.3,0.1-0.6,0.2-0.9c0.1-0.3,0.3-0.5,0.5-0.8c0.2-0.2,0.5-0.4,0.7-0.5c0.3-0.1,0.6-0.2,0.9-0.2
			c0.3,0,0.7,0.1,0.9,0.2c0.3,0.1,0.5,0.3,0.7,0.5s0.4,0.5,0.5,0.8c0.1,0.3,0.2,0.6,0.2,0.9c0,0,0,0.1,0,0.1s0,0.1,0,0.1h-4
			c0,0.3,0.1,0.5,0.2,0.7c0.1,0.2,0.2,0.4,0.4,0.6c0.2,0.2,0.3,0.3,0.5,0.4s0.4,0.1,0.6,0.1c0.2,0,0.3,0,0.5-0.1s0.3-0.1,0.4-0.2
			c0.1-0.1,0.2-0.2,0.3-0.3c0.1-0.1,0.2-0.2,0.2-0.3l0.5,0.1c-0.1,0.2-0.2,0.3-0.3,0.5c-0.1,0.1-0.3,0.3-0.5,0.4
			c-0.2,0.1-0.4,0.2-0.6,0.2S35.8,46.5,35.6,46.5z M37.3,43.8c0-0.3-0.1-0.5-0.2-0.7c-0.1-0.2-0.2-0.4-0.4-0.5
			c-0.2-0.2-0.3-0.3-0.5-0.4c-0.2-0.1-0.4-0.1-0.6-0.1c-0.2,0-0.4,0-0.6,0.1c-0.2,0.1-0.4,0.2-0.5,0.4c-0.2,0.1-0.3,0.3-0.4,0.5
			c-0.1,0.2-0.1,0.4-0.2,0.7H37.3z"/>
		<path id="XMLID_249_" d="M40.8,46.5c-0.4,0-0.7-0.1-1.1-0.2c-0.3-0.1-0.6-0.3-0.9-0.5l0.3-0.4c0.3,0.2,0.5,0.4,0.8,0.5
			c0.3,0.1,0.6,0.2,0.9,0.2c0.4,0,0.7-0.1,0.9-0.2s0.3-0.4,0.3-0.7c0-0.1,0-0.2-0.1-0.3s-0.1-0.2-0.3-0.2c-0.1-0.1-0.3-0.1-0.4-0.2
			c-0.2-0.1-0.4-0.1-0.6-0.2c-0.3-0.1-0.5-0.1-0.7-0.2c-0.2-0.1-0.4-0.1-0.5-0.2c-0.1-0.1-0.2-0.2-0.3-0.3S39,43.2,39,43
			c0-0.2,0-0.4,0.1-0.6c0.1-0.2,0.2-0.3,0.4-0.4c0.2-0.1,0.3-0.2,0.6-0.3c0.2-0.1,0.4-0.1,0.7-0.1c0.4,0,0.7,0.1,1,0.2
			c0.3,0.1,0.5,0.3,0.7,0.5l-0.3,0.4c-0.2-0.2-0.4-0.3-0.6-0.4c-0.2-0.1-0.5-0.1-0.8-0.1c-0.2,0-0.3,0-0.4,0c-0.1,0-0.3,0.1-0.4,0.2
			c-0.1,0.1-0.2,0.2-0.2,0.3s-0.1,0.2-0.1,0.4c0,0.1,0,0.2,0.1,0.3s0.1,0.1,0.2,0.2c0.1,0.1,0.2,0.1,0.4,0.2s0.3,0.1,0.5,0.1
			c0.3,0.1,0.6,0.1,0.8,0.2s0.4,0.2,0.6,0.3c0.2,0.1,0.3,0.2,0.3,0.4c0.1,0.1,0.1,0.3,0.1,0.5c0,0.4-0.2,0.8-0.5,1
			S41.3,46.5,40.8,46.5z"/>
		<path id="XMLID_247_" d="M45.5,46.5c-0.4,0-0.7-0.1-1.1-0.2c-0.3-0.1-0.6-0.3-0.9-0.5l0.3-0.4c0.3,0.2,0.5,0.4,0.8,0.5
			c0.3,0.1,0.6,0.2,0.9,0.2c0.4,0,0.7-0.1,0.9-0.2s0.3-0.4,0.3-0.7c0-0.1,0-0.2-0.1-0.3s-0.1-0.2-0.3-0.2c-0.1-0.1-0.3-0.1-0.4-0.2
			c-0.2-0.1-0.4-0.1-0.6-0.2c-0.3-0.1-0.5-0.1-0.7-0.2c-0.2-0.1-0.4-0.1-0.5-0.2c-0.1-0.1-0.2-0.2-0.3-0.3s-0.1-0.3-0.1-0.5
			c0-0.2,0-0.4,0.1-0.6c0.1-0.2,0.2-0.3,0.4-0.4c0.2-0.1,0.3-0.2,0.6-0.3c0.2-0.1,0.4-0.1,0.7-0.1c0.4,0,0.7,0.1,1,0.2
			c0.3,0.1,0.5,0.3,0.7,0.5l-0.3,0.4c-0.2-0.2-0.4-0.3-0.6-0.4c-0.2-0.1-0.5-0.1-0.8-0.1c-0.2,0-0.3,0-0.4,0c-0.1,0-0.3,0.1-0.4,0.2
			c-0.1,0.1-0.2,0.2-0.2,0.3s-0.1,0.2-0.1,0.4c0,0.1,0,0.2,0.1,0.3s0.1,0.1,0.2,0.2c0.1,0.1,0.2,0.1,0.4,0.2s0.3,0.1,0.5,0.1
			c0.3,0.1,0.6,0.1,0.8,0.2s0.4,0.2,0.6,0.3c0.2,0.1,0.3,0.2,0.3,0.4c0.1,0.1,0.1,0.3,0.1,0.5c0,0.4-0.2,0.8-0.5,1
			S46.1,46.5,45.5,46.5z"/>
		<path id="XMLID_227_" d="M56.5,40v6.4h-1.2v-2.7h-2.9v2.7h-1.2V40h1.2v2.6h2.9V40H56.5z"/>
		<path id="XMLID_224_" d="M60.2,46.5c-0.4,0-0.7-0.1-1-0.2c-0.3-0.1-0.6-0.3-0.8-0.5c-0.2-0.2-0.4-0.5-0.5-0.8
			c-0.1-0.3-0.2-0.6-0.2-0.9c0-0.3,0.1-0.6,0.2-0.9c0.1-0.3,0.3-0.6,0.5-0.8c0.2-0.2,0.5-0.4,0.8-0.5c0.3-0.1,0.7-0.2,1-0.2
			c0.4,0,0.7,0.1,1,0.2c0.3,0.1,0.6,0.3,0.8,0.5c0.2,0.2,0.4,0.5,0.5,0.8c0.1,0.3,0.2,0.6,0.2,0.9c0,0.3-0.1,0.6-0.2,0.9
			c-0.1,0.3-0.3,0.6-0.5,0.8c-0.2,0.2-0.5,0.4-0.8,0.5C60.9,46.4,60.6,46.5,60.2,46.5z M59,44c0,0.2,0,0.4,0.1,0.6s0.1,0.3,0.3,0.4
			c0.1,0.1,0.2,0.2,0.4,0.3c0.1,0.1,0.3,0.1,0.5,0.1c0.2,0,0.3,0,0.5-0.1s0.3-0.2,0.4-0.3c0.1-0.1,0.2-0.3,0.3-0.5
			c0.1-0.2,0.1-0.4,0.1-0.6c0-0.2,0-0.4-0.1-0.6s-0.2-0.3-0.3-0.5c-0.1-0.1-0.2-0.2-0.4-0.3c-0.1-0.1-0.3-0.1-0.5-0.1
			c-0.2,0-0.3,0-0.5,0.1c-0.2,0.1-0.3,0.2-0.4,0.3c-0.1,0.1-0.2,0.3-0.3,0.5C59,43.6,59,43.8,59,44z"/>
		<path id="XMLID_222_" d="M65.3,46.5c-0.5,0-0.9-0.2-1.1-0.5c-0.3-0.3-0.4-0.8-0.4-1.4v-3H65v2.7c0,0.7,0.3,1.1,0.8,1.1
			c0.2,0,0.5-0.1,0.7-0.2c0.2-0.1,0.4-0.4,0.5-0.6v-2.9h1.2V45c0,0.1,0,0.2,0.1,0.3c0,0.1,0.1,0.1,0.3,0.1v1c-0.1,0-0.2,0-0.3,0
			c-0.1,0-0.2,0-0.3,0c-0.2,0-0.4,0-0.5-0.1c-0.1-0.1-0.2-0.2-0.2-0.4l0-0.4c-0.2,0.3-0.5,0.6-0.8,0.7C66,46.4,65.7,46.5,65.3,46.5z
			"/>
		<path id="XMLID_220_" d="M72.6,42.7c-0.4,0-0.7,0.1-1,0.2c-0.3,0.1-0.5,0.3-0.6,0.6v2.9h-1.2v-4.7h1.1v1c0.2-0.3,0.4-0.6,0.6-0.8
			c0.3-0.2,0.5-0.3,0.8-0.3c0.1,0,0.1,0,0.1,0s0.1,0,0.1,0V42.7z"/>
		<path id="XMLID_218_" d="M75.5,46.5c-0.2,0-0.4,0-0.6,0c-0.2,0-0.4-0.1-0.6-0.1c-0.2-0.1-0.4-0.1-0.6-0.2
			c-0.2-0.1-0.3-0.2-0.5-0.3l0.5-0.8c0.6,0.4,1.2,0.6,1.7,0.6c0.3,0,0.5,0,0.6-0.1c0.1-0.1,0.2-0.2,0.2-0.4s-0.1-0.3-0.3-0.4
			c-0.2-0.1-0.5-0.2-0.9-0.3c-0.3-0.1-0.6-0.1-0.8-0.2c-0.2-0.1-0.4-0.2-0.5-0.3c-0.1-0.1-0.2-0.2-0.3-0.4c-0.1-0.1-0.1-0.3-0.1-0.5
			c0-0.2,0-0.5,0.1-0.6c0.1-0.2,0.2-0.4,0.4-0.5c0.2-0.1,0.4-0.2,0.6-0.3c0.2-0.1,0.5-0.1,0.8-0.1c0.3,0,0.7,0.1,1,0.2
			c0.3,0.1,0.6,0.2,0.9,0.4l-0.5,0.7c-0.3-0.2-0.5-0.3-0.7-0.4s-0.5-0.1-0.7-0.1c-0.2,0-0.4,0-0.5,0.1c-0.1,0.1-0.2,0.2-0.2,0.4
			c0,0.2,0.1,0.3,0.2,0.4c0.1,0.1,0.4,0.2,0.8,0.2c0.3,0.1,0.6,0.2,0.9,0.3c0.2,0.1,0.4,0.2,0.6,0.3c0.2,0.1,0.3,0.2,0.3,0.4
			s0.1,0.3,0.1,0.5c0,0.2,0,0.4-0.1,0.6c-0.1,0.2-0.2,0.3-0.4,0.5c-0.2,0.1-0.4,0.2-0.6,0.3C76,46.4,75.8,46.5,75.5,46.5z"/>
	</g>
	<g id="XMLID_168_">
		<path id="XMLID_215_" d="M108.5,54.1h-2.3v-0.3l1.2-1.4c0.2-0.2,0.3-0.4,0.4-0.5c0.1-0.1,0.1-0.3,0.1-0.4c0-0.2-0.1-0.3-0.2-0.5
			c-0.1-0.1-0.3-0.2-0.4-0.2c-0.2,0-0.4,0.1-0.5,0.2c-0.1,0.1-0.2,0.3-0.2,0.5h-0.5c0-0.3,0.1-0.6,0.3-0.8c0.2-0.2,0.5-0.3,0.8-0.3
			c0.3,0,0.6,0.1,0.8,0.3c0.2,0.2,0.3,0.4,0.3,0.7c0,0.4-0.2,0.8-0.7,1.2l-1,1h1.8V54.1z"/>
		<path id="XMLID_212_" d="M111,52.5c-0.1,0.1-0.2,0.2-0.3,0.3c-0.1,0.1-0.3,0.1-0.4,0.1c-0.2,0-0.4-0.1-0.5-0.2
			c-0.2-0.1-0.3-0.2-0.4-0.4c-0.1-0.2-0.1-0.4-0.1-0.6c0-0.2,0-0.5,0.1-0.6c0.1-0.2,0.2-0.3,0.4-0.4c0.2-0.1,0.4-0.2,0.6-0.2
			c0.4,0,0.6,0.1,0.8,0.4c0.2,0.3,0.3,0.6,0.3,1.1v0.1c0,0.7-0.1,1.2-0.4,1.5c-0.3,0.3-0.7,0.5-1.2,0.5h-0.1v-0.4h0.1
			c0.4,0,0.7-0.1,0.9-0.3S110.9,52.9,111,52.5z M110.3,52.5c0.2,0,0.3,0,0.4-0.1s0.2-0.2,0.3-0.3v-0.2c0-0.3-0.1-0.5-0.2-0.7
			c-0.1-0.2-0.3-0.3-0.5-0.3c-0.2,0-0.4,0.1-0.5,0.2c-0.1,0.2-0.2,0.4-0.2,0.6c0,0.2,0.1,0.4,0.2,0.6
			C109.9,52.4,110.1,52.5,110.3,52.5z"/>
		<path id="XMLID_210_" d="M114.7,54.1h-2.3v-0.3l1.2-1.4c0.2-0.2,0.3-0.4,0.4-0.5c0.1-0.1,0.1-0.3,0.1-0.4c0-0.2-0.1-0.3-0.2-0.5
			c-0.1-0.1-0.3-0.2-0.4-0.2c-0.2,0-0.4,0.1-0.5,0.2c-0.1,0.1-0.2,0.3-0.2,0.5h-0.5c0-0.3,0.1-0.6,0.3-0.8c0.2-0.2,0.5-0.3,0.8-0.3
			c0.3,0,0.6,0.1,0.8,0.3c0.2,0.2,0.3,0.4,0.3,0.7c0,0.4-0.2,0.8-0.7,1.2l-1,1h1.8V54.1z"/>
		<path id="XMLID_206_" d="M117.7,52.6c0,0.5-0.1,0.9-0.3,1.2c-0.2,0.3-0.5,0.4-0.8,0.4c-0.4,0-0.7-0.1-0.8-0.4
			c-0.2-0.3-0.3-0.6-0.3-1.1V52c0-0.5,0.1-0.9,0.3-1.2s0.5-0.4,0.8-0.4c0.4,0,0.7,0.1,0.8,0.4c0.2,0.2,0.3,0.6,0.3,1.1V52.6z
			 M117.2,51.9c0-0.4-0.1-0.7-0.2-0.8s-0.3-0.3-0.5-0.3c-0.2,0-0.4,0.1-0.5,0.3c-0.1,0.2-0.2,0.4-0.2,0.8v0.7c0,0.4,0.1,0.7,0.2,0.9
			c0.1,0.2,0.3,0.3,0.5,0.3c0.2,0,0.4-0.1,0.5-0.3c0.1-0.2,0.2-0.4,0.2-0.8V51.9z"/>
		<path id="XMLID_202_" d="M120.2,54.1v-3.6h1.2c0.4,0,0.7,0.1,0.9,0.2c0.2,0.2,0.3,0.4,0.3,0.7c0,0.2,0,0.3-0.1,0.4
			c-0.1,0.1-0.2,0.2-0.4,0.3c0.2,0.1,0.3,0.2,0.5,0.3s0.2,0.3,0.2,0.5c0,0.3-0.1,0.6-0.3,0.8c-0.2,0.2-0.5,0.3-0.9,0.3H120.2z
			 M120.7,52h0.7c0.2,0,0.4-0.1,0.5-0.2c0.1-0.1,0.2-0.2,0.2-0.4c0-0.2-0.1-0.3-0.2-0.4c-0.1-0.1-0.3-0.1-0.5-0.1h-0.7V52z
			 M120.7,52.4v1.3h0.8c0.2,0,0.4-0.1,0.5-0.2s0.2-0.3,0.2-0.5c0-0.4-0.2-0.6-0.7-0.6H120.7z"/>
		<path id="XMLID_199_" d="M125.2,54.1c0-0.1,0-0.1-0.1-0.3c-0.2,0.2-0.5,0.3-0.8,0.3c-0.3,0-0.5-0.1-0.6-0.2
			c-0.2-0.1-0.3-0.3-0.3-0.6c0-0.3,0.1-0.5,0.3-0.6c0.2-0.2,0.5-0.2,0.9-0.2h0.4v-0.2c0-0.2,0-0.3-0.1-0.4c-0.1-0.1-0.2-0.1-0.4-0.1
			c-0.2,0-0.3,0-0.4,0.1c-0.1,0.1-0.2,0.2-0.2,0.3h-0.5c0-0.1,0-0.3,0.1-0.4s0.2-0.2,0.4-0.3c0.2-0.1,0.3-0.1,0.5-0.1
			c0.3,0,0.5,0.1,0.7,0.2c0.2,0.2,0.3,0.4,0.3,0.6v1.2c0,0.2,0,0.4,0.1,0.6v0H125.2z M124.4,53.7c0.1,0,0.3,0,0.4-0.1
			s0.2-0.2,0.3-0.3v-0.5h-0.4c-0.6,0-0.8,0.2-0.8,0.5c0,0.1,0,0.3,0.1,0.3C124.2,53.7,124.3,53.7,124.4,53.7z"/>
		<path id="XMLID_197_" d="M127,51.4l0,0.3c0.2-0.3,0.5-0.4,0.8-0.4c0.6,0,0.8,0.3,0.8,0.9v1.7h-0.5v-1.7c0-0.2,0-0.3-0.1-0.4
			c-0.1-0.1-0.2-0.1-0.4-0.1c-0.1,0-0.3,0-0.4,0.1c-0.1,0.1-0.2,0.2-0.3,0.3v1.9h-0.5v-2.6H127z"/>
		<path id="XMLID_195_" d="M130.4,52.9l-0.3,0.3v0.9h-0.5v-3.8h0.5v2.3l0.2-0.3l0.8-0.9h0.5l-1,1.1l1.1,1.5h-0.5L130.4,52.9z"/>
		<path id="XMLID_193_" d="M135.1,52.5c-0.4-0.1-0.7-0.3-0.9-0.4c-0.2-0.2-0.3-0.4-0.3-0.6c0-0.3,0.1-0.5,0.3-0.7
			c0.2-0.2,0.5-0.3,0.9-0.3c0.2,0,0.5,0,0.7,0.1c0.2,0.1,0.3,0.2,0.4,0.4c0.1,0.2,0.2,0.3,0.2,0.5H136c0-0.2-0.1-0.4-0.2-0.5
			s-0.3-0.2-0.6-0.2c-0.2,0-0.4,0.1-0.5,0.2c-0.1,0.1-0.2,0.2-0.2,0.4c0,0.1,0.1,0.3,0.2,0.4c0.1,0.1,0.3,0.2,0.6,0.3
			c0.3,0.1,0.5,0.2,0.7,0.3c0.2,0.1,0.3,0.2,0.4,0.4c0.1,0.1,0.1,0.3,0.1,0.5c0,0.3-0.1,0.5-0.3,0.7c-0.2,0.2-0.5,0.3-0.9,0.3
			c-0.2,0-0.5,0-0.7-0.1c-0.2-0.1-0.4-0.2-0.5-0.4c-0.1-0.2-0.2-0.3-0.2-0.6h0.5c0,0.2,0.1,0.4,0.2,0.5c0.2,0.1,0.4,0.2,0.6,0.2
			c0.2,0,0.4-0.1,0.6-0.2c0.1-0.1,0.2-0.2,0.2-0.4c0-0.2-0.1-0.3-0.2-0.4C135.7,52.7,135.4,52.6,135.1,52.5z"/>
		<path id="XMLID_191_" d="M137.9,50.8v0.6h0.5v0.3h-0.5v1.6c0,0.1,0,0.2,0.1,0.2c0,0.1,0.1,0.1,0.2,0.1c0.1,0,0.1,0,0.2,0v0.4
			c-0.1,0-0.2,0-0.3,0c-0.2,0-0.4-0.1-0.5-0.2s-0.2-0.3-0.2-0.5v-1.6H137v-0.3h0.5v-0.6H137.9z"/>
		<path id="XMLID_189_" d="M139.2,53.8c0-0.1,0-0.1,0.1-0.2c0-0.1,0.1-0.1,0.2-0.1s0.2,0,0.2,0.1c0,0.1,0.1,0.1,0.1,0.2
			c0,0.1,0,0.1-0.1,0.2c0,0.1-0.1,0.1-0.2,0.1s-0.2,0-0.2-0.1C139.2,54,139.2,53.9,139.2,53.8z"/>
		<path id="XMLID_186_" d="M145.2,52.4c0,0.3-0.1,0.7-0.2,0.9c-0.1,0.3-0.3,0.5-0.5,0.6s-0.5,0.2-0.8,0.2c-0.3,0-0.5-0.1-0.7-0.2
			c-0.2-0.1-0.4-0.3-0.5-0.6c-0.1-0.3-0.2-0.5-0.2-0.9v-0.3c0-0.3,0.1-0.6,0.2-0.9c0.1-0.3,0.3-0.5,0.5-0.6c0.2-0.1,0.5-0.2,0.7-0.2
			c0.3,0,0.5,0.1,0.8,0.2c0.2,0.1,0.4,0.3,0.5,0.6c0.1,0.3,0.2,0.6,0.2,0.9V52.4z M144.7,52.2c0-0.4-0.1-0.7-0.3-1
			c-0.2-0.2-0.4-0.3-0.7-0.3c-0.3,0-0.5,0.1-0.7,0.3c-0.2,0.2-0.3,0.5-0.3,0.9v0.3c0,0.4,0.1,0.7,0.3,1c0.2,0.2,0.4,0.4,0.7,0.4
			c0.3,0,0.5-0.1,0.7-0.3s0.3-0.5,0.3-0.9V52.2z"/>
		<path id="XMLID_184_" d="M146.7,50.8v0.6h0.5v0.3h-0.5v1.6c0,0.1,0,0.2,0.1,0.2c0,0.1,0.1,0.1,0.2,0.1c0.1,0,0.1,0,0.2,0v0.4
			c-0.1,0-0.2,0-0.3,0c-0.2,0-0.4-0.1-0.5-0.2s-0.2-0.3-0.2-0.5v-1.6h-0.5v-0.3h0.5v-0.6H146.7z"/>
		<path id="XMLID_182_" d="M148.6,50.8v0.6h0.5v0.3h-0.5v1.6c0,0.1,0,0.2,0.1,0.2c0,0.1,0.1,0.1,0.2,0.1c0.1,0,0.1,0,0.2,0v0.4
			c-0.1,0-0.2,0-0.3,0c-0.2,0-0.4-0.1-0.5-0.2s-0.2-0.3-0.2-0.5v-1.6h-0.5v-0.3h0.5v-0.6H148.6z"/>
		<path id="XMLID_179_" d="M151.6,54.1c0-0.1,0-0.1-0.1-0.3c-0.2,0.2-0.5,0.3-0.8,0.3c-0.3,0-0.5-0.1-0.6-0.2
			c-0.2-0.1-0.3-0.3-0.3-0.6c0-0.3,0.1-0.5,0.3-0.6c0.2-0.2,0.5-0.2,0.9-0.2h0.4v-0.2c0-0.2,0-0.3-0.1-0.4c-0.1-0.1-0.2-0.1-0.4-0.1
			c-0.2,0-0.3,0-0.4,0.1c-0.1,0.1-0.2,0.2-0.2,0.3h-0.5c0-0.1,0-0.3,0.1-0.4s0.2-0.2,0.4-0.3c0.2-0.1,0.3-0.1,0.5-0.1
			c0.3,0,0.5,0.1,0.7,0.2c0.2,0.2,0.3,0.4,0.3,0.6v1.2c0,0.2,0,0.4,0.1,0.6v0H151.6z M150.8,53.7c0.1,0,0.3,0,0.4-0.1
			s0.2-0.2,0.3-0.3v-0.5h-0.4c-0.6,0-0.8,0.2-0.8,0.5c0,0.1,0,0.3,0.1,0.3C150.6,53.7,150.7,53.7,150.8,53.7z"/>
		<path id="XMLID_177_" d="M155.3,53.5l0.5-2h0.5l-0.8,2.6h-0.4l-0.6-2l-0.6,2h-0.4l-0.8-2.6h0.4l0.5,2l0.6-2h0.4L155.3,53.5z"/>
		<path id="XMLID_174_" d="M158.7,54.1c0-0.1,0-0.1-0.1-0.3c-0.2,0.2-0.5,0.3-0.8,0.3c-0.3,0-0.5-0.1-0.6-0.2
			c-0.2-0.1-0.3-0.3-0.3-0.6c0-0.3,0.1-0.5,0.3-0.6c0.2-0.2,0.5-0.2,0.9-0.2h0.4v-0.2c0-0.2,0-0.3-0.1-0.4c-0.1-0.1-0.2-0.1-0.4-0.1
			c-0.2,0-0.3,0-0.4,0.1c-0.1,0.1-0.2,0.2-0.2,0.3H157c0-0.1,0-0.3,0.1-0.4s0.2-0.2,0.4-0.3c0.2-0.1,0.3-0.1,0.5-0.1
			c0.3,0,0.5,0.1,0.7,0.2c0.2,0.2,0.3,0.4,0.3,0.6v1.2c0,0.2,0,0.4,0.1,0.6v0H158.7z M157.9,53.7c0.1,0,0.3,0,0.4-0.1
			s0.2-0.2,0.3-0.3v-0.5h-0.4c-0.6,0-0.8,0.2-0.8,0.5c0,0.1,0,0.3,0.1,0.3C157.7,53.7,157.8,53.7,157.9,53.7z"/>
		<path id="XMLID_171_" d="M164.4,52.4c0,0.3-0.1,0.7-0.2,0.9c-0.1,0.3-0.3,0.5-0.5,0.6s-0.5,0.2-0.8,0.2c-0.3,0-0.5-0.1-0.7-0.2
			c-0.2-0.1-0.4-0.3-0.5-0.6c-0.1-0.3-0.2-0.5-0.2-0.9v-0.3c0-0.3,0.1-0.6,0.2-0.9c0.1-0.3,0.3-0.5,0.5-0.6c0.2-0.1,0.5-0.2,0.7-0.2
			c0.3,0,0.5,0.1,0.8,0.2c0.2,0.1,0.4,0.3,0.5,0.6c0.1,0.3,0.2,0.6,0.2,0.9V52.4z M163.9,52.2c0-0.4-0.1-0.7-0.3-1
			c-0.2-0.2-0.4-0.3-0.7-0.3c-0.3,0-0.5,0.1-0.7,0.3c-0.2,0.2-0.3,0.5-0.3,0.9v0.3c0,0.4,0.1,0.7,0.3,1c0.2,0.2,0.4,0.4,0.7,0.4
			c0.3,0,0.5-0.1,0.7-0.3s0.3-0.5,0.3-0.9V52.2z"/>
		<path id="XMLID_169_" d="M168.1,54.1h-0.5l-1.8-2.7v2.7h-0.5v-3.6h0.5l1.8,2.8v-2.8h0.5V54.1z"/>
	</g>
	<g id="XMLID_94_">
		<path id="XMLID_166_" d="M108.5,70.5l0.5-2h0.5l-0.8,2.6h-0.4l-0.6-2l-0.6,2h-0.4l-0.8-2.6h0.4l0.5,2l0.6-2h0.4L108.5,70.5z"/>
		<path id="XMLID_164_" d="M112.6,70.5l0.5-2h0.5l-0.8,2.6h-0.4l-0.6-2l-0.6,2h-0.4l-0.8-2.6h0.4l0.5,2l0.6-2h0.4L112.6,70.5z"/>
		<path id="XMLID_162_" d="M116.6,70.5l0.5-2h0.5l-0.8,2.6h-0.4l-0.6-2l-0.6,2h-0.4l-0.8-2.6h0.4l0.5,2l0.6-2h0.4L116.6,70.5z"/>
		<path id="XMLID_160_" d="M118.1,70.9c0-0.1,0-0.1,0.1-0.2c0-0.1,0.1-0.1,0.2-0.1s0.2,0,0.2,0.1c0,0.1,0.1,0.1,0.1,0.2
			c0,0.1,0,0.1-0.1,0.2c0,0-0.1,0.1-0.2,0.1s-0.2,0-0.2-0.1C118.1,71,118.1,71,118.1,70.9z"/>
		<path id="XMLID_157_" d="M119.5,69.8c0-0.3,0.1-0.5,0.2-0.7c0.1-0.2,0.2-0.4,0.4-0.5c0.2-0.1,0.4-0.2,0.6-0.2
			c0.4,0,0.7,0.1,0.9,0.4c0.2,0.2,0.3,0.6,0.3,1v0c0,0.3,0,0.5-0.1,0.7c-0.1,0.2-0.2,0.4-0.4,0.5c-0.2,0.1-0.4,0.2-0.6,0.2
			c-0.4,0-0.6-0.1-0.9-0.4C119.7,70.5,119.5,70.2,119.5,69.8L119.5,69.8z M120,69.8c0,0.3,0.1,0.5,0.2,0.7c0.1,0.2,0.3,0.3,0.5,0.3
			c0.2,0,0.4-0.1,0.5-0.3c0.1-0.2,0.2-0.4,0.2-0.8c0-0.3-0.1-0.5-0.2-0.7s-0.3-0.3-0.5-0.3c-0.2,0-0.4,0.1-0.5,0.3
			C120.1,69.2,120,69.5,120,69.8z"/>
		<path id="XMLID_155_" d="M123.4,67.8v0.6h0.5v0.3h-0.5v1.6c0,0.1,0,0.2,0.1,0.2s0.1,0.1,0.2,0.1c0.1,0,0.1,0,0.2,0v0.4
			c-0.1,0-0.2,0-0.3,0c-0.2,0-0.4-0.1-0.5-0.2s-0.2-0.3-0.2-0.5v-1.6h-0.5v-0.3h0.5v-0.6H123.4z"/>
		<path id="XMLID_153_" d="M125.4,67.8v0.6h0.5v0.3h-0.5v1.6c0,0.1,0,0.2,0.1,0.2s0.1,0.1,0.2,0.1c0.1,0,0.1,0,0.2,0v0.4
			c-0.1,0-0.2,0-0.3,0c-0.2,0-0.4-0.1-0.5-0.2s-0.2-0.3-0.2-0.5v-1.6h-0.5v-0.3h0.5v-0.6H125.4z"/>
		<path id="XMLID_150_" d="M128.3,71.1c0-0.1,0-0.1-0.1-0.3c-0.2,0.2-0.5,0.3-0.8,0.3c-0.3,0-0.5-0.1-0.6-0.2
			c-0.2-0.1-0.2-0.3-0.2-0.6c0-0.3,0.1-0.5,0.3-0.6c0.2-0.2,0.5-0.2,0.9-0.2h0.4v-0.2c0-0.2,0-0.3-0.1-0.4c-0.1-0.1-0.2-0.1-0.4-0.1
			c-0.2,0-0.3,0-0.4,0.1c-0.1,0.1-0.2,0.2-0.2,0.3h-0.5c0-0.1,0-0.3,0.1-0.4c0.1-0.1,0.2-0.2,0.4-0.3c0.2-0.1,0.3-0.1,0.5-0.1
			c0.3,0,0.5,0.1,0.7,0.2c0.2,0.2,0.3,0.4,0.3,0.6v1.2c0,0.2,0,0.4,0.1,0.6v0H128.3z M127.6,70.8c0.1,0,0.3,0,0.4-0.1
			c0.1-0.1,0.2-0.2,0.3-0.3v-0.5h-0.4c-0.6,0-0.8,0.2-0.8,0.5c0,0.1,0,0.3,0.1,0.3C127.3,70.7,127.4,70.8,127.6,70.8z"/>
		<path id="XMLID_148_" d="M132,70.5l0.5-2h0.5l-0.8,2.6h-0.4l-0.6-2l-0.6,2h-0.4l-0.8-2.6h0.4l0.5,2l0.6-2h0.4L132,70.5z"/>
		<path id="XMLID_145_" d="M135.4,71.1c0-0.1,0-0.1-0.1-0.3c-0.2,0.2-0.5,0.3-0.8,0.3c-0.3,0-0.5-0.1-0.6-0.2
			c-0.2-0.1-0.2-0.3-0.2-0.6c0-0.3,0.1-0.5,0.3-0.6c0.2-0.2,0.5-0.2,0.9-0.2h0.4v-0.2c0-0.2,0-0.3-0.1-0.4c-0.1-0.1-0.2-0.1-0.4-0.1
			c-0.2,0-0.3,0-0.4,0.1c-0.1,0.1-0.2,0.2-0.2,0.3h-0.5c0-0.1,0-0.3,0.1-0.4c0.1-0.1,0.2-0.2,0.4-0.3c0.2-0.1,0.3-0.1,0.5-0.1
			c0.3,0,0.5,0.1,0.7,0.2c0.2,0.2,0.3,0.4,0.3,0.6v1.2c0,0.2,0,0.4,0.1,0.6v0H135.4z M134.6,70.8c0.1,0,0.3,0,0.4-0.1
			s0.2-0.2,0.3-0.3v-0.5H135c-0.6,0-0.8,0.2-0.8,0.5c0,0.1,0,0.3,0.1,0.3C134.4,70.7,134.5,70.8,134.6,70.8z"/>
		<path id="XMLID_143_" d="M137.8,70.8c0.2,0,0.3,0,0.4-0.1c0.1-0.1,0.2-0.2,0.2-0.4h0.4c0,0.2-0.1,0.3-0.2,0.4
			c-0.1,0.1-0.2,0.2-0.4,0.3c-0.2,0.1-0.3,0.1-0.5,0.1c-0.4,0-0.6-0.1-0.9-0.4c-0.2-0.2-0.3-0.6-0.3-1v-0.1c0-0.3,0-0.5,0.1-0.7
			c0.1-0.2,0.2-0.4,0.4-0.5c0.2-0.1,0.4-0.2,0.6-0.2c0.3,0,0.5,0.1,0.7,0.3c0.2,0.2,0.3,0.4,0.3,0.7h-0.4c0-0.2-0.1-0.3-0.2-0.4
			c-0.1-0.1-0.3-0.2-0.4-0.2c-0.2,0-0.4,0.1-0.5,0.2c-0.1,0.2-0.2,0.4-0.2,0.7v0.1c0,0.3,0.1,0.5,0.2,0.7
			C137.4,70.7,137.6,70.8,137.8,70.8z"/>
		<path id="XMLID_141_" d="M140.1,68.8c0.2-0.2,0.5-0.4,0.8-0.4c0.6,0,0.8,0.3,0.8,0.9v1.7h-0.5v-1.7c0-0.2,0-0.3-0.1-0.4
			c-0.1-0.1-0.2-0.1-0.4-0.1c-0.1,0-0.3,0-0.4,0.1c-0.1,0.1-0.2,0.2-0.3,0.3v1.9h-0.5v-3.8h0.5V68.8z"/>
		<path id="XMLID_138_" d="M142.7,67.8c0-0.1,0-0.1,0.1-0.2c0,0,0.1-0.1,0.2-0.1s0.2,0,0.2,0.1c0,0.1,0.1,0.1,0.1,0.2s0,0.1-0.1,0.2
			c0,0-0.1,0.1-0.2,0.1s-0.2,0-0.2-0.1S142.7,67.9,142.7,67.8z M143.2,71.1h-0.5v-2.6h0.5V71.1z"/>
		<path id="XMLID_135_" d="M146.5,69.8c0,0.4-0.1,0.7-0.3,1c-0.2,0.2-0.4,0.4-0.7,0.4c-0.3,0-0.6-0.1-0.8-0.3v1.3h-0.5v-3.7h0.4
			l0,0.3c0.2-0.2,0.4-0.3,0.8-0.3c0.3,0,0.6,0.1,0.8,0.4C146.4,69,146.5,69.4,146.5,69.8L146.5,69.8z M146,69.8
			c0-0.3-0.1-0.5-0.2-0.7c-0.1-0.2-0.3-0.3-0.5-0.3c-0.3,0-0.5,0.1-0.6,0.4v1.3c0.1,0.2,0.3,0.4,0.6,0.4c0.2,0,0.4-0.1,0.5-0.3
			C146,70.4,146,70.1,146,69.8z"/>
		<path id="XMLID_133_" d="M148.9,70.4c0-0.1,0-0.2-0.1-0.3s-0.3-0.1-0.5-0.2c-0.2,0-0.4-0.1-0.5-0.2c-0.1-0.1-0.2-0.1-0.3-0.2
			c-0.1-0.1-0.1-0.2-0.1-0.3c0-0.2,0.1-0.4,0.3-0.5c0.2-0.2,0.4-0.2,0.7-0.2c0.3,0,0.5,0.1,0.7,0.2c0.2,0.2,0.3,0.4,0.3,0.6h-0.5
			c0-0.1-0.1-0.2-0.2-0.3c-0.1-0.1-0.2-0.1-0.4-0.1c-0.2,0-0.3,0-0.4,0.1c-0.1,0.1-0.1,0.2-0.1,0.3c0,0.1,0,0.2,0.1,0.2
			c0.1,0.1,0.2,0.1,0.5,0.2c0.2,0.1,0.4,0.1,0.5,0.2c0.1,0.1,0.2,0.2,0.3,0.3s0.1,0.2,0.1,0.4c0,0.2-0.1,0.4-0.3,0.6
			c-0.2,0.1-0.4,0.2-0.7,0.2c-0.2,0-0.4,0-0.6-0.1c-0.2-0.1-0.3-0.2-0.4-0.3c-0.1-0.1-0.1-0.3-0.1-0.4h0.5c0,0.2,0.1,0.3,0.2,0.4
			c0.1,0.1,0.3,0.1,0.4,0.1c0.2,0,0.3,0,0.4-0.1C148.9,70.6,148.9,70.5,148.9,70.4z"/>
		<path id="XMLID_130_" d="M151.9,71.1c0-0.1,0-0.1-0.1-0.3c-0.2,0.2-0.5,0.3-0.8,0.3c-0.3,0-0.5-0.1-0.6-0.2
			c-0.2-0.1-0.2-0.3-0.2-0.6c0-0.3,0.1-0.5,0.3-0.6c0.2-0.2,0.5-0.2,0.9-0.2h0.4v-0.2c0-0.2,0-0.3-0.1-0.4c-0.1-0.1-0.2-0.1-0.4-0.1
			c-0.2,0-0.3,0-0.4,0.1c-0.1,0.1-0.2,0.2-0.2,0.3h-0.5c0-0.1,0-0.3,0.1-0.4c0.1-0.1,0.2-0.2,0.4-0.3c0.2-0.1,0.3-0.1,0.5-0.1
			c0.3,0,0.5,0.1,0.7,0.2c0.2,0.2,0.3,0.4,0.3,0.6v1.2c0,0.2,0,0.4,0.1,0.6v0H151.9z M151.1,70.8c0.1,0,0.3,0,0.4-0.1
			s0.2-0.2,0.3-0.3v-0.5h-0.4c-0.6,0-0.8,0.2-0.8,0.5c0,0.1,0,0.3,0.1,0.3C150.9,70.7,151,70.8,151.1,70.8z"/>
		<path id="XMLID_128_" d="M153.7,68.5l0,0.3c0.2-0.3,0.5-0.4,0.8-0.4c0.6,0,0.8,0.3,0.8,0.9v1.7h-0.5v-1.7c0-0.2,0-0.3-0.1-0.4
			c-0.1-0.1-0.2-0.1-0.4-0.1c-0.1,0-0.3,0-0.4,0.1c-0.1,0.1-0.2,0.2-0.3,0.3v1.9h-0.5v-2.6H153.7z"/>
		<path id="XMLID_121_" d="M156.2,69.8c0-0.4,0.1-0.7,0.3-1c0.2-0.2,0.4-0.4,0.8-0.4c0.3,0,0.6,0.1,0.7,0.3v-1.4h0.5v3.8H158l0-0.3
			c-0.2,0.2-0.4,0.3-0.8,0.3c-0.3,0-0.6-0.1-0.7-0.4C156.3,70.5,156.2,70.2,156.2,69.8L156.2,69.8z M156.7,69.8
			c0,0.3,0.1,0.5,0.2,0.7c0.1,0.2,0.3,0.3,0.5,0.3c0.3,0,0.5-0.1,0.6-0.4v-1.2c-0.1-0.2-0.3-0.4-0.6-0.4c-0.2,0-0.4,0.1-0.5,0.3
			C156.7,69.2,156.7,69.5,156.7,69.8z"/>
		<path id="XMLID_118_" d="M159.3,69.8c0-0.4,0.1-0.7,0.3-1c0.2-0.2,0.4-0.4,0.8-0.4c0.3,0,0.6,0.1,0.7,0.3v-1.4h0.5v3.8h-0.4l0-0.3
			c-0.2,0.2-0.4,0.3-0.8,0.3c-0.3,0-0.6-0.1-0.7-0.4C159.4,70.5,159.3,70.2,159.3,69.8L159.3,69.8z M159.8,69.8
			c0,0.3,0.1,0.5,0.2,0.7c0.1,0.2,0.3,0.3,0.5,0.3c0.3,0,0.5-0.1,0.6-0.4v-1.2c-0.1-0.2-0.3-0.4-0.6-0.4c-0.2,0-0.4,0.1-0.5,0.3
			C159.8,69.2,159.8,69.5,159.8,69.8z"/>
		<path id="XMLID_114_" d="M164.2,71.1c0-0.1,0-0.1-0.1-0.3c-0.2,0.2-0.5,0.3-0.8,0.3c-0.3,0-0.5-0.1-0.6-0.2
			c-0.2-0.1-0.2-0.3-0.2-0.6c0-0.3,0.1-0.5,0.3-0.6c0.2-0.2,0.5-0.2,0.9-0.2h0.4v-0.2c0-0.2,0-0.3-0.1-0.4c-0.1-0.1-0.2-0.1-0.4-0.1
			c-0.2,0-0.3,0-0.4,0.1c-0.1,0.1-0.2,0.2-0.2,0.3h-0.5c0-0.1,0-0.3,0.1-0.4c0.1-0.1,0.2-0.2,0.4-0.3c0.2-0.1,0.3-0.1,0.5-0.1
			c0.3,0,0.5,0.1,0.7,0.2c0.2,0.2,0.3,0.4,0.3,0.6v1.2c0,0.2,0,0.4,0.1,0.6v0H164.2z M163.4,70.8c0.1,0,0.3,0,0.4-0.1
			s0.2-0.2,0.3-0.3v-0.5h-0.4c-0.6,0-0.8,0.2-0.8,0.5c0,0.1,0,0.3,0.1,0.3C163.2,70.7,163.3,70.8,163.4,70.8z"/>
		<path id="XMLID_111_" d="M165.6,67.8c0-0.1,0-0.1,0.1-0.2c0,0,0.1-0.1,0.2-0.1s0.2,0,0.2,0.1c0,0.1,0.1,0.1,0.1,0.2s0,0.1-0.1,0.2
			c0,0-0.1,0.1-0.2,0.1s-0.2,0-0.2-0.1C165.6,67.9,165.6,67.9,165.6,67.8z M166.1,71.1h-0.5v-2.6h0.5V71.1z"/>
		<path id="XMLID_107_" d="M168.4,68.9c-0.1,0-0.1,0-0.2,0c-0.3,0-0.5,0.1-0.6,0.4v1.9h-0.5v-2.6h0.4l0,0.3c0.1-0.2,0.4-0.4,0.6-0.4
			c0.1,0,0.2,0,0.2,0V68.9z"/>
		<path id="XMLID_104_" d="M170,70.5l0.6-2h0.5l-1.1,3c-0.2,0.4-0.4,0.7-0.8,0.7l-0.1,0l-0.2,0v-0.4l0.1,0c0.2,0,0.3,0,0.4-0.1
			c0.1-0.1,0.2-0.2,0.2-0.3l0.1-0.3l-0.9-2.6h0.5L170,70.5z"/>
		<path id="XMLID_102_" d="M171.5,70.9c0-0.1,0-0.1,0.1-0.2c0-0.1,0.1-0.1,0.2-0.1s0.2,0,0.2,0.1c0,0.1,0.1,0.1,0.1,0.2
			c0,0.1,0,0.1-0.1,0.2c0,0-0.1,0.1-0.2,0.1s-0.2,0-0.2-0.1C171.6,71,171.5,71,171.5,70.9z"/>
		<path id="XMLID_100_" d="M174.2,70.8c0.2,0,0.3,0,0.4-0.1c0.1-0.1,0.2-0.2,0.2-0.4h0.4c0,0.2-0.1,0.3-0.2,0.4
			c-0.1,0.1-0.2,0.2-0.4,0.3c-0.2,0.1-0.3,0.1-0.5,0.1c-0.4,0-0.6-0.1-0.9-0.4c-0.2-0.2-0.3-0.6-0.3-1v-0.1c0-0.3,0-0.5,0.1-0.7
			c0.1-0.2,0.2-0.4,0.4-0.5c0.2-0.1,0.4-0.2,0.6-0.2c0.3,0,0.5,0.1,0.7,0.3c0.2,0.2,0.3,0.4,0.3,0.7h-0.4c0-0.2-0.1-0.3-0.2-0.4
			c-0.1-0.1-0.3-0.2-0.4-0.2c-0.2,0-0.4,0.1-0.5,0.2c-0.1,0.2-0.2,0.4-0.2,0.7v0.1c0,0.3,0.1,0.5,0.2,0.7
			C173.8,70.7,174,70.8,174.2,70.8z"/>
		<path id="XMLID_97_" d="M175.9,69.8c0-0.3,0.1-0.5,0.2-0.7c0.1-0.2,0.2-0.4,0.4-0.5c0.2-0.1,0.4-0.2,0.6-0.2
			c0.4,0,0.6,0.1,0.9,0.4s0.3,0.6,0.3,1v0c0,0.3,0,0.5-0.1,0.7c-0.1,0.2-0.2,0.4-0.4,0.5c-0.2,0.1-0.4,0.2-0.6,0.2
			c-0.4,0-0.6-0.1-0.9-0.4C176.1,70.5,175.9,70.2,175.9,69.8L175.9,69.8z M176.4,69.8c0,0.3,0.1,0.5,0.2,0.7
			c0.1,0.2,0.3,0.3,0.5,0.3s0.4-0.1,0.5-0.3c0.1-0.2,0.2-0.4,0.2-0.8c0-0.3-0.1-0.5-0.2-0.7c-0.1-0.2-0.3-0.3-0.5-0.3
			c-0.2,0-0.4,0.1-0.5,0.3C176.5,69.2,176.4,69.5,176.4,69.8z"/>
		<path id="XMLID_95_" d="M179.6,68.5l0,0.3c0.2-0.2,0.5-0.3,0.8-0.3c0.4,0,0.6,0.1,0.8,0.4c0.1-0.1,0.2-0.2,0.3-0.3
			s0.3-0.1,0.5-0.1c0.6,0,0.9,0.3,0.9,0.9v1.8h-0.5v-1.7c0-0.2,0-0.3-0.1-0.4s-0.2-0.1-0.4-0.1c-0.2,0-0.3,0.1-0.4,0.2
			c-0.1,0.1-0.2,0.2-0.2,0.4v1.8h-0.5v-1.7c0-0.4-0.2-0.6-0.6-0.6c-0.3,0-0.5,0.1-0.6,0.4v1.9h-0.5v-2.6H179.6z"/>
	</g>
</g>
</svg>
