<?xml version="1.0" encoding="utf-8"?>
<!-- Generator: Adobe Illustrator 19.0.0, SVG Export Plug-In . SVG Version: 6.00 Build 0)  -->
<svg version="1.1" id="Layer_1" xmlns="http://www.w3.org/2000/svg" xmlns:xlink="http://www.w3.org/1999/xlink" x="0px" y="0px"
	 viewBox="0 0 187.2 106.7" style="enable-background:new 0 0 187.2 106.7;" xml:space="preserve">
<style type="text/css">
	.st0{fill:#FFFFFF;}
	.st1{fill:#A0A2A4;}
	.st2{fill:#000100;}
	.st3{fill:#090505;}
	.st4{fill:#D02942;}
</style>
<g>
	<rect class="st0" width="187.2" height="106.7"/>
	<g>
		<defs>
			<rect id="SVGID_1_" width="187.2" height="106.7"/>
		</defs>
		<clipPath id="SVGID_2_">
			<use xlink:href="#SVGID_1_"  style="overflow:visible;"/>
		</clipPath>
	</g>
	<rect x="133.4" y="99.7" class="st1" width="53.8" height="0.2"/>
	<rect x="-0.4" y="99.7" class="st1" width="53.8" height="0.2"/>
	<g>
		<path class="st2" d="M111.7,71v-2.4h1.6V69h-1.2v0.7h1V70h-1v1H111.7z"/>
		<path class="st2" d="M113.6,71v-2.4h0.4V71H113.6z"/>
		<path class="st2" d="M114.9,69.4V71h-0.4v-2.4h0.3l1.4,1.7v-1.7h0.4V71h-0.3L114.9,69.4z"/>
		<path class="st2" d="M118.7,70.7V71h-1.6v-2.4h1.6V69h-1.2v0.7h1.1V70h-1.1v0.7H118.7z"/>
		<path class="st2" d="M119.9,71v-2.4h1.6V69h-1.2v0.7h1V70h-1v1H119.9z"/>
		<path class="st2" d="M122.8,71.1c-0.2,0-0.3,0-0.5-0.1s-0.3-0.2-0.4-0.3c-0.1-0.1-0.2-0.2-0.2-0.4c-0.1-0.1-0.1-0.3-0.1-0.4
			c0-0.2,0-0.3,0.1-0.5c0.1-0.1,0.1-0.3,0.2-0.4c0.1-0.1,0.2-0.2,0.4-0.3s0.3-0.1,0.5-0.1c0.2,0,0.3,0,0.5,0.1
			c0.1,0.1,0.3,0.2,0.4,0.3c0.1,0.1,0.2,0.2,0.2,0.4c0.1,0.1,0.1,0.3,0.1,0.4c0,0.2,0,0.3-0.1,0.5s-0.1,0.3-0.2,0.4
			c-0.1,0.1-0.2,0.2-0.4,0.3C123.1,71,122.9,71.1,122.8,71.1z M122,69.9c0,0.1,0,0.2,0.1,0.3s0.1,0.2,0.1,0.3s0.1,0.1,0.2,0.2
			c0.1,0,0.2,0.1,0.3,0.1c0.1,0,0.2,0,0.3-0.1c0.1,0,0.2-0.1,0.2-0.2c0.1-0.1,0.1-0.2,0.1-0.3c0-0.1,0-0.2,0-0.3
			c0-0.1,0-0.2-0.1-0.3c0-0.1-0.1-0.2-0.2-0.3s-0.1-0.1-0.2-0.2c-0.1,0-0.2-0.1-0.3-0.1c-0.1,0-0.2,0-0.3,0.1
			c-0.1,0.1-0.2,0.1-0.2,0.2s-0.1,0.2-0.1,0.3S122,69.8,122,69.9z"/>
		<path class="st2" d="M125.3,71.1c-0.2,0-0.3,0-0.5-0.1s-0.3-0.2-0.4-0.3c-0.1-0.1-0.2-0.2-0.2-0.4c-0.1-0.1-0.1-0.3-0.1-0.4
			c0-0.2,0-0.3,0.1-0.5c0.1-0.1,0.1-0.3,0.2-0.4c0.1-0.1,0.2-0.2,0.4-0.3s0.3-0.1,0.5-0.1c0.2,0,0.3,0,0.5,0.1
			c0.1,0.1,0.3,0.2,0.4,0.3c0.1,0.1,0.2,0.2,0.2,0.4c0.1,0.1,0.1,0.3,0.1,0.4c0,0.2,0,0.3-0.1,0.5s-0.1,0.3-0.2,0.4
			c-0.1,0.1-0.2,0.2-0.4,0.3C125.6,71,125.4,71.1,125.3,71.1z M124.5,69.9c0,0.1,0,0.2,0.1,0.3s0.1,0.2,0.1,0.3s0.1,0.1,0.2,0.2
			c0.1,0,0.2,0.1,0.3,0.1c0.1,0,0.2,0,0.3-0.1c0.1,0,0.2-0.1,0.2-0.2c0.1-0.1,0.1-0.2,0.1-0.3c0-0.1,0-0.2,0-0.3
			c0-0.1,0-0.2-0.1-0.3c0-0.1-0.1-0.2-0.2-0.3s-0.1-0.1-0.2-0.2c-0.1,0-0.2-0.1-0.3-0.1c-0.1,0-0.2,0-0.3,0.1
			c-0.1,0.1-0.2,0.1-0.2,0.2s-0.1,0.2-0.1,0.3S124.5,69.8,124.5,69.9z"/>
		<path class="st2" d="M126.8,71v-2.4h0.8c0.2,0,0.4,0,0.5,0.1c0.1,0.1,0.3,0.1,0.4,0.3c0.1,0.1,0.2,0.2,0.2,0.4s0.1,0.3,0.1,0.5
			c0,0.2,0,0.3-0.1,0.5c-0.1,0.1-0.1,0.3-0.2,0.4c-0.1,0.1-0.2,0.2-0.4,0.2c-0.1,0.1-0.3,0.1-0.5,0.1H126.8z M128.4,69.9
			c0-0.1,0-0.2-0.1-0.3c0-0.1-0.1-0.2-0.2-0.3s-0.1-0.1-0.2-0.2c-0.1,0-0.2-0.1-0.3-0.1h-0.5v1.7h0.5c0.1,0,0.2,0,0.3-0.1
			c0.1,0,0.2-0.1,0.2-0.2s0.1-0.2,0.1-0.3S128.4,70,128.4,69.9z"/>
		<path class="st2" d="M129,69.8c0-0.1,0-0.3,0.1-0.4c0.1-0.1,0.1-0.3,0.2-0.4s0.2-0.2,0.4-0.3c0.1-0.1,0.3-0.1,0.5-0.1
			c0.2,0,0.4,0,0.5,0.1s0.3,0.2,0.3,0.4l-0.3,0.2c0-0.1-0.1-0.1-0.1-0.2s-0.1-0.1-0.2-0.1c-0.1,0-0.1,0-0.2-0.1s-0.1,0-0.2,0
			c-0.1,0-0.2,0-0.3,0.1c-0.1,0.1-0.2,0.1-0.2,0.2s-0.1,0.2-0.1,0.3c0,0.1,0,0.2,0,0.3c0,0.1,0,0.2,0.1,0.3c0,0.1,0.1,0.2,0.2,0.3
			s0.1,0.1,0.2,0.2c0.1,0,0.2,0.1,0.3,0.1c0.1,0,0.1,0,0.2,0c0.1,0,0.1,0,0.2-0.1s0.1-0.1,0.2-0.1c0,0,0.1-0.1,0.1-0.2l0.3,0.2
			c0,0.1-0.1,0.2-0.2,0.2c-0.1,0.1-0.1,0.1-0.2,0.2c-0.1,0-0.2,0.1-0.3,0.1s-0.2,0-0.3,0c-0.2,0-0.3,0-0.5-0.1
			c-0.1-0.1-0.3-0.2-0.4-0.3c-0.1-0.1-0.2-0.2-0.2-0.4S129,70,129,69.8z"/>
		<path class="st2" d="M132.4,71.1c-0.2,0-0.3,0-0.5-0.1s-0.3-0.2-0.4-0.3c-0.1-0.1-0.2-0.2-0.2-0.4c-0.1-0.1-0.1-0.3-0.1-0.4
			c0-0.2,0-0.3,0.1-0.5c0.1-0.1,0.1-0.3,0.2-0.4c0.1-0.1,0.2-0.2,0.4-0.3s0.3-0.1,0.5-0.1c0.2,0,0.3,0,0.5,0.1
			c0.1,0.1,0.3,0.2,0.4,0.3c0.1,0.1,0.2,0.2,0.2,0.4c0.1,0.1,0.1,0.3,0.1,0.4c0,0.2,0,0.3-0.1,0.5s-0.1,0.3-0.2,0.4
			c-0.1,0.1-0.2,0.2-0.4,0.3C132.7,71,132.5,71.1,132.4,71.1z M131.6,69.9c0,0.1,0,0.2,0.1,0.3s0.1,0.2,0.1,0.3s0.1,0.1,0.2,0.2
			c0.1,0,0.2,0.1,0.3,0.1c0.1,0,0.2,0,0.3-0.1c0.1,0,0.2-0.1,0.2-0.2c0.1-0.1,0.1-0.2,0.1-0.3c0-0.1,0-0.2,0-0.3
			c0-0.1,0-0.2-0.1-0.3c0-0.1-0.1-0.2-0.2-0.3s-0.1-0.1-0.2-0.2c-0.1,0-0.2-0.1-0.3-0.1c-0.1,0-0.2,0-0.3,0.1
			c-0.1,0.1-0.2,0.1-0.2,0.2s-0.1,0.2-0.1,0.3S131.6,69.8,131.6,69.9z"/>
		<path class="st2" d="M134.9,70.7c0.1,0,0.2,0,0.3-0.1c0.1,0,0.1-0.1,0.2-0.2c0-0.1,0.1-0.2,0.1-0.3s0-0.2,0-0.3v-1.2h0.4v1.2
			c0,0.2,0,0.3-0.1,0.5c0,0.1-0.1,0.3-0.2,0.4s-0.2,0.2-0.3,0.3c-0.1,0.1-0.3,0.1-0.5,0.1c-0.2,0-0.3,0-0.5-0.1
			c-0.1-0.1-0.2-0.2-0.3-0.3c-0.1-0.1-0.1-0.2-0.2-0.4c0-0.1-0.1-0.3-0.1-0.4v-1.2h0.4v1.2c0,0.1,0,0.2,0,0.3s0.1,0.2,0.1,0.3
			c0.1,0.1,0.1,0.1,0.2,0.2C134.7,70.7,134.8,70.7,134.9,70.7z"/>
		<path class="st2" d="M136.4,71v-2.4h1c0.1,0,0.2,0,0.3,0.1c0.1,0,0.2,0.1,0.2,0.2s0.1,0.2,0.2,0.2c0,0.1,0.1,0.2,0.1,0.3
			c0,0.1,0,0.2,0,0.2s-0.1,0.1-0.1,0.2c0,0.1-0.1,0.1-0.1,0.2c-0.1,0-0.1,0.1-0.2,0.1l0.6,0.9h-0.4l-0.5-0.8h-0.5V71H136.4z
			 M136.8,69.9h0.7c0.1,0,0.1,0,0.1,0c0,0,0.1-0.1,0.1-0.1c0,0,0.1-0.1,0.1-0.1s0-0.1,0-0.2s0-0.1,0-0.2c0-0.1,0-0.1-0.1-0.1
			c0,0-0.1-0.1-0.1-0.1c0,0-0.1,0-0.1,0h-0.6V69.9z"/>
		<path class="st2" d="M140.3,69h-0.8v2h-0.4v-2h-0.8v-0.3h2V69z"/>
		<path class="st2" d="M141.4,71v-2.4h1.6V69h-1.2v0.7h1V70h-1v1H141.4z"/>
		<path class="st2" d="M143.3,71v-2.4h0.4v2h1.3V71H143.3z"/>
		<path class="st2" d="M145,71l1-2.4h0.3l1,2.4h-0.4l-0.3-0.6h-0.9l-0.2,0.6H145z M146.1,69.1l-0.4,1h0.8L146.1,69.1z"/>
		<path class="st2" d="M147.5,68.7l0.7,1.9l0.7-1.9h0.4l-0.9,2.4H148l-1-2.4H147.5z"/>
		<path class="st2" d="M150.5,71.1c-0.2,0-0.3,0-0.5-0.1s-0.3-0.2-0.4-0.3c-0.1-0.1-0.2-0.2-0.2-0.4c-0.1-0.1-0.1-0.3-0.1-0.4
			c0-0.2,0-0.3,0.1-0.5c0.1-0.1,0.1-0.3,0.2-0.4c0.1-0.1,0.2-0.2,0.4-0.3s0.3-0.1,0.5-0.1c0.2,0,0.3,0,0.5,0.1
			c0.1,0.1,0.3,0.2,0.4,0.3c0.1,0.1,0.2,0.2,0.2,0.4c0.1,0.1,0.1,0.3,0.1,0.4c0,0.2,0,0.3-0.1,0.5s-0.1,0.3-0.2,0.4
			c-0.1,0.1-0.2,0.2-0.4,0.3C150.8,71,150.6,71.1,150.5,71.1z M149.7,69.9c0,0.1,0,0.2,0.1,0.3s0.1,0.2,0.1,0.3s0.1,0.1,0.2,0.2
			c0.1,0,0.2,0.1,0.3,0.1c0.1,0,0.2,0,0.3-0.1c0.1,0,0.2-0.1,0.2-0.2c0.1-0.1,0.1-0.2,0.1-0.3c0-0.1,0-0.2,0-0.3
			c0-0.1,0-0.2-0.1-0.3c0-0.1-0.1-0.2-0.2-0.3s-0.1-0.1-0.2-0.2c-0.1,0-0.2-0.1-0.3-0.1c-0.1,0-0.2,0-0.3,0.1
			c-0.1,0.1-0.2,0.1-0.2,0.2s-0.1,0.2-0.1,0.3S149.7,69.8,149.7,69.9z"/>
		<path class="st2" d="M152,71v-2.4h1c0.1,0,0.2,0,0.3,0.1c0.1,0,0.2,0.1,0.2,0.2s0.1,0.2,0.2,0.2c0,0.1,0.1,0.2,0.1,0.3
			c0,0.1,0,0.2,0,0.2s-0.1,0.1-0.1,0.2c0,0.1-0.1,0.1-0.1,0.2c-0.1,0-0.1,0.1-0.2,0.1l0.6,0.9h-0.4l-0.5-0.8h-0.5V71H152z
			 M152.4,69.9h0.7c0.1,0,0.1,0,0.1,0c0,0,0.1-0.1,0.1-0.1c0,0,0.1-0.1,0.1-0.1s0-0.1,0-0.2s0-0.1,0-0.2c0-0.1,0-0.1-0.1-0.1
			c0,0-0.1-0.1-0.1-0.1c0,0-0.1,0-0.1,0h-0.6V69.9z"/>
		<path class="st2" d="M155.6,69.2C155.6,69.2,155.6,69.2,155.6,69.2c-0.1-0.1-0.2-0.1-0.2-0.2s-0.1,0-0.2-0.1c-0.1,0-0.1,0-0.2,0
			c-0.1,0-0.3,0-0.3,0.1c-0.1,0.1-0.1,0.1-0.1,0.2c0,0.1,0,0.1,0,0.1s0.1,0.1,0.1,0.1c0,0,0.1,0.1,0.2,0.1c0.1,0,0.2,0,0.3,0.1
			c0.1,0,0.2,0.1,0.3,0.1s0.2,0.1,0.2,0.1c0.1,0.1,0.1,0.1,0.2,0.2c0,0.1,0.1,0.2,0.1,0.3c0,0.1,0,0.2-0.1,0.3
			c0,0.1-0.1,0.2-0.2,0.2c-0.1,0.1-0.2,0.1-0.3,0.1c-0.1,0-0.2,0-0.3,0c-0.2,0-0.4,0-0.5-0.1c-0.2-0.1-0.3-0.1-0.5-0.2l0.2-0.3
			c0,0,0.1,0.1,0.1,0.1c0.1,0,0.1,0.1,0.2,0.1c0.1,0,0.2,0.1,0.2,0.1c0.1,0,0.2,0,0.3,0c0.1,0,0.3,0,0.3-0.1
			c0.1-0.1,0.1-0.1,0.1-0.2c0-0.1,0-0.1,0-0.2c0,0-0.1-0.1-0.1-0.1c-0.1,0-0.1-0.1-0.2-0.1s-0.2,0-0.3-0.1c-0.1,0-0.2-0.1-0.3-0.1
			c-0.1,0-0.2-0.1-0.2-0.1c-0.1,0-0.1-0.1-0.1-0.2c0-0.1,0-0.1,0-0.2c0-0.1,0-0.2,0.1-0.3c0-0.1,0.1-0.2,0.2-0.2
			c0.1-0.1,0.2-0.1,0.3-0.1s0.2,0,0.3,0c0.2,0,0.3,0,0.4,0.1c0.1,0.1,0.3,0.1,0.4,0.2L155.6,69.2z"/>
	</g>
	<g>
		<path class="st3" d="M14.2,37.3c0-4.7,1.6-8.9,7.9-8.9c4.7,0,6.8,2.3,6.8,6.2v3.4h-4.4v-2.4c0-2.2-0.8-3.5-2.7-3.5
			c-2.4,0-2.9,1.7-2.9,5.8v16.6c0,4,1.3,4.7,2.8,4.7c1.7,0,2.9-1.2,2.9-4v-2.3H29v3.8c0,3.6-1.5,6.3-6.9,6.3c-5.9,0-7.8-3.1-7.8-8.4
			V37.3z"/>
		<path class="st3" d="M30.4,28.7h4.4V41h0.1c0.3-0.8,0.9-1.3,1.6-1.7c0.7-0.4,1.5-0.6,2.3-0.6c2.2,0,4.1,1.2,4.1,4.7v19.2h-4.4
			V44.2c0-1.2-0.3-2.1-1.7-2.1c-1.1,0-1.9,0.7-1.9,2.5v18h-4.4V28.7z"/>
		<path class="st3" d="M44.8,28.7h4.4v4.7h-4.4V28.7z M44.8,39h4.4v23.6h-4.4V39z"/>
		<path class="st3" d="M50.9,39H55v2.6h0.1c0.6-1.6,1.9-2.9,4.2-2.9c2.6,0,4.1,2,4.1,5.5v13.3c0,3.5-1.6,5.5-4.1,5.5
			c-1.6,0-3.2-0.7-4-1.6v9.9h-4.4V39z M55.3,57.3c0,1.7,0.9,2.5,1.8,2.5c1.2,0,1.9-0.7,1.9-3.4V45.3c0-2.5-0.7-3.2-1.7-3.2
			c-1.2,0-2,0.9-2,3.9V57.3z"/>
		<path class="st3" d="M71.6,46.6v-2.3c0-1.8-0.4-2.5-1.6-2.5s-1.5,0.5-1.5,2.2c0,2.4,0.2,2.5,3.1,5.1c3.4,3,4.1,4,4.1,7.4
			c0,4.6-1.6,6.3-6.3,6.3c-3.4,0-5.3-1.4-5.3-4.8v-3.3h4.1v3.2c0,1.5,0.6,1.8,1.6,1.8c1.5,0,1.6-0.8,1.6-2.6c0-2.5-0.1-2.9-2.7-5.1
			l-1-0.8c-3.5-3-3.6-3.4-3.6-6.6c0-4.5,2.2-5.9,6.1-5.9c3.3,0,5,1.5,5,4.3v3.6H71.6z"/>
		<path class="st3" d="M110,44.2c0-3.5,1.6-5.5,4.1-5.5c0.7,0,1.5,0.1,2.2,0.5c0.7,0.3,1.3,0.8,1.7,1.5h0.1v-12h4.4v33.9h-4.1v-1.7
			h-0.1c-0.5,0.6-1.1,1.1-1.9,1.5c-0.7,0.3-1.5,0.5-2.3,0.5c-2.6,0-4.1-2-4.1-5.5V44.2z M114.4,56.7c0,2.7,0.8,3.4,1.9,3.4
			c0.9,0,1.8-0.8,1.8-2.5V45.7c0-2.9-0.8-3.9-2-3.9c-1,0-1.7,0.7-1.7,3.2V56.7z"/>
		<path class="st3" d="M124.9,43.8c0-3.5,2.1-5.1,6.3-5.1c4,0,6.2,1.6,6.2,5.7v18.1h-4.1v-2.4c-0.5,0.5-0.8,1-1.3,1.5
			c-0.8,0.8-2,1.3-3.1,1.3c-2.6,0-4.3-0.8-4.3-6.4c0-4.7,0.4-5.8,1.6-7.1c1-1.1,1.8-1.5,6.9-1.5v-3.8c0-1.4-0.3-2.3-1.8-2.3
			c-1.2,0-1.9,0.5-1.9,2v2.2h-4.4V43.8z M131.6,51c-2.1,0-2.6,1.1-2.6,4.8c0,3.5,0.3,3.9,1.7,3.9c1.5,0,2.3-1.1,2.3-2.7V51H131.6z"
			/>
		<path class="st3" d="M140.1,28.7h4.4v4.7h-4.4V28.7z M140.1,39h4.4v23.6h-4.4V39z"/>
		<path class="st3" d="M147.1,39h4.1v2.4h0.1c1-2.2,1.8-2.7,3.9-2.7v4.4c-2.2,0-3.8,0.6-3.8,3.1v16.4h-4.4V39z"/>
		<path class="st3" d="M154.7,39h4.7l2.9,17.1h0.1l3-17.1h4.4l-7.7,32.1H158l2.1-8.9L154.7,39z"/>
	</g>
	<g>
		<path class="st4" d="M96.5,32.2c0-5.5-10.3-5.3-13.1,0c-1.9,3.8-2.1,8.4,2,10.8c0,0-6.1,0.6-6.1,9.7C79.7,65,90.6,64.4,93.9,64.4
			c6.3-0.3,11.1-4.4,11-11c0,0,0.6-4.3-4.3-8.3l-0.6,1.1c0,0,2.3,1.2,2.8,4.2c0.4,2.1-0.4,4.3-1.9,5.9c-1.4,1.4-2.8,2.6-6,2.9
			c-2.5,0.3-5.1-0.5-6.9-2.3c-1.1-1-2-2.4-2.1-4.3c0-0.3-0.1-0.6-0.1-0.9c-0.3-1.8-0.5-8,7.7-8.1c0.3,0,0.5-0.4,0.4-0.6
			c-0.2-0.5-0.5-1-0.7-1c0,0-4.4,1.6-5.9-0.2c-0.7-0.7-1.2-1.7-1.3-2.7c-0.2-1.2-0.5-5.5,1.9-6.2c0.9-0.3,4.8-1.2,6.1,0.6
			c0.6,0.8,0.8,2.2,0.5,3.2C94.3,37.9,96.5,35.1,96.5,32.2z"/>
		<path class="st4" d="M109.2,30l-2.1-3.1c-0.1-0.1-0.2-0.1-0.2,0l-6.4,14.6l0.8-12c0-0.1-0.1-0.1-0.1-0.1l-2.2,0.1
			c-0.1,0-0.1,0.1-0.1,0.1l0.4,15l-3.9,8.9l0.6,0.2l3.4-5.9l0.1,5.4l0.4,0l0.5-7l9.1-15.9C109.2,30.1,109.2,30,109.2,30z"/>
	</g>
	<g>
		<path d="M58,101.6c-0.2,0-0.4,0-0.6-0.1c-0.2-0.1-0.3-0.2-0.5-0.3c-0.1-0.1-0.2-0.3-0.3-0.5s-0.1-0.4-0.1-0.6c0-0.2,0-0.4,0.1-0.6
			s0.2-0.3,0.3-0.5c0.1-0.1,0.3-0.3,0.5-0.3c0.2-0.1,0.4-0.1,0.6-0.1c0.2,0,0.4,0,0.6,0.1c0.2,0.1,0.3,0.2,0.5,0.3
			c0.1,0.1,0.2,0.3,0.3,0.5s0.1,0.4,0.1,0.6c0,0.2,0,0.4-0.1,0.6s-0.2,0.3-0.3,0.5c-0.1,0.1-0.3,0.3-0.5,0.3
			C58.4,101.5,58.2,101.6,58,101.6z M56.9,100c0,0.2,0,0.3,0.1,0.5c0.1,0.1,0.1,0.3,0.2,0.4c0.1,0.1,0.2,0.2,0.3,0.3
			s0.3,0.1,0.4,0.1s0.3,0,0.4-0.1s0.2-0.1,0.3-0.3c0.1-0.1,0.2-0.2,0.2-0.4c0.1-0.1,0.1-0.3,0.1-0.5c0-0.2,0-0.3-0.1-0.5
			c-0.1-0.1-0.1-0.3-0.2-0.4c-0.1-0.1-0.2-0.2-0.3-0.3c-0.1-0.1-0.3-0.1-0.4-0.1c-0.1,0-0.3,0-0.4,0.1c-0.1,0.1-0.2,0.1-0.3,0.3
			c-0.1,0.1-0.2,0.2-0.2,0.4C56.9,99.7,56.9,99.9,56.9,100z"/>
		<path d="M61.8,101.4C61.8,101.4,61.7,101.4,61.8,101.4c-0.1,0.1-0.2,0.1-0.2,0.1s-0.1,0-0.2,0.1s-0.1,0-0.2,0c-0.1,0-0.2,0-0.2,0
			c-0.1,0-0.1-0.1-0.2-0.1c-0.1,0-0.1-0.1-0.1-0.2c0-0.1-0.1-0.2-0.1-0.2v-2.1h-0.4v-0.3h0.4v-1h0.4v1h0.7v0.3h-0.7v2
			c0,0.1,0,0.2,0.1,0.2c0.1,0.1,0.1,0.1,0.2,0.1c0.1,0,0.2,0,0.3-0.1c0.1,0,0.1-0.1,0.2-0.1L61.8,101.4z"/>
		<path d="M64,101.4C64,101.4,64,101.4,64,101.4c-0.1,0.1-0.2,0.1-0.2,0.1s-0.1,0-0.2,0.1s-0.1,0-0.2,0c-0.1,0-0.2,0-0.2,0
			c-0.1,0-0.1-0.1-0.2-0.1c-0.1,0-0.1-0.1-0.1-0.2c0-0.1-0.1-0.2-0.1-0.2v-2.1h-0.4v-0.3h0.4v-1h0.4v1h0.7v0.3h-0.7v2
			c0,0.1,0,0.2,0.1,0.2c0.1,0.1,0.1,0.1,0.2,0.1c0.1,0,0.2,0,0.3-0.1c0.1,0,0.1-0.1,0.2-0.1L64,101.4z"/>
		<path d="M65.6,101.6c-0.2,0-0.3,0-0.4-0.1s-0.2-0.1-0.3-0.2c-0.1-0.1-0.2-0.2-0.2-0.3c0-0.1-0.1-0.2-0.1-0.3c0-0.1,0-0.3,0.1-0.4
			s0.1-0.2,0.3-0.3c0.1-0.1,0.2-0.1,0.4-0.2c0.2,0,0.3-0.1,0.5-0.1c0.1,0,0.3,0,0.5,0c0.2,0,0.3,0.1,0.4,0.1v-0.3
			c0-0.3-0.1-0.5-0.2-0.6c-0.1-0.2-0.4-0.2-0.6-0.2c-0.2,0-0.3,0-0.5,0.1s-0.3,0.1-0.5,0.3l-0.1-0.3c0.2-0.1,0.4-0.2,0.6-0.3
			c0.2-0.1,0.4-0.1,0.6-0.1c0.4,0,0.6,0.1,0.9,0.3c0.2,0.2,0.3,0.5,0.3,0.9v1.3c0,0.1,0,0.2,0.1,0.2v0.3c0,0-0.1,0-0.1,0
			c0,0,0,0-0.1,0c-0.1,0-0.1,0-0.2-0.1c-0.1,0-0.1-0.1-0.1-0.2l0-0.2c-0.1,0.2-0.3,0.3-0.5,0.4C66,101.5,65.8,101.6,65.6,101.6z
			 M65.7,101.3c0.2,0,0.3,0,0.5-0.1c0.2-0.1,0.3-0.2,0.4-0.3c0,0,0-0.1,0.1-0.1c0,0,0-0.1,0-0.1v-0.5c-0.1,0-0.3-0.1-0.4-0.1
			c-0.1,0-0.3,0-0.4,0c-0.3,0-0.5,0.1-0.7,0.2c-0.2,0.1-0.3,0.3-0.3,0.5c0,0.1,0,0.2,0,0.2c0,0.1,0.1,0.1,0.1,0.2
			c0.1,0.1,0.1,0.1,0.2,0.1C65.5,101.3,65.6,101.3,65.7,101.3z"/>
		<path d="M71.9,98.6h0.4l-1.3,3h-0.3L70,100l-0.6,1.5h-0.3l-1.3-3h0.4l1.1,2.6l0.6-1.3l-0.5-1.2h0.3l0.4,1l0.4-1h0.3l-0.5,1.2
			l0.6,1.3L71.9,98.6z"/>
		<path d="M73.8,101.6c-0.2,0-0.3,0-0.4-0.1s-0.2-0.1-0.3-0.2c-0.1-0.1-0.2-0.2-0.2-0.3c0-0.1-0.1-0.2-0.1-0.3c0-0.1,0-0.3,0.1-0.4
			s0.1-0.2,0.3-0.3c0.1-0.1,0.2-0.1,0.4-0.2c0.2,0,0.3-0.1,0.5-0.1c0.1,0,0.3,0,0.5,0c0.2,0,0.3,0.1,0.4,0.1v-0.3
			c0-0.3-0.1-0.5-0.2-0.6c-0.1-0.2-0.4-0.2-0.6-0.2c-0.2,0-0.3,0-0.5,0.1s-0.3,0.1-0.5,0.3L73,98.9c0.2-0.1,0.4-0.2,0.6-0.3
			c0.2-0.1,0.4-0.1,0.6-0.1c0.4,0,0.6,0.1,0.9,0.3c0.2,0.2,0.3,0.5,0.3,0.9v1.3c0,0.1,0,0.2,0.1,0.2v0.3c0,0-0.1,0-0.1,0
			c0,0,0,0-0.1,0c-0.1,0-0.1,0-0.2-0.1c-0.1,0-0.1-0.1-0.1-0.2l0-0.2c-0.1,0.2-0.3,0.3-0.5,0.4C74.2,101.5,74,101.6,73.8,101.6z
			 M73.9,101.3c0.2,0,0.3,0,0.5-0.1c0.2-0.1,0.3-0.2,0.4-0.3c0,0,0-0.1,0.1-0.1c0,0,0-0.1,0-0.1v-0.5c-0.1,0-0.3-0.1-0.4-0.1
			c-0.1,0-0.3,0-0.4,0c-0.3,0-0.5,0.1-0.7,0.2c-0.2,0.1-0.3,0.3-0.3,0.5c0,0.1,0,0.2,0,0.2c0,0.1,0.1,0.1,0.1,0.2
			c0.1,0.1,0.1,0.1,0.2,0.1C73.7,101.3,73.8,101.3,73.9,101.3z"/>
		<path d="M76.3,100c0-0.2,0-0.4,0.1-0.6s0.2-0.3,0.3-0.5c0.1-0.1,0.3-0.2,0.5-0.3c0.2-0.1,0.4-0.1,0.6-0.1c0.3,0,0.5,0.1,0.7,0.2
			c0.2,0.1,0.4,0.3,0.5,0.5l-0.4,0.1c-0.1-0.2-0.2-0.3-0.3-0.4c-0.1-0.1-0.3-0.1-0.5-0.1c-0.2,0-0.3,0-0.4,0.1
			c-0.1,0.1-0.2,0.1-0.3,0.2c-0.1,0.1-0.2,0.2-0.2,0.4c-0.1,0.1-0.1,0.3-0.1,0.5c0,0.2,0,0.3,0.1,0.5c0.1,0.1,0.1,0.3,0.2,0.4
			c0.1,0.1,0.2,0.2,0.3,0.3s0.3,0.1,0.4,0.1c0.1,0,0.2,0,0.3,0c0.1,0,0.2-0.1,0.3-0.1s0.1-0.1,0.2-0.2s0.1-0.1,0.1-0.2l0.4,0.1
			c0,0.1-0.1,0.2-0.2,0.3c-0.1,0.1-0.2,0.2-0.3,0.2c-0.1,0.1-0.2,0.1-0.4,0.2c-0.1,0-0.3,0.1-0.4,0.1c-0.2,0-0.4,0-0.6-0.1
			c-0.2-0.1-0.3-0.2-0.5-0.3c-0.1-0.1-0.2-0.3-0.3-0.5C76.3,100.4,76.3,100.2,76.3,100z"/>
		<path d="M82.4,101.5H82v-1.6c0-0.3-0.1-0.6-0.2-0.8c-0.1-0.2-0.3-0.2-0.5-0.2c-0.1,0-0.2,0-0.3,0.1c-0.1,0-0.2,0.1-0.3,0.2
			c-0.1,0.1-0.2,0.2-0.2,0.3s-0.1,0.2-0.2,0.3v1.8h-0.4v-4.1h0.4v1.9c0.1-0.2,0.3-0.4,0.5-0.5c0.2-0.1,0.4-0.2,0.7-0.2
			c0.2,0,0.3,0,0.4,0.1c0.1,0.1,0.2,0.1,0.3,0.3s0.1,0.2,0.2,0.4c0,0.2,0.1,0.3,0.1,0.5V101.5z"/>
		<path d="M83.6,97.9v-0.6h0.4v0.6H83.6z M83.6,101.5v-3h0.4v3H83.6z"/>
		<path d="M86.6,101.6c-0.2,0-0.5-0.1-0.7-0.2c-0.2-0.1-0.3-0.3-0.5-0.5v1.8h-0.4v-4.2h0.3v0.6c0.1-0.2,0.3-0.3,0.5-0.5
			s0.4-0.2,0.6-0.2c0.2,0,0.4,0,0.6,0.1s0.3,0.2,0.4,0.3c0.1,0.1,0.2,0.3,0.3,0.5S88,99.8,88,100c0,0.2,0,0.4-0.1,0.6
			c-0.1,0.2-0.2,0.3-0.3,0.5c-0.1,0.1-0.3,0.3-0.4,0.3C87,101.5,86.8,101.6,86.6,101.6z M86.5,101.2c0.2,0,0.3,0,0.4-0.1
			c0.1-0.1,0.2-0.2,0.3-0.3c0.1-0.1,0.2-0.2,0.2-0.4c0-0.1,0.1-0.3,0.1-0.4c0-0.2,0-0.3-0.1-0.5s-0.1-0.3-0.2-0.4
			c-0.1-0.1-0.2-0.2-0.3-0.3c-0.1-0.1-0.3-0.1-0.4-0.1c-0.1,0-0.2,0-0.3,0.1c-0.1,0-0.2,0.1-0.3,0.2c-0.1,0.1-0.2,0.1-0.2,0.2
			c-0.1,0.1-0.1,0.2-0.1,0.3v0.9c0,0.1,0.1,0.2,0.2,0.3c0.1,0.1,0.1,0.2,0.2,0.2c0.1,0.1,0.2,0.1,0.3,0.2
			C86.3,101.2,86.4,101.2,86.5,101.2z"/>
		<path d="M89.9,101.6c-0.2,0-0.5,0-0.7-0.1c-0.2-0.1-0.4-0.2-0.6-0.3l0.2-0.3c0.2,0.1,0.3,0.2,0.5,0.3c0.2,0.1,0.4,0.1,0.6,0.1
			c0.2,0,0.4,0,0.6-0.1c0.1-0.1,0.2-0.2,0.2-0.4c0-0.1,0-0.2-0.1-0.2c0-0.1-0.1-0.1-0.2-0.1s-0.2-0.1-0.3-0.1
			c-0.1,0-0.2-0.1-0.4-0.1c-0.2,0-0.3-0.1-0.4-0.1c-0.1,0-0.2-0.1-0.3-0.1c-0.1-0.1-0.1-0.1-0.2-0.2c0-0.1-0.1-0.2-0.1-0.3
			c0-0.1,0-0.3,0.1-0.4c0.1-0.1,0.1-0.2,0.2-0.3s0.2-0.1,0.4-0.2c0.1,0,0.3-0.1,0.4-0.1c0.2,0,0.4,0,0.6,0.1
			c0.2,0.1,0.3,0.2,0.4,0.3l-0.2,0.2c-0.1-0.1-0.2-0.2-0.4-0.3s-0.3-0.1-0.5-0.1c-0.1,0-0.2,0-0.3,0c-0.1,0-0.2,0.1-0.2,0.1
			c-0.1,0-0.1,0.1-0.2,0.2c0,0.1-0.1,0.2-0.1,0.2c0,0.1,0,0.1,0,0.2c0,0,0.1,0.1,0.1,0.1c0.1,0,0.1,0.1,0.2,0.1
			c0.1,0,0.2,0.1,0.3,0.1c0.2,0,0.4,0.1,0.5,0.1c0.1,0,0.3,0.1,0.4,0.2s0.2,0.1,0.2,0.2c0,0.1,0.1,0.2,0.1,0.3
			c0,0.3-0.1,0.5-0.3,0.6C90.6,101.5,90.3,101.6,89.9,101.6z"/>
		<path d="M92.8,101.6c-0.2,0-0.3,0-0.4-0.1s-0.2-0.1-0.3-0.2c-0.1-0.1-0.2-0.2-0.2-0.3c0-0.1-0.1-0.2-0.1-0.3c0-0.1,0-0.3,0.1-0.4
			s0.1-0.2,0.3-0.3c0.1-0.1,0.2-0.1,0.4-0.2c0.2,0,0.3-0.1,0.5-0.1c0.1,0,0.3,0,0.5,0c0.2,0,0.3,0.1,0.4,0.1v-0.3
			c0-0.3-0.1-0.5-0.2-0.6c-0.1-0.2-0.4-0.2-0.6-0.2c-0.2,0-0.3,0-0.5,0.1s-0.3,0.1-0.5,0.3L92,98.9c0.2-0.1,0.4-0.2,0.6-0.3
			c0.2-0.1,0.4-0.1,0.6-0.1c0.4,0,0.6,0.1,0.9,0.3c0.2,0.2,0.3,0.5,0.3,0.9v1.3c0,0.1,0,0.2,0.1,0.2v0.3c0,0-0.1,0-0.1,0
			c0,0,0,0-0.1,0c-0.1,0-0.1,0-0.2-0.1c-0.1,0-0.1-0.1-0.1-0.2l0-0.2c-0.1,0.2-0.3,0.3-0.5,0.4C93.2,101.5,93,101.6,92.8,101.6z
			 M92.9,101.3c0.2,0,0.3,0,0.5-0.1c0.2-0.1,0.3-0.2,0.4-0.3c0,0,0-0.1,0.1-0.1c0,0,0-0.1,0-0.1v-0.5c-0.1,0-0.3-0.1-0.4-0.1
			c-0.1,0-0.3,0-0.4,0c-0.3,0-0.5,0.1-0.7,0.2c-0.2,0.1-0.3,0.3-0.3,0.5c0,0.1,0,0.2,0,0.2c0,0.1,0.1,0.1,0.1,0.2
			c0.1,0.1,0.1,0.1,0.2,0.1C92.7,101.3,92.8,101.3,92.9,101.3z"/>
		<path d="M98,101.5h-0.4v-1.6c0-0.4-0.1-0.6-0.2-0.8c-0.1-0.2-0.3-0.2-0.5-0.2c-0.1,0-0.2,0-0.3,0.1s-0.2,0.1-0.3,0.2
			c-0.1,0.1-0.2,0.2-0.3,0.3c-0.1,0.1-0.1,0.2-0.2,0.3v1.8h-0.4v-3h0.4v0.7c0.1-0.1,0.1-0.2,0.2-0.3s0.2-0.2,0.3-0.2
			c0.1-0.1,0.2-0.1,0.3-0.1c0.1,0,0.3-0.1,0.4-0.1c0.2,0,0.3,0,0.4,0.1s0.2,0.1,0.3,0.3c0.1,0.1,0.1,0.2,0.1,0.4c0,0.2,0,0.3,0,0.5
			V101.5z"/>
		<path d="M100.3,101.6c-0.2,0-0.4,0-0.6-0.1s-0.3-0.2-0.5-0.3c-0.1-0.1-0.2-0.3-0.3-0.5c-0.1-0.2-0.1-0.4-0.1-0.6
			c0-0.2,0-0.4,0.1-0.6c0.1-0.2,0.2-0.4,0.3-0.5s0.3-0.3,0.4-0.3c0.2-0.1,0.3-0.1,0.5-0.1c0.2,0,0.5,0.1,0.7,0.2
			c0.2,0.1,0.3,0.3,0.5,0.5v-1.8h0.4v3.6c0,0.1,0,0.2,0.1,0.2v0.3c-0.1,0-0.1,0-0.2,0c-0.1,0-0.2,0-0.2-0.1
			c-0.1-0.1-0.1-0.1-0.1-0.2v-0.3c-0.1,0.2-0.3,0.3-0.5,0.5S100.5,101.6,100.3,101.6z M100.4,101.2c0.1,0,0.2,0,0.3-0.1
			c0.1,0,0.2-0.1,0.3-0.2c0.1-0.1,0.2-0.1,0.2-0.2c0.1-0.1,0.1-0.2,0.1-0.3v-0.9c0-0.1-0.1-0.2-0.2-0.3c-0.1-0.1-0.2-0.2-0.2-0.2
			s-0.2-0.1-0.3-0.2c-0.1,0-0.2-0.1-0.3-0.1c-0.2,0-0.3,0-0.4,0.1c-0.1,0.1-0.2,0.2-0.3,0.3c-0.1,0.1-0.2,0.2-0.2,0.4
			s-0.1,0.3-0.1,0.4c0,0.2,0,0.3,0.1,0.5c0.1,0.1,0.1,0.3,0.2,0.4c0.1,0.1,0.2,0.2,0.3,0.3C100.1,101.2,100.2,101.2,100.4,101.2z"/>
		<path d="M104.2,101.6c-0.2,0-0.4,0-0.6-0.1s-0.3-0.2-0.5-0.3c-0.1-0.1-0.2-0.3-0.3-0.5c-0.1-0.2-0.1-0.4-0.1-0.6
			c0-0.2,0-0.4,0.1-0.6s0.2-0.4,0.3-0.5c0.1-0.1,0.3-0.3,0.4-0.3c0.2-0.1,0.3-0.1,0.5-0.1c0.2,0,0.5,0.1,0.7,0.2
			c0.2,0.1,0.3,0.3,0.5,0.5v-1.8h0.4v3.6c0,0.1,0,0.2,0.1,0.2v0.3c-0.1,0-0.1,0-0.2,0c-0.1,0-0.2,0-0.2-0.1
			c-0.1-0.1-0.1-0.1-0.1-0.2v-0.3c-0.1,0.2-0.3,0.3-0.5,0.5C104.6,101.5,104.4,101.6,104.2,101.6z M104.3,101.2c0.1,0,0.2,0,0.3-0.1
			c0.1,0,0.2-0.1,0.3-0.2c0.1-0.1,0.2-0.1,0.2-0.2c0.1-0.1,0.1-0.2,0.1-0.3v-0.9c0-0.1-0.1-0.2-0.2-0.3c-0.1-0.1-0.2-0.2-0.2-0.2
			s-0.2-0.1-0.3-0.2c-0.1,0-0.2-0.1-0.3-0.1c-0.2,0-0.3,0-0.4,0.1c-0.1,0.1-0.2,0.2-0.3,0.3s-0.2,0.2-0.2,0.4
			c-0.1,0.1-0.1,0.3-0.1,0.4c0,0.2,0,0.3,0.1,0.5s0.1,0.3,0.2,0.4s0.2,0.2,0.3,0.3C104,101.2,104.1,101.2,104.3,101.2z"/>
		<path d="M107.6,101.6c-0.2,0-0.3,0-0.4-0.1c-0.1,0-0.2-0.1-0.3-0.2c-0.1-0.1-0.2-0.2-0.2-0.3c0-0.1-0.1-0.2-0.1-0.3
			c0-0.1,0-0.3,0.1-0.4s0.1-0.2,0.3-0.3c0.1-0.1,0.2-0.1,0.4-0.2s0.3-0.1,0.5-0.1c0.1,0,0.3,0,0.5,0s0.3,0.1,0.4,0.1v-0.3
			c0-0.3-0.1-0.5-0.2-0.6c-0.1-0.2-0.4-0.2-0.6-0.2c-0.2,0-0.3,0-0.5,0.1c-0.2,0.1-0.3,0.1-0.5,0.3l-0.1-0.3
			c0.2-0.1,0.4-0.2,0.6-0.3c0.2-0.1,0.4-0.1,0.6-0.1c0.4,0,0.6,0.1,0.9,0.3c0.2,0.2,0.3,0.5,0.3,0.9v1.3c0,0.1,0,0.2,0.1,0.2v0.3
			c0,0-0.1,0-0.1,0c0,0,0,0-0.1,0c-0.1,0-0.1,0-0.2-0.1s-0.1-0.1-0.1-0.2l0-0.2c-0.1,0.2-0.3,0.3-0.5,0.4
			C108.1,101.5,107.8,101.6,107.6,101.6z M107.7,101.3c0.2,0,0.3,0,0.5-0.1c0.2-0.1,0.3-0.2,0.4-0.3c0,0,0-0.1,0.1-0.1
			c0,0,0-0.1,0-0.1v-0.5c-0.1,0-0.3-0.1-0.4-0.1c-0.1,0-0.3,0-0.4,0c-0.3,0-0.5,0.1-0.7,0.2c-0.2,0.1-0.3,0.3-0.3,0.5
			c0,0.1,0,0.2,0,0.2c0,0.1,0.1,0.1,0.1,0.2c0.1,0.1,0.1,0.1,0.2,0.1C107.5,101.3,107.6,101.3,107.7,101.3z"/>
		<path d="M110.3,97.9v-0.6h0.4v0.6H110.3z M110.3,101.5v-3h0.4v3H110.3z"/>
		<path d="M113.3,98.9c-0.3,0-0.5,0.1-0.7,0.2c-0.2,0.1-0.3,0.3-0.4,0.6v1.8h-0.4v-3h0.4v0.7c0.1-0.2,0.2-0.4,0.4-0.5
			c0.2-0.1,0.3-0.2,0.5-0.2c0,0,0.1,0,0.1,0s0.1,0,0.1,0V98.9z"/>
		<path d="M114.3,102.4C114.4,102.4,114.4,102.4,114.3,102.4c0.1,0,0.1,0,0.1,0c0,0,0.1,0,0.1,0c0,0,0.1,0,0.1,0c0,0,0,0,0.1,0
			s0-0.1,0.1-0.1c0-0.1,0.1-0.1,0.1-0.3c0-0.1,0.1-0.3,0.2-0.5l-1.3-3h0.4l1.1,2.6l1-2.6h0.4l-1.5,3.8c-0.1,0.1-0.1,0.2-0.2,0.3
			c-0.1,0.1-0.2,0.1-0.4,0.1c-0.1,0-0.1,0-0.2,0V102.4z"/>
		<path d="M117.3,101.5V101h0.3v0.6H117.3z"/>
		<path d="M118.5,100c0-0.2,0-0.4,0.1-0.6c0.1-0.2,0.2-0.3,0.3-0.5c0.1-0.1,0.3-0.2,0.5-0.3c0.2-0.1,0.4-0.1,0.6-0.1
			c0.3,0,0.5,0.1,0.7,0.2s0.4,0.3,0.5,0.5l-0.4,0.1c-0.1-0.2-0.2-0.3-0.3-0.4c-0.1-0.1-0.3-0.1-0.5-0.1c-0.2,0-0.3,0-0.4,0.1
			c-0.1,0.1-0.2,0.1-0.3,0.2c-0.1,0.1-0.2,0.2-0.2,0.4c-0.1,0.1-0.1,0.3-0.1,0.5c0,0.2,0,0.3,0.1,0.5c0.1,0.1,0.1,0.3,0.2,0.4
			c0.1,0.1,0.2,0.2,0.3,0.3c0.1,0.1,0.3,0.1,0.4,0.1c0.1,0,0.2,0,0.3,0c0.1,0,0.2-0.1,0.3-0.1c0.1,0,0.1-0.1,0.2-0.2
			s0.1-0.1,0.1-0.2l0.4,0.1c0,0.1-0.1,0.2-0.2,0.3c-0.1,0.1-0.2,0.2-0.3,0.2c-0.1,0.1-0.2,0.1-0.4,0.2c-0.1,0-0.3,0.1-0.4,0.1
			c-0.2,0-0.4,0-0.6-0.1c-0.2-0.1-0.3-0.2-0.5-0.3c-0.1-0.1-0.2-0.3-0.3-0.5C118.6,100.4,118.5,100.2,118.5,100z"/>
		<path d="M123.4,101.6c-0.2,0-0.4,0-0.6-0.1c-0.2-0.1-0.3-0.2-0.5-0.3c-0.1-0.1-0.2-0.3-0.3-0.5c-0.1-0.2-0.1-0.4-0.1-0.6
			c0-0.2,0-0.4,0.1-0.6c0.1-0.2,0.2-0.3,0.3-0.5c0.1-0.1,0.3-0.3,0.5-0.3c0.2-0.1,0.4-0.1,0.6-0.1c0.2,0,0.4,0,0.6,0.1
			c0.2,0.1,0.3,0.2,0.5,0.3c0.1,0.1,0.2,0.3,0.3,0.5c0.1,0.2,0.1,0.4,0.1,0.6c0,0.2,0,0.4-0.1,0.6c-0.1,0.2-0.2,0.3-0.3,0.5
			c-0.1,0.1-0.3,0.3-0.5,0.3C123.8,101.5,123.6,101.6,123.4,101.6z M122.4,100c0,0.2,0,0.3,0.1,0.5c0.1,0.1,0.1,0.3,0.2,0.4
			c0.1,0.1,0.2,0.2,0.3,0.3c0.1,0.1,0.3,0.1,0.4,0.1s0.3,0,0.4-0.1c0.1-0.1,0.2-0.1,0.3-0.3c0.1-0.1,0.2-0.2,0.2-0.4
			c0.1-0.1,0.1-0.3,0.1-0.5c0-0.2,0-0.3-0.1-0.5c-0.1-0.1-0.1-0.3-0.2-0.4c-0.1-0.1-0.2-0.2-0.3-0.3c-0.1-0.1-0.3-0.1-0.4-0.1
			c-0.1,0-0.3,0-0.4,0.1c-0.1,0.1-0.2,0.1-0.3,0.3c-0.1,0.1-0.2,0.2-0.2,0.4C122.4,99.7,122.4,99.9,122.4,100z"/>
		<path d="M130.3,101.5h-0.4v-1.6c0-0.3-0.1-0.6-0.2-0.8s-0.3-0.2-0.5-0.2c-0.1,0-0.2,0-0.3,0.1c-0.1,0-0.2,0.1-0.3,0.2
			c-0.1,0.1-0.2,0.2-0.2,0.3s-0.1,0.2-0.1,0.3v1.8h-0.4v-1.6c0-0.4-0.1-0.6-0.2-0.8c-0.1-0.2-0.3-0.2-0.5-0.2
			c-0.2,0-0.4,0.1-0.6,0.2s-0.3,0.4-0.4,0.6v1.8h-0.4v-3h0.4v0.7c0.1-0.2,0.3-0.4,0.5-0.5s0.4-0.2,0.7-0.2c0.2,0,0.5,0.1,0.6,0.2
			c0.2,0.1,0.2,0.3,0.3,0.5c0.3-0.5,0.7-0.8,1.1-0.8c0.2,0,0.3,0,0.4,0.1c0.1,0.1,0.2,0.1,0.3,0.3s0.1,0.2,0.2,0.4
			c0,0.2,0,0.3,0,0.5V101.5z"/>
	</g>
</g>
</svg>
