<?xml version="1.0" encoding="utf-8"?>
<!-- Generator: Adobe Illustrator 19.0.0, SVG Export Plug-In . SVG Version: 6.00 Build 0)  -->
<svg version="1.1" id="Layer_1" xmlns="http://www.w3.org/2000/svg" xmlns:xlink="http://www.w3.org/1999/xlink" x="0px" y="0px"
	 viewBox="0 0 792 612" style="enable-background:new 0 0 792 612;" xml:space="preserve">
<style type="text/css">
	.st0{fill:none;}
	.st1{enable-background:new    ;}
	.st2{fill:#000100;}
	.st3{fill:#090505;}
	.st4{fill:#D02942;}
</style>
<rect id="XMLID_1_" x="469.2" y="372" class="st0" width="256.8" height="52.2"/>
<g class="st1">
</g>
<g class="st1">
	<path class="st2" d="M473,380.7v-8.5h5.7v1.2h-4.3v2.5h3.6v1.1h-3.6v3.7H473z"/>
	<path class="st2" d="M479.9,380.7v-8.5h1.3v8.5H479.9z"/>
	<path class="st2" d="M484.6,374.7v6h-1.3v-8.5h1.1l4.9,6.1v-6.1h1.4v8.5h-1.1L484.6,374.7z"/>
	<path class="st2" d="M498.3,379.5v1.2h-5.8v-8.5h5.7v1.2h-4.4v2.4h3.8v1.1h-3.8v2.6H498.3z"/>
	<path class="st2" d="M502.6,380.7v-8.5h5.7v1.2H504v2.5h3.6v1.1H504v3.7H502.6z"/>
	<path class="st2" d="M512.9,380.8c-0.6,0-1.1-0.1-1.6-0.4s-0.9-0.6-1.3-1c-0.4-0.4-0.6-0.9-0.8-1.4c-0.2-0.5-0.3-1.1-0.3-1.6
		c0-0.6,0.1-1.1,0.3-1.6c0.2-0.5,0.5-1,0.8-1.4c0.4-0.4,0.8-0.7,1.3-1c0.5-0.2,1-0.4,1.6-0.4c0.6,0,1.1,0.1,1.6,0.4
		c0.5,0.3,0.9,0.6,1.3,1c0.4,0.4,0.6,0.9,0.8,1.4c0.2,0.5,0.3,1,0.3,1.6c0,0.6-0.1,1.1-0.3,1.6c-0.2,0.5-0.5,1-0.8,1.4
		c-0.4,0.4-0.8,0.7-1.3,0.9S513.5,380.8,512.9,380.8z M510.2,376.5c0,0.4,0.1,0.8,0.2,1.2s0.3,0.7,0.5,1s0.5,0.5,0.8,0.7
		s0.7,0.3,1.1,0.3c0.4,0,0.8-0.1,1.1-0.3c0.3-0.2,0.6-0.4,0.8-0.7c0.2-0.3,0.4-0.6,0.5-1s0.2-0.7,0.2-1.1c0-0.4-0.1-0.8-0.2-1.2
		s-0.3-0.7-0.5-1s-0.5-0.5-0.8-0.7s-0.7-0.3-1.1-0.3c-0.4,0-0.8,0.1-1.1,0.3s-0.6,0.4-0.8,0.7c-0.2,0.3-0.4,0.6-0.5,1
		C510.3,375.7,510.2,376.1,510.2,376.5z"/>
	<path class="st2" d="M521.8,380.8c-0.6,0-1.1-0.1-1.6-0.4c-0.5-0.2-0.9-0.6-1.3-1c-0.4-0.4-0.6-0.9-0.8-1.4
		c-0.2-0.5-0.3-1.1-0.3-1.6c0-0.6,0.1-1.1,0.3-1.6c0.2-0.5,0.5-1,0.8-1.4c0.4-0.4,0.8-0.7,1.3-1c0.5-0.2,1-0.4,1.6-0.4
		c0.6,0,1.1,0.1,1.6,0.4s0.9,0.6,1.3,1c0.4,0.4,0.6,0.9,0.8,1.4c0.2,0.5,0.3,1,0.3,1.6c0,0.6-0.1,1.1-0.3,1.6
		c-0.2,0.5-0.5,1-0.8,1.4c-0.4,0.4-0.8,0.7-1.3,0.9C522.9,380.7,522.4,380.8,521.8,380.8z M519.2,376.5c0,0.4,0.1,0.8,0.2,1.2
		s0.3,0.7,0.5,1c0.2,0.3,0.5,0.5,0.8,0.7c0.3,0.2,0.7,0.3,1.1,0.3c0.4,0,0.8-0.1,1.1-0.3s0.6-0.4,0.8-0.7c0.2-0.3,0.4-0.6,0.5-1
		s0.2-0.7,0.2-1.1c0-0.4-0.1-0.8-0.2-1.2c-0.1-0.4-0.3-0.7-0.5-1c-0.2-0.3-0.5-0.5-0.8-0.7s-0.7-0.3-1.1-0.3c-0.4,0-0.8,0.1-1.1,0.3
		s-0.6,0.4-0.8,0.7c-0.2,0.3-0.4,0.6-0.5,1C519.2,375.7,519.2,376.1,519.2,376.5z"/>
	<path class="st2" d="M527.3,380.7v-8.5h3c0.7,0,1.3,0.1,1.8,0.3c0.5,0.2,0.9,0.5,1.3,0.9c0.3,0.4,0.6,0.8,0.8,1.4
		c0.2,0.5,0.3,1.1,0.3,1.6c0,0.6-0.1,1.2-0.3,1.8c-0.2,0.5-0.5,1-0.8,1.3s-0.8,0.7-1.3,0.9c-0.5,0.2-1.1,0.3-1.7,0.3H527.3z
		 M533.1,376.5c0-0.4-0.1-0.9-0.2-1.2s-0.3-0.7-0.5-1c-0.2-0.3-0.5-0.5-0.9-0.6c-0.3-0.2-0.7-0.2-1.2-0.2h-1.7v6.1h1.7
		c0.4,0,0.8-0.1,1.2-0.2s0.6-0.4,0.9-0.6c0.2-0.3,0.4-0.6,0.5-1S533.1,376.9,533.1,376.5z"/>
	<path class="st2" d="M535.4,376.4c0-0.5,0.1-1,0.3-1.5c0.2-0.5,0.5-1,0.8-1.4c0.3-0.4,0.8-0.7,1.3-1s1.1-0.4,1.7-0.4
		c0.8,0,1.4,0.2,2,0.5s1,0.8,1.2,1.3l-1.1,0.7c-0.1-0.3-0.3-0.5-0.4-0.6c-0.2-0.2-0.3-0.3-0.5-0.4c-0.2-0.1-0.4-0.2-0.6-0.2
		s-0.4-0.1-0.6-0.1c-0.4,0-0.8,0.1-1.1,0.3c-0.3,0.2-0.6,0.4-0.8,0.7c-0.2,0.3-0.4,0.6-0.5,1c-0.1,0.4-0.2,0.7-0.2,1.1
		c0,0.4,0.1,0.8,0.2,1.2s0.3,0.7,0.6,1c0.2,0.3,0.5,0.5,0.9,0.7c0.3,0.2,0.7,0.3,1.1,0.3c0.2,0,0.4,0,0.6-0.1s0.4-0.1,0.6-0.3
		s0.4-0.3,0.5-0.4s0.3-0.4,0.4-0.6l1.1,0.6c-0.1,0.3-0.3,0.6-0.6,0.8c-0.2,0.2-0.5,0.4-0.8,0.6c-0.3,0.2-0.6,0.3-1,0.4
		s-0.7,0.1-1,0.1c-0.6,0-1.1-0.1-1.6-0.4c-0.5-0.3-0.9-0.6-1.3-1c-0.4-0.4-0.6-0.9-0.8-1.4C535.5,377.5,535.4,376.9,535.4,376.4z"/>
	<path class="st2" d="M547.4,380.8c-0.6,0-1.1-0.1-1.6-0.4c-0.5-0.2-0.9-0.6-1.3-1c-0.4-0.4-0.6-0.9-0.8-1.4
		c-0.2-0.5-0.3-1.1-0.3-1.6c0-0.6,0.1-1.1,0.3-1.6c0.2-0.5,0.5-1,0.8-1.4c0.4-0.4,0.8-0.7,1.3-1c0.5-0.2,1-0.4,1.6-0.4
		c0.6,0,1.1,0.1,1.6,0.4s0.9,0.6,1.3,1c0.4,0.4,0.6,0.9,0.8,1.4c0.2,0.5,0.3,1,0.3,1.6c0,0.6-0.1,1.1-0.3,1.6
		c-0.2,0.5-0.5,1-0.8,1.4c-0.4,0.4-0.8,0.7-1.3,0.9C548.5,380.7,548,380.8,547.4,380.8z M544.8,376.5c0,0.4,0.1,0.8,0.2,1.2
		s0.3,0.7,0.5,1c0.2,0.3,0.5,0.5,0.8,0.7c0.3,0.2,0.7,0.3,1.1,0.3c0.4,0,0.8-0.1,1.1-0.3s0.6-0.4,0.8-0.7c0.2-0.3,0.4-0.6,0.5-1
		s0.2-0.7,0.2-1.1c0-0.4-0.1-0.8-0.2-1.2c-0.1-0.4-0.3-0.7-0.5-1c-0.2-0.3-0.5-0.5-0.8-0.7s-0.7-0.3-1.1-0.3c-0.4,0-0.8,0.1-1.1,0.3
		s-0.6,0.4-0.8,0.7c-0.2,0.3-0.4,0.6-0.5,1C544.8,375.7,544.8,376.1,544.8,376.5z"/>
	<path class="st2" d="M556.4,379.6c0.4,0,0.8-0.1,1.1-0.3c0.3-0.2,0.5-0.4,0.7-0.7c0.2-0.3,0.3-0.6,0.4-1s0.1-0.7,0.1-1.1v-4.3h1.4
		v4.3c0,0.6-0.1,1.1-0.2,1.7c-0.1,0.5-0.4,1-0.6,1.4c-0.3,0.4-0.7,0.7-1.1,0.9c-0.5,0.2-1,0.3-1.7,0.3c-0.7,0-1.3-0.1-1.7-0.4
		c-0.5-0.2-0.8-0.6-1.1-0.9c-0.3-0.4-0.5-0.8-0.6-1.4c-0.1-0.5-0.2-1-0.2-1.6v-4.3h1.3v4.3c0,0.4,0,0.8,0.1,1.1
		c0.1,0.4,0.2,0.7,0.4,1s0.4,0.5,0.7,0.7S556,379.6,556.4,379.6z"/>
	<path class="st2" d="M561.9,380.7v-8.5h3.7c0.4,0,0.7,0.1,1.1,0.2c0.3,0.2,0.6,0.4,0.8,0.6c0.2,0.3,0.4,0.6,0.5,0.9
		c0.1,0.3,0.2,0.7,0.2,1c0,0.3,0,0.6-0.1,0.8s-0.2,0.5-0.3,0.7c-0.1,0.2-0.3,0.4-0.5,0.6c-0.2,0.2-0.4,0.3-0.7,0.4l2,3.2h-1.5
		l-1.9-3h-2v3H561.9z M563.2,376.6h2.4c0.2,0,0.4,0,0.5-0.1s0.3-0.2,0.4-0.3c0.1-0.1,0.2-0.3,0.3-0.5c0.1-0.2,0.1-0.4,0.1-0.6
		s0-0.4-0.1-0.6c-0.1-0.2-0.2-0.4-0.3-0.5c-0.1-0.1-0.3-0.3-0.4-0.3s-0.3-0.1-0.5-0.1h-2.3V376.6z"/>
	<path class="st2" d="M575.9,373.4h-2.8v7.3h-1.3v-7.3h-2.8v-1.2h7V373.4z"/>
	<path class="st2" d="M579.7,380.7v-8.5h5.7v1.2h-4.3v2.5h3.6v1.1h-3.6v3.7H579.7z"/>
	<path class="st2" d="M586.6,380.7v-8.5h1.3v7.3h4.6v1.2H586.6z"/>
	<path class="st2" d="M592.8,380.7l3.4-8.5h1.1l3.4,8.5h-1.4l-0.9-2.3h-3.3l-0.9,2.3H592.8z M596.8,373.7l-1.4,3.7h2.8L596.8,373.7z
		"/>
	<path class="st2" d="M601.7,372.2l2.6,6.8l2.6-6.8h1.4l-3.4,8.5h-1.2l-3.4-8.5H601.7z"/>
	<path class="st2" d="M612.5,380.8c-0.6,0-1.1-0.1-1.6-0.4s-0.9-0.6-1.3-1c-0.4-0.4-0.6-0.9-0.8-1.4c-0.2-0.5-0.3-1.1-0.3-1.6
		c0-0.6,0.1-1.1,0.3-1.6c0.2-0.5,0.5-1,0.8-1.4c0.4-0.4,0.8-0.7,1.3-1c0.5-0.2,1-0.4,1.6-0.4c0.6,0,1.1,0.1,1.6,0.4
		c0.5,0.3,0.9,0.6,1.3,1c0.4,0.4,0.6,0.9,0.8,1.4c0.2,0.5,0.3,1,0.3,1.6c0,0.6-0.1,1.1-0.3,1.6c-0.2,0.5-0.5,1-0.8,1.4
		c-0.4,0.4-0.8,0.7-1.3,0.9S613,380.8,612.5,380.8z M609.8,376.5c0,0.4,0.1,0.8,0.2,1.2s0.3,0.7,0.5,1s0.5,0.5,0.8,0.7
		s0.7,0.3,1.1,0.3c0.4,0,0.8-0.1,1.1-0.3c0.3-0.2,0.6-0.4,0.8-0.7c0.2-0.3,0.4-0.6,0.5-1s0.2-0.7,0.2-1.1c0-0.4-0.1-0.8-0.2-1.2
		s-0.3-0.7-0.5-1s-0.5-0.5-0.8-0.7s-0.7-0.3-1.1-0.3c-0.4,0-0.8,0.1-1.1,0.3s-0.6,0.4-0.8,0.7c-0.2,0.3-0.4,0.6-0.5,1
		C609.9,375.7,609.8,376.1,609.8,376.5z"/>
	<path class="st2" d="M617.9,380.7v-8.5h3.7c0.4,0,0.7,0.1,1.1,0.2c0.3,0.2,0.6,0.4,0.8,0.6c0.2,0.3,0.4,0.6,0.5,0.9s0.2,0.7,0.2,1
		c0,0.3,0,0.6-0.1,0.8s-0.2,0.5-0.3,0.7c-0.1,0.2-0.3,0.4-0.5,0.6c-0.2,0.2-0.4,0.3-0.7,0.4l2,3.2h-1.5l-1.9-3h-2v3H617.9z
		 M619.3,376.6h2.4c0.2,0,0.4,0,0.5-0.1c0.2-0.1,0.3-0.2,0.4-0.3s0.2-0.3,0.3-0.5c0.1-0.2,0.1-0.4,0.1-0.6s0-0.4-0.1-0.6
		c-0.1-0.2-0.2-0.4-0.3-0.5c-0.1-0.1-0.3-0.3-0.4-0.3c-0.2-0.1-0.3-0.1-0.5-0.1h-2.3V376.6z"/>
	<path class="st2" d="M631,374.2c-0.1-0.1-0.2-0.2-0.3-0.3c-0.2-0.1-0.3-0.2-0.5-0.3s-0.4-0.2-0.7-0.2c-0.2-0.1-0.5-0.1-0.8-0.1
		c-0.5,0-0.9,0.1-1.2,0.3c-0.3,0.2-0.4,0.5-0.4,0.9c0,0.2,0,0.4,0.1,0.5c0.1,0.1,0.2,0.2,0.4,0.3c0.2,0.1,0.4,0.2,0.7,0.3
		c0.3,0.1,0.6,0.2,0.9,0.2c0.4,0.1,0.8,0.2,1.1,0.3c0.3,0.1,0.6,0.3,0.9,0.5c0.2,0.2,0.4,0.4,0.6,0.7s0.2,0.6,0.2,1
		c0,0.4-0.1,0.8-0.3,1.1c-0.2,0.3-0.4,0.6-0.7,0.8c-0.3,0.2-0.6,0.3-1,0.4s-0.8,0.1-1.2,0.1c-0.6,0-1.3-0.1-1.9-0.3
		c-0.6-0.2-1.2-0.5-1.6-0.9l0.6-1.2c0.1,0.1,0.3,0.2,0.4,0.3c0.2,0.1,0.4,0.2,0.7,0.4c0.3,0.1,0.5,0.2,0.9,0.3
		c0.3,0.1,0.6,0.1,1,0.1c0.5,0,0.9-0.1,1.2-0.3c0.3-0.2,0.4-0.5,0.4-0.8c0-0.2-0.1-0.4-0.2-0.5c-0.1-0.1-0.3-0.3-0.5-0.4
		c-0.2-0.1-0.4-0.2-0.7-0.3c-0.3-0.1-0.6-0.2-1-0.3c-0.4-0.1-0.8-0.2-1.1-0.4c-0.3-0.1-0.6-0.3-0.8-0.5s-0.4-0.4-0.5-0.6
		c-0.1-0.2-0.2-0.5-0.2-0.9c0-0.4,0.1-0.8,0.2-1.1c0.2-0.3,0.4-0.6,0.6-0.8c0.3-0.2,0.6-0.4,1-0.5s0.8-0.2,1.2-0.2
		c0.6,0,1.1,0.1,1.6,0.3c0.5,0.2,0.9,0.4,1.3,0.7L631,374.2z"/>
</g>
<g class="st1">
	<path class="st3" d="M122.5,259.4c0-17.1,5.6-32.1,28.6-32.1c16.7,0,24.5,8.5,24.5,22.1v12.2h-15.9v-8.5c0-7.8-2.7-12.7-9.8-12.7
		c-8.8,0-10.5,6.3-10.5,21v59.8c0,14.4,4.6,16.9,10,16.9c6.3,0,10.3-4.4,10.3-14.5v-8.5h15.9v13.5c0,12.8-5.2,22.6-24.8,22.6
		c-21.3,0-28.2-11.3-28.2-30.3V259.4z"/>
</g>
<g class="st1">
	<path class="st3" d="M180.9,228.3h15.9v44.3h0.3c1.2-2.7,3.2-4.7,5.6-6.1c2.5-1.4,5.4-2,8.1-2c7.9,0,14.9,4.2,14.9,16.7v69.1h-15.9
		v-66.1c0-4.4-1.2-7.6-6.1-7.6c-3.9,0-6.9,2.4-6.9,9v64.7h-15.9V228.3z"/>
</g>
<g class="st1">
	<path class="st3" d="M232.6,228.3h15.9v16.9h-15.9V228.3z M232.6,265.4h15.9v84.8h-15.9V265.4z"/>
</g>
<g class="st1">
	<path class="st3" d="M254.3,265.4h14.9v9.5h0.3c2.2-5.9,6.9-10.5,15-10.5c9.3,0,14.9,7.1,14.9,19.6v47.7c0,12.5-5.6,19.6-14.9,19.6
		c-5.7,0-11.5-2.5-14.4-5.7V381h-15.9V265.4z M270.2,331.2c0,6.3,3.2,9,6.4,9c4.2,0,6.9-2.4,6.9-12.2v-39.9c0-9.1-2.5-11.5-6.1-11.5
		c-4.4,0-7.3,3.4-7.3,13.9V331.2z"/>
</g>
<g class="st1">
	<path class="st3" d="M329,292.8v-8.1c0-6.6-1.4-9.1-5.6-9.1s-5.4,1.9-5.4,7.8c0,8.6,0.7,9.1,11.3,18.4
		c12.3,10.8,14.7,14.4,14.7,26.7c0,16.6-5.7,22.8-22.6,22.8c-12.2,0-18.9-5.1-18.9-17.4v-12h14.9v11.7c0,5.2,2.2,6.6,5.9,6.6
		c5.2,0,5.9-2.7,5.9-9.5c0-9.1-0.5-10.5-9.6-18.3l-3.5-3c-12.7-10.8-12.8-12.2-12.8-23.8c0-16.1,7.8-21.1,22-21.1
		c11.8,0,18.1,5.2,18.1,15.4v13H329z"/>
	<path class="st3" d="M470.2,284c0-12.5,5.6-19.6,14.9-19.6c2.5,0,5.4,0.5,7.9,1.7c2.5,1.2,4.7,3,6.1,5.4h0.3v-43.3h15.9v122h-14.9
		v-6.1h-0.3c-1.7,2.2-4.1,4.1-6.8,5.2c-2.5,1.2-5.4,1.9-8.3,1.9c-9.3,0-14.9-7.1-14.9-19.6V284z M486.1,329c0,9.8,2.7,12.2,6.9,12.2
		c3.2,0,6.4-2.7,6.4-9v-42.8c0-10.5-2.9-13.9-7.3-13.9c-3.5,0-6.1,2.4-6.1,11.5V329z"/>
	<path class="st3" d="M524.5,282.9c0-12.5,7.6-18.4,22.6-18.4c14.5,0,22.5,5.7,22.5,20.6v65.2h-14.9v-8.8c-1.9,1.9-2.9,3.5-4.6,5.2
		c-2.9,2.9-7.3,4.6-11.3,4.6c-9.5,0-15.5-2.9-15.5-23.2c0-17.1,1.4-21,5.7-25.5c3.7-3.9,6.4-5.2,24.7-5.2v-13.7
		c0-4.9-1.2-8.1-6.6-8.1c-4.4,0-6.8,1.9-6.8,7.1v7.8h-15.9V282.9z M548.7,308.5c-7.4,0-9.5,4.1-9.5,17.4c0,12.5,1.2,14.2,6.3,14.2
		c5.4,0,8.3-4.1,8.3-9.8v-21.8H548.7z"/>
	<path class="st3" d="M579.8,228.3h15.9v16.9h-15.9V228.3z M579.8,265.4h15.9v84.8h-15.9V265.4z"/>
	<path class="st3" d="M605.8,265.4h14.9v8.8h0.3c3.7-7.9,6.4-9.8,14.2-9.8v15.9c-7.9,0-13.5,2.2-13.5,11v59h-15.9V265.4z"/>
	<path class="st3" d="M633.7,265.4h16.9l10.5,61.3h0.3l10.6-61.3h15.9L660.4,381h-14.9l7.4-31.9L633.7,265.4z"/>
</g>
<g>
	<path class="st4" d="M418.3,240.9c0-19.6-37-19.2-47.2,0c-7,13.7-7.5,30.2,7.1,38.7c0,0-21.9,2.2-21.9,34.9
		c1.7,44.6,41.1,42.4,52.8,42.4c22.7-1,39.8-15.8,39.7-39.5c0,0,2.3-15.5-15.3-29.9l-2.3,4.1c0,0,8.1,4.2,10,15.1
		c1.3,7.7-1.5,15.6-6.9,21.2c-5.1,5.2-10.1,9.3-21.7,10.5c-9.1,1-18.2-1.8-24.8-8.1c-3.9-3.7-7-8.8-7.5-15.6
		c-0.1-1.1-0.2-2.2-0.4-3.3c-0.9-6.5-1.8-28.7,27.8-29.1c1.1,0,1.8-1.3,1.4-2.3c-0.8-1.7-1.8-3.7-2.4-3.5c0,0-15.7,5.7-21.2-0.6
		c-2.6-2.6-4.2-6-4.8-9.7c-0.7-4.3-1.9-19.8,7-22.4c3.2-1,17.4-4.2,22.1,2.3c2,2.9,2.8,8,1.9,11.4
		C410.6,261.4,418.3,251.4,418.3,240.9z"/>
	<path class="st4" d="M464.1,233.1l-7.7-11c-0.2-0.3-0.6-0.2-0.8,0.1l-23.2,52.5l2.8-43.1c0-0.3-0.2-0.5-0.5-0.5l-8.1,0.2
		c-0.2,0-0.4,0.2-0.4,0.5l1.4,53.8l-14.2,32.1l2.3,0.7L428,297l0.5,19.3l1.3-0.1l1.6-25.3l32.7-57.3
		C464.2,233.4,464.2,233.3,464.1,233.1z"/>
</g>
</svg>
