<?xml version="1.0" encoding="utf-8"?>
<!-- Generator: Adobe Illustrator 19.0.0, SVG Export Plug-In . SVG Version: 6.00 Build 0)  -->
<svg version="1.1" id="Layer_1" xmlns="http://www.w3.org/2000/svg" xmlns:xlink="http://www.w3.org/1999/xlink" x="0px" y="0px"
	 viewBox="0 0 537.9 589.3" style="enable-background:new 0 0 537.9 589.3;" xml:space="preserve">
<style type="text/css">
	.st0{fill:#24170B;}
	.st1{fill:#F7981D;}
	.st2{opacity:0.2;fill:#FFFFFF;}
	.st3{fill:#FFFFFF;}
	.st4{fill:#E2C5AC;}
	.st5{fill:#383A35;}
	.st6{fill:#D13239;}
</style>
<g>
	<path class="st0" d="M254.7,590.4c-25.3,1.3-49.4-2.6-73.1-9.8c-19.1-5.8-38.9-8.5-58.8-6c-13.3,1.7-19.5-3.6-21.2-16.1
		c-1.5-11.6-3.1-23.1-3-34.8c0.1-13.8,0.7-27.6-2.6-41.3c-1.4-5.5-1.3-11.5,0.9-16.6c3.5-7.9,2.3-15.1-1.2-22.3
		c-6-12.3-6.5-25-1.9-37.6c2.6-7.2,3.3-14.3,1.6-21.5c-3.2-13.5-1.1-26.5,3.2-39.4c5.1-15.5-0.3-23.8-16.8-24
		c-24.4-0.3-47.6-5.5-70.5-13.8c-9.4-3.4-11.3-8.1-11.1-16.9c0.9-33.1,9.6-64.5,19.4-95.7c3.2-10.2,6.4-20.4,7.5-31.3
		c1.8-18,8.5-34.5,16.2-50.9c4.3-9.2,5.6-19.7,8.8-29.5c8-24.9,23.8-40.1,50.6-45.6c31.5-6.4,62.1-16.9,90.3-32.9
		c8.9-5,16.4-5.8,26.4-1.4c36.9,16.4,74.9,13.3,112.5,2.5c7.7-2.2,13.5-2.5,20.2,2.2c17.1,12.1,37.4,17.1,56.5,24.5
		c5.2,2,10.4,4.2,15.8,5.5c42.8,10.3,63.7,38.7,68.9,81.1c1.6,13.5,8.2,26.8,9.9,39.5c5.7,44.3,25.4,84.4,34.1,127.6
		c1.8,9.1-0.6,14.9-9.7,17.8c-5.3,1.7-10.2,4.8-15.6,5.9c-25.5,5.3-49.3,16-74.1,23.4c-3.1,0.9-4.2,2.1-4.2,5.1
		c0.2,25.5,0.7,50.9-5,76c-0.4,1.8,0.8,4.2,1.8,6.1c4.5,8.5,5.9,19.1,2.4,26.4c-11.8,24.6-4.6,49.3-3.6,74.1c0.1,2.2,0,4.3,0,6.5
		c-0.2,21.8-0.1,22.2-21.1,25.9c-19.2,3.4-37.1,10.6-54.8,18.2C321.7,584.7,288.9,592,254.7,590.4z M203.5,47.6
		c-6.1-5-10.6-11.5-13.7-18.6c-3.1-7.1-6.5-6.9-12.9-4.2c-24.6,10.4-49.9,18.7-76.1,24.1c-17.7,3.6-28.6,14.3-35.9,30.3
		c-5.2,11.5-2.7,20.2,7.2,29.3c0.4-3.6,0.7-5.6,0.8-7.6c0.2-3.9,0.2-8.4,3.9-10.4c4.4-2.4,6.8,2.2,9.9,4.2
		c12.6,8.2,13.2,20.5,11,33.4c-8.3,49.3-3.5,98.5,5.9,146.6c14.2,72.9,41.6,141.1,86.6,201.2c-0.7,0.8-1.4,1.6-2.1,2.4
		c-7-5.9-12-13.5-17.1-21c-25.9-37.6-44-78.9-58.1-125.5c-3,11.3-6.8,19.5-7,27.9c-0.6,22.9-1.8,45.7-3.2,68.5
		c-0.9,15.5,2.8,32.1,3.6,48.3c1.2,24.6,0.9,49.9,5.2,74.7c1.5,8.9,4.6,11.6,13.1,11.5c21.3-0.2,42,3,62.5,9.1
		c55.6,16.6,109.9,12.8,163.2-10.1c19.8-8.5,39.8-16.6,61.5-19.5c4.6-0.6,8.5-1.5,8.7-7.4c0.4-16.7-0.6-33.1-5.9-50.4
		c-11.5,11.8-20.1,24.6-34.3,32c23.7-25.2,46.6-50.5,41.3-89c-17.8,28.9-33,59.5-54,86.6c28.9-53.7,66.9-104.2,54.3-170.8
		c-3.1,1.9-3,5.6-4.2,8.6c-15.2,38.4-26.5,78.4-45.1,115.4c-2.2,4.5-3.4,10.4-11.3,11.8c26.2-49,40.6-100.8,57.5-151.7
		c4.8-14.5,6.5-29.3,7.1-44.5c1.5-42.3,3-84.6,5.5-126.9c0.8-13.1,2.3-26.6,9.2-40.5c3,10.1-3.6,17.2-0.8,26.2
		c6.1-7,15.5-10.2,16.7-20.3c0.9-7.7-7.3-6.5-11.7-9.7c11.1-2.2,11.1-2.2,18.4,8.8c19.6-23.6,16-44.4-10.6-59.6
		c-4.8-2.8-9.9-5.3-15.1-7.3c-23.8-8.9-47.7-17.4-71.3-26.6c-6.1-2.4-8.3-0.5-11.1,4.3c-4.1,7.1-7.2,15.1-15.5,18.9
		c3-7,6.9-13.3,10.9-19.7c3.4-5.5,3.7-9.9-2.7-14.1c-6.5-4.2-8.4,0.9-11.2,4.3c-10.3,12.3-21.3,23.9-35.5,31.8
		C278,65.2,256.5,64,238.1,48.6c-10.6-8.9-20.1-19-27.4-30.9c-2.3-3.8-2.8-10.7-10.8-5.8c-6.8,4.2-9.4,8.3-4.8,15.5
		c3.7,5.8,7.1,11.8,10.6,17.7C204.9,46,204.2,46.8,203.5,47.6z M38.7,295c-8.4-2.4-13.6-4.3-19-5.4c-3.2-0.6-7.8-5.5-9.6,0.4
		c-1.4,4.6,4.1,5.8,7.5,7.2c21,8.4,42.3,14.9,65.3,12.9c5.3-0.5,10.3-0.6,14.3,3.9c2.2,2.4,5,6,8.5,3.2c2.6-2,0.8-5.7-0.1-8.5
		c-16.4-51.3-18-104.2-17.2-157.4c0.1-4.8,0.6-9-4.1-12.6c-10.6-8.1-19.6-17.8-27.7-29.7c-8.7,19.7-16.7,38.6-19.3,59.1
		c-1.1,8.6-3.5,16.8-6.1,25C23.7,217.4,17,241.9,12,266.8c-2.1,10.3,0.8,14,9.8,16.5C27.2,284.9,33.4,286.1,38.7,295z M463,132.4
		c-8.9,33.1-12.9,67.4-26.4,99.1c5.2-31.8,15.6-62.6,17.7-96.4c-14.6,11.1-20.5,24.4-20.7,40.9c-0.6,39.3,1,78.6-2.4,117.8
		c-0.5,5.2-3.5,12.9,1.4,15.6c6.1,3.3,13.3-0.4,19.4-4.1c4.8-2.9,8.1-7.3,11.2-13.6c2.5,17.6,2.6,18.4,8.2,17.4
		c17.8-3.1,35.3-7.6,52-14.8c3.3-1.4,5.5-3.4,4.2-8c-1.6-5.4-5.2-5.1-9.1-4.3c-4.6,1-9,3.1-13.6,4c-10.5,1.9-20.4,7.6-31.7,5
		c13.4-4.7,26.9-8.6,40.5-12.2c7.9-2.1,10.4-4.9,8.1-14.2c-8.6-34-26.3-65.7-26.6-101.8c0-1.2-0.7-2.6-1.6-3.5
		c-7.8-7.8-6.7-18.2-8.3-27.8c-1.3-8-2-16.1-6.2-23.8c-7.6,5.6-9.4,12.9-9.5,21.6c-0.6,50.1-1.6,100.2-2.7,150.2
		c-0.1,3.2,2.4,7.9-5,10.2C466,236.9,464.1,184.8,463,132.4z M215.9,13.8c9.6,24.4,30.5,25.1,49.2,25.5c22.3,0.5,47,4.8,64.5-19.9
		C290.4,24.4,253.2,29.4,215.9,13.8z M91.7,120.4c-0.3-3.5-0.1-7.5-1-11.2c-1.1-4.7-4.1-10.1-8.5-10.4c-6.8-0.5-2.9,6.5-4.4,9.9
		c-0.7,1.6-0.7,3.6-1.8,4.8c-2.5,2.8-8.2,4.2-2.4,9.2c4.7,4.2,8.9,10.9,15.5,9.7C92.8,131.7,90.7,124.8,91.7,120.4z M241.4,42.6
		c17.5,16.5,40.7,17.4,56.2,2.9C278.9,45.4,260.7,47.2,241.4,42.6z M460.9,305.8c-11.2,7.5-21.7,9.1-33,13.2
		C446.4,325.1,452.4,323,460.9,305.8z"/>
	<path class="st1" d="M190.1,475.8c-44.9-60.2-72.4-128.3-86.6-201.2c-9.4-48.1-14.2-97.3-5.9-146.6c2.2-12.9,1.6-25.2-11-33.4
		c-3.1-2-5.5-6.6-9.9-4.2c-3.7,2-3.8,6.5-3.9,10.4c-0.1,2-0.4,4.1-0.8,7.6c-9.9-9-12.4-17.7-7.2-29.3c7.3-16,18.3-26.7,35.9-30.3
		c26.2-5.4,51.5-13.7,76.1-24.1c6.4-2.7,9.8-2.8,12.9,4.2c3.1,7.1,7.5,13.6,13.7,18.6c2.2,2.1,4.3,4.1,6.5,6.2
		c0.8,0.9,1.7,1.8,2.5,2.6c0.9,0.8,1.8,1.7,2.7,2.5c28,30.7,82.3,31.9,114.8,2.5c1.3-0.7,3-1.5,1.4-3.2c-0.3-0.3-1.9,0.5-2.8,0.7
		c-42.2,29.7-78.7,23.7-111.7-2.4c-0.9-0.8-1.8-1.7-2.6-2.5c-0.7-0.7-1.3-1.3-2-2c-2.2-2.3-4.4-4.6-6.7-6.9
		c-3.5-5.9-6.9-11.9-10.6-17.7c-4.6-7.2-1.9-11.3,4.8-15.5c8-5,8.5,2,10.8,5.8c7.3,12,16.7,22,27.4,30.9
		c18.4,15.4,39.9,16.6,62.6,3.9c14.2-8,25.2-19.5,35.5-31.8c2.8-3.4,4.7-8.5,11.2-4.3c6.4,4.2,6.1,8.6,2.7,14.1
		c-3.9,6.3-7.9,12.7-10.9,19.7c8.4-3.8,11.5-11.9,15.5-18.9c2.8-4.9,5-6.7,11.1-4.3c23.6,9.3,47.6,17.7,71.3,26.6
		c5.2,2,10.3,4.5,15.1,7.3c26.5,15.2,30.2,36.1,10.6,59.6c-7.3-11-7.3-11-18.4-8.8c4.5,3.2,12.6,1.9,11.7,9.7
		c-1.2,10.1-10.6,13.4-16.7,20.3c-2.8-8.9,3.8-16,0.8-26.2c-6.9,14-8.5,27.5-9.2,40.5c-2.5,42.3-4,84.6-5.5,126.9
		c-0.5,15.2-2.3,30-7.1,44.5c-16.9,50.9-31.3,102.8-57.5,151.7c7.8-1.4,9-7.4,11.3-11.8c18.6-37.1,29.9-77,45.1-115.4
		c1.2-3,1.1-6.7,4.2-8.6c12.7,66.6-25.4,117.1-54.3,170.8c21-27.2,36.2-57.7,54-86.6c5.3,38.4-17.6,63.8-41.3,89
		c14.1-7.4,22.7-20.2,34.3-32c5.3,17.3,6.4,33.7,5.9,50.4c-0.2,5.9-4.1,6.8-8.7,7.4c-21.6,2.8-41.7,10.9-61.5,19.5
		c-53.2,23-107.6,26.8-163.2,10.1c-20.5-6.1-41.2-9.3-62.5-9.1c-8.5,0.1-11.6-2.6-13.1-11.5c-4.2-24.7-3.9-50-5.2-74.7
		c-0.8-16.3-4.5-32.8-3.6-48.3c1.3-22.8,2.5-45.6,3.2-68.5c0.2-8.3,4-16.6,7-27.9c14.1,46.6,32.2,87.9,58.1,125.5
		c5.1,7.5,10.1,15.1,17.1,21c1.3,1.2,2.7,2.3,4,3.5c0.7,0.5,1.4,0.9,2.1,1.4c-0.1-1-0.3-1.9-0.4-2.9
		C192.5,478.8,191.3,477.3,190.1,475.8z M142.4,336.6c11.1,49.6,112,165.7,145.3,166.4C223.4,459.7,178.6,401.9,142.4,336.6z
		 M112.8,493c31.5,17.2,62.9,34.5,98.3,41.9C178.4,520.6,145.7,506.5,112.8,493z"/>
	<path id="XMLID_67_" class="st1" d="M38.7,295c-5.2-8.9-11.4-10.1-16.9-11.6c-9-2.5-11.8-6.3-9.8-16.5c5-25,11.7-49.4,19.3-73.6
		c2.6-8.2,5-16.4,6.1-25c2.6-20.6,10.6-39.4,19.3-59.1c8,11.9,17.1,21.6,27.7,29.7c4.7,3.6,4.2,7.8,4.1,12.6
		c-0.8,53.2,0.8,106.1,17.2,157.4c0.9,2.8,2.6,6.5,0.1,8.5c-3.5,2.7-6.4-0.8-8.5-3.2c-4-4.5-9-4.4-14.3-3.9
		c-23,2-44.3-4.5-65.3-12.9c-3.4-1.4-8.9-2.6-7.5-7.2c1.8-5.9,6.4-1,9.6-0.4C25,290.7,30.2,292.5,38.7,295z"/>
	<path id="XMLID_66_" class="st1" d="M463,132.4c1,52.4,3,104.5-0.9,157.4c7.4-2.3,5-7,5-10.2c1.1-50.1,2-100.2,2.7-150.2
		c0.1-8.7,1.9-16,9.5-21.6c4.2,7.6,4.8,15.8,6.2,23.8c1.6,9.6,0.5,20,8.3,27.8c0.9,0.9,1.6,2.3,1.6,3.5c0.3,36.1,18,67.8,26.6,101.8
		c2.3,9.3-0.2,12.2-8.1,14.2c-13.6,3.5-27.2,7.5-40.5,12.2c11.3,2.6,21.2-3,31.7-5c4.6-0.9,9-3,13.6-4c3.8-0.8,7.5-1.2,9.1,4.3
		c1.3,4.6-0.9,6.6-4.2,8c-16.7,7.2-34.2,11.7-52,14.8c-5.6,1-5.7,0.2-8.2-17.4c-3,6.3-6.3,10.7-11.2,13.6
		c-6.1,3.7-13.3,7.4-19.4,4.1c-4.9-2.7-1.9-10.3-1.4-15.6c3.4-39.2,1.8-78.5,2.4-117.8c0.3-16.6,6.1-29.8,20.7-40.9
		c-2.1,33.8-12.6,64.6-17.7,96.4C450.2,199.7,454.1,165.5,463,132.4z"/>
	<path id="XMLID_65_" class="st1" d="M215.9,13.8c37.3,15.6,74.5,10.6,113.7,5.6c-17.4,24.7-42.2,20.4-64.5,19.9
		C246.3,38.9,225.5,38.2,215.9,13.8z"/>
	<path id="XMLID_64_" class="st1" d="M91.7,120.4c-1,4.4,1.1,11.3-2.6,12c-6.7,1.1-10.8-5.6-15.5-9.7c-5.7-5,0-6.5,2.4-9.2
		c1.1-1.2,1.1-3.2,1.8-4.8c1.5-3.4-2.4-10.3,4.4-9.9c4.5,0.3,7.4,5.7,8.5,10.4C91.6,112.9,91.4,116.9,91.7,120.4z"/>
	<path id="XMLID_63_" class="st1" d="M241.4,42.6c19.3,4.6,37.5,2.8,56.2,2.9C282.1,60,258.9,59.1,241.4,42.6z"/>
	<path id="XMLID_62_" class="st1" d="M460.9,305.8c-8.5,17.2-14.5,19.4-33,13.2C439.1,314.9,449.7,313.3,460.9,305.8z"/>
	<path id="XMLID_61_" class="st0" d="M142.4,336.6c36.2,65.4,81,123.1,145.3,166.4C254.4,502.3,153.5,386.1,142.4,336.6z"/>
	<path id="XMLID_60_" class="st0" d="M112.8,493c32.9,13.5,65.6,27.6,98.3,41.9C175.7,527.5,144.3,510.3,112.8,493z"/>
	<path id="XMLID_59_" class="st0" d="M330,61.5c-32.5,29.4-86.8,28.2-114.8-2.5c0.6-0.8,1.2-1.6,1.8-2.4
		c33,26.1,69.5,32.1,111.7,2.4C329,59.8,329.5,60.7,330,61.5z"/>
	<path id="XMLID_58_" class="st0" d="M210,53.8c-2.2-2.1-4.3-4.1-6.5-6.2c0.7-0.8,1.4-1.6,2.2-2.5c2.2,2.3,4.4,4.6,6.7,6.9
		C211.5,52.7,210.8,53.3,210,53.8z"/>
	<path id="XMLID_57_" class="st0" d="M190.1,475.8c1.2,1.5,2.4,2.9,3.6,4.4c-0.6,0.4-1.2,0.9-1.7,1.5c-1.3-1.2-2.7-2.3-4-3.5
		C188.7,477.5,189.4,476.7,190.1,475.8z"/>
	<path id="XMLID_56_" class="st0" d="M328.6,59c1-0.3,2.6-1.1,2.8-0.7c1.5,1.8-0.1,2.5-1.4,3.2C329.5,60.7,329,59.8,328.6,59z"/>
	<path id="XMLID_55_" class="st0" d="M214.3,54.1c0.9,0.9,1.8,1.7,2.6,2.5c-0.6,0.8-1.2,1.6-1.8,2.4c-0.9-0.8-1.8-1.7-2.7-2.5
		C213.1,55.7,213.7,54.9,214.3,54.1z"/>
	<path id="XMLID_54_" class="st0" d="M212.3,52.1c0.7,0.7,1.3,1.3,2,2c-0.6,0.8-1.2,1.6-1.8,2.4c-0.8-0.9-1.7-1.8-2.5-2.6
		C210.8,53.3,211.5,52.7,212.3,52.1z"/>
	<path id="XMLID_53_" class="st0" d="M193.7,480.3c0.1,1,0.3,1.9,0.4,2.9c-0.7-0.5-1.4-0.9-2.1-1.4
		C192.5,481.2,193,480.7,193.7,480.3z"/>
</g>
<g>
	<g id="XMLID_391_">
		<g id="XMLID_450_">
			<path id="XMLID_452_" class="st2" d="M352.8,416.3"/>
			<path id="XMLID_451_" class="st3" d="M350.2,418.8"/>
		</g>
		<path id="XMLID_449_" class="st4" d="M209.4,258.2c-1.6-2.1-3.6-3.8-5.9-5c-10.7-5.7-24-1.2-31.1,6c-5.7,5.7-7.2,12.7-3.9,18.5
			l0.1,0.2l0.1-0.2c3-5.9,19.4-20.4,40.5-19.3l0.3,0L209.4,258.2z"/>
		<path id="XMLID_448_" class="st4" d="M210.6,259.9L210.6,259.9L210.6,259.9c-6-1.8-15.5,0.4-25.7,5.9c-8.2,4.4-14.3,9.8-15.4,13.4
			l0,0.1l0.1,0.1c0,0,3,3.7,8.7,6.2c1.9,0.8,4.2,1.6,6.9,2c4.8,0.7,10.9,0.3,18.1-2.9l0,0c4.6-2.4,7.8-6.1,9.1-10.7
			C213.7,269.4,213.1,264.3,210.6,259.9z"/>
		<path id="XMLID_447_" class="st4" d="M292.7,227.1c-1.3-2.1-3-3.8-5.1-5.1c-9.5-6.1-22.2-2.8-29.4,3.3c-5.7,4.9-7.6,11.3-5,16.9
			l0.1,0.3l0.1-0.2c3.2-5.3,19.5-17.5,39-15l0.3,0L292.7,227.1z"/>
		<path id="XMLID_446_" class="st4" d="M293.7,228.8L293.7,228.8L293.7,228.8c-5.4-2.1-14.5-0.7-24.3,3.6c-7.9,3.5-14,8.1-15.3,11.3
			l0,0.1l0.1,0.1c0,0,2.6,3.7,7.6,6.4c2.1,1.1,4.9,2.2,8.3,2.7c4.1,0.6,9.1,0.3,15.1-1.7l0,0c4.5-1.9,7.7-5.1,9.2-9.3
			C295.9,237.8,295.7,233,293.7,228.8z"/>
		<path id="XMLID_436_" class="st4" d="M327,231.8L327,231.8c-0.4-1-1-1.9-1.9-2.5c0,0,0,0,0,0c-2.3-1.7-4.2-2.3-5.9-1.7
			c-1.9,0.7-2.9,2.8-3.2,3.8c-1.3-1.6-2.7-3.2-4.1-4.7l-0.5-0.6l0,0.8c0,0.4,0,0.8,0,1.1c-0.2-0.3-0.3-0.7-0.3-1.1c0-0.3,0-0.6,0-1
			l0-0.1l-0.1-0.1c-5.4-5.5-11.6-10.2-18.5-14l-0.7-0.4l0.3,0.7c0.2,0.5,0.3,1,0.5,1.4c0,0,0,0-0.1,0c0,0,0,0,0,0
			c-0.1-0.6-0.4-1.5-0.7-2.1l0-0.1l-0.1,0c-8.8-4.6-18.6-7.8-29.2-9.4l-0.7-0.1l0.4,0.6c0.9,1.2,1.5,2.1,1.8,2.5
			c-0.6-0.9-1.4-1.9-2.5-3l-0.1-0.1l-0.1,0c-9.1-1.3-18.6-1.4-28.2-0.3l-0.5,0.1l0.3,0.4c1.6,2,3.2,4.3,3.5,4.7
			c-1.2-1.8-3.3-3.9-4.4-5l-0.1-0.1l-0.1,0c-10.5,1.3-20.7,4-30.3,8l-0.6,0.2l0.6,0.3c3.9,2,6,5.6,6.5,6.6c0,0.1,0,0.1,0,0.2
			c-0.1,0-0.2-0.1-0.3-0.2c-3.5-4.4-5.3-5.8-7.2-6.6l-0.1,0l-0.1,0c-2.4,1-4.8,2.2-7,3.3c-7.5,4.4-14.3,9.3-20.4,14.5l-0.4,0.3
			l0.4,0.2c0.1,0,0.2,0.1,0.4,0.2c0.7,0.3,1.5,0.6,2.1,0.9c-0.8-0.4-1.7-0.8-2.8-1.2l-0.2-0.1l-0.1,0.1
			c-8.3,7.2-15.4,15.2-20.9,23.8l-0.3,0.4l0.5,0c0.4,0,0.7,0.1,1.1,0.1c2.8,0.5,5.7,1.7,6.6,2.5c0,0,0,0,0,0c-0.1,0-0.1-0.1-0.2-0.1
			c-0.6-0.4-1.6-1.3-7.1-2.2c-0.3,0-0.5-0.1-0.8-0.1l-0.2,0l-0.1,0.2c-4.4,7-7.8,14.3-10.2,21.9l-0.1,0.4l0.4,0c0.3,0,0.5,0,0.8-0.1
			c5.3-0.2,7.3,1.9,7.7,2.6c0.2,0.2,0.3,0.4,0.3,0.6c-0.9-0.8-3.5-3-7.5-2.9c-0.6,0-1.2,0.1-1.7,0.1l-0.2,0l-0.1,0.2
			c-2.9,9.6-3.4,17.3-3.5,21l0,0.3l0.3,0c0.6,0,1.3,0,1.9,0.1c-0.5-0.1-1-0.1-1.6,0c-0.1,0-0.2,0-0.3,0l-0.3,0l0,0.3
			c0,1.7,0.1,2.7,0.1,2.7l0,0.3c-1.2,0.2-2.2,0.6-3.1,1.2c-2.1,1.3-2.5,3.1-2.5,3.2l0,0l0,0c-0.2,1.9,0.3,3.5,1.5,4.9
			c1.8,2.1,4.5,3,5.4,3c4.5,1.5,7.9-1.3,8.7-2.2c2.2,2,4.8,3.8,7.7,5.6c8,4.5,19.3,8.3,31.1,10c8.8,1.3,17.8,1.3,25.9-0.4
			c25.5-3.4,47.2-10.7,64.6-21.5l0.2-0.1l-0.1-0.2c-1.7-3.5-2.2-9.3-2.3-11.2l0-0.2l-0.3,0l-0.1-0.2c-0.7,0.3-6.6,2.9-10.8-4.2
			c-2.4-4.1-6.5-6.9-6.7-7l-0.1-0.1l-0.2,0.1c-0.8,0.4-1.5,1.8-2.1,3.1c-0.1,0.1-0.1,0.3-0.1,0.3c-0.1,0.1-0.3,0.4-0.4,0.6
			c0-0.1,0-0.3,0.1-0.6c0.5-2,2.3-3.4,2.3-3.5l0.3-0.2l-0.3-0.2c-6-4.7-9.8-2.7-10-2.6l-0.1,0l0,0.1c-2.8,3.8-8.7,2.6-8.7,2.5
			l-0.3-0.1l0,0.3c0,0.4-0.3,0.8-0.4,0.9c0,0,0,0,0,0c0,0,0-0.1,0.1-0.3c0.2-0.4,0.3-1,0.4-1.5c0-0.2,0.1-0.5,0.1-0.7
			c0.1,0.1,0.1,0.4,0.1,0.5l0,0.2l0.2,0c0.2,0,5.7,1.1,7.6-1.6c1.8-2.5,7.6-8.7,11-9c2.2-0.2,3.5-0.7,4.1-1.5
			c0.4-0.6,0.5-1.3,0.2-2.2c-0.4-1.6-3.9-2.1-6.1-2.5c-0.5-0.1-1.1-0.2-1.4-0.2c0.1,0,0.2-0.1,0.3-0.1c6.5,0.4,7.4,2.7,7.4,3
			l-0.1,0.6l0.5-0.3c4.2-2.7,8.5-0.1,8.6-0.1l0.1,0.1l0.1,0c5.2-1.1,7.1,1.9,7.1,2.1l0.1,0.1l0.1,0c5,1,8.5,3.1,10.2,6
			c2.1,3.5,0.9,7.2,0.9,7.2l-0.1,0.3l0.2,0.1c0,0,2.4,1.1,7.2,6.9l0.2,0.2l0.2-0.2c11.9-11.9,18-24.2,21.1-32.4
			c3-7.9,3.7-13.7,3.8-15c3.3-0.4,5.5-1.5,6.6-3.3C328.2,236.2,327.7,233.6,327,231.8z M245.6,249.2c-0.3-0.4-0.6-0.8-1.1-1.1
			c1.3,0.7,2.2,1.5,2.2,2.5c0,1.9-0.3,3-0.5,3.8c-0.2,0.7-0.4,1.3-0.3,2.2c0,0.1,0,0.2,0,0.3c0.1,0.8,0.1,1.3,0.1,1.5
			c-0.3-0.3-0.9-1.3-0.5-3.3l0-0.1C246.1,253.1,246.7,250.8,245.6,249.2z M243,247.4c-0.4-0.1-0.8-0.2-1.3-0.3c0,0-4.4-0.7-6.5-1.6
			c0.2,0,0.5,0,1.1,0.2c0.3,0.1,0.7,0.2,1.3,0.3C238.9,246.3,241.1,246.7,243,247.4z M279.4,213.6c-0.2,0.1-0.8,0-1-0.3
			c-0.5-0.7-4-1.4-8.1-1.3c-3.9,0-9.7,0.7-15.6,3.7c0,0-0.1,0-0.1,0c0-0.1,0.1-0.3,0.5-0.7c1.1-1.1,10.8-4.5,19-3.3
			c1.4,0.2,2.8,0.5,4.1,1.1C279.1,213.3,279.4,213.5,279.4,213.6z M256.3,225.9c3.9-3.8,9.3-6.5,15.1-7.5c2.9-0.5,5.7-0.6,8.3-0.2
			c3.2,0.5,6.1,1.5,8.7,3.2c5.4,3.4,8.6,9.8,8,16.3c-0.5,6.4-4.4,11.7-10.7,14.3c-11.4,3.9-19.7,1.6-24.6-1c-5.3-2.8-8-6.7-8-6.7
			C249.4,238.3,250.6,231.6,256.3,225.9z M172.3,251.7c0.7-1.1,7.5-8.6,13.4-9.9l0.1,0c1.2-0.5,1.8-0.5,1.9-0.4c0,0-0.1,0.1-0.1,0.1
			c-0.1,0-0.3,0.2-0.6,0.3c-2.5,1.1-10.1,4.6-14.7,10.3c0,0-0.1,0-0.1,0C172.1,252,172.2,251.9,172.3,251.7L172.3,251.7z M204,285.4
			c-11.9,5.1-20.9,3.4-26.4,1c-6-2.6-9.1-6.5-9.2-6.5c-4.5-6.1-3.8-13.4,1.9-19.9c3.8-4.4,9.5-7.8,15.5-9.3c3.7-1,7.4-1.2,10.9-0.7
			c2.7,0.4,5.3,1.2,7.6,2.5c6.1,3.2,10,9.7,10,16.8C214.2,276.2,210.5,282.1,204,285.4z M179.1,232.2
			C179.1,232.2,179.1,232.2,179.1,232.2c-0.1,0-0.1-0.1-0.3-0.2c-0.1-0.1-0.2-0.3-0.4-0.5C178.7,231.7,179,232,179.1,232.2z
			 M137.3,300.3c1.1-0.3,2.3-0.3,3.4-0.2c0.3,0,0.7,0.1,1,0.2c-1.7-0.2-3.2-0.2-4.5,0.1L137.3,300.3z"/>
		<g id="XMLID_432_">
			<path id="XMLID_435_" class="st4" d="M265.9,274.4L265.9,274.4c0.3,3.3,1.4,4.9,3.6,5.2c0,0,0,0,0,0l0.2,0l-0.1-0.2
				c-0.8-2.5-0.6-6.4,2.7-9.3c0,0,1.1-1.1,3.4-1.7l0.2-0.1l-0.1-0.2c-0.5-0.6-1.4-1.4-2.9-1.9c-0.3,0-2.8-0.4-4.8,1.3
				C266.7,269,265.9,271.3,265.9,274.4z"/>
			<path id="XMLID_434_" class="st4" d="M304.6,308.5c-1.2-8.7-7-17.6-17-26.6l-0.3-0.2c0.2-0.7,0.9-4.2-1.2-7.5
				c-1.5-2.4-4.2-4.1-8-5.1l-1-0.2c-0.3-0.1-2.5,0.2-3.6,1c-1.5,0.9-3.4,2.8-3.6,6.8c0,2.7,1.4,4.5,3.5,4.9c0,0,0,0,0,0
				c2,0.3,3.9-0.8,4.4-2.4c1-3,0.3-4.3,0.1-4.6c0-0.1,0-0.1,0-0.1c0,0,0.1-0.1,0.6,0.3c0.4,0.4,0.6,3.6-0.5,6
				c-0.6,1.3-1.7,2.8-3.8,2.7c-1.7,0-3.3-1-4.2-2.8l0-0.1l-0.1,0c-1.1,0-3.2-0.2-4.3-1.9l-0.1-0.1l-0.1,0.1c0,0-1.9,1.6-5.9-0.6
				c-2.8-1.6-2.8-3.8-2.5-5c0.1,1.4,0.7,4.2,3.8,5.5c0.7,0.3,1.4,0.5,1.9,0.6c0.7,0.1,1.3,0,1.8-0.3c0.6-0.4,0.7-1.1,0.7-1.1l0-0.1
				c0-0.1-3-7.7,2.8-11.3l0.2-0.1l-0.2-0.1c-1-0.5-3.8-1.5-7.8,0.1l0,0l0.1,0c0.2-0.1-0.1,0.1-0.1,0.1l0,0.1c0,0-0.3,2.5-1.9,3l0,0
				l0,0c0,0-1,1.1-1.1,2.3c-0.5-0.6-1.8-1.8-3-1.5c0,0-4.7,1.9-8.2,6.9l-0.2,0.3l0.3-0.1c0,0,2.1-0.3,5,0.6
				c2.7,0.8,6.7,2.9,10.3,7.9c0,0.1,2.6,5,8.1,5.8c1.4,0.2,3,0.1,4.8-0.4c0,1.5,0.2,10.2,3.7,14.6c0.2,0.3,0.4,0.5,0.6,0.8
				c0.9,0.9,1.7,2,2.5,3.1c1.5,2,3.5,4.9,3.9,8.2l0,0.1l0.1,0c3.4,1.1,6.4,2.4,9.1,4c2.2,1.2,4.2,2.6,6,4.1l0.1,0.1l0.1-0.1
				C302.9,322.5,305.8,316.4,304.6,308.5z"/>
			<path id="XMLID_433_" class="st4" d="M287.8,282c0,0,0.2,0.1,0.7,0.4l0.2-0.2c-0.2-0.2-0.4-0.4-0.6-0.6l-0.2-0.2l-0.1,0.2
				c0,0.1,0,0.1,0,0.2l0,0.1L287.8,282L287.8,282z"/>
		</g>
		<path id="XMLID_431_" class="st4" d="M360.7,403.9c0,0-3.6-2.5-7.5-0.2c-0.4-1.2-3.4-7.9-14.8-14.4c0.4-0.1,1.4-0.1,2.7,1l0.2,0.2
			l0-0.2c0.1-0.4,1.7-9.8,0-20c-1-6-2.9-11-5.7-14.9c-3.5-4.8-8.4-7.9-14.6-9.1c-5.1-0.9-10.8,0.1-16.1,2.9
			c-4.9,2.6-8.8,6.3-10.8,10.4c0.2-2.1,2-8.9,15.3-14.9l0.1-0.1l0-0.1c0-0.2-1-5.1-4.7-10.8c-3.4-5.2-9.7-11.9-21-14.7
			c0-0.5-0.1-2.2-1-4.6c-0.9-2.4-2.9-6-6.9-9.1l0.2,0l-0.5-0.4l-0.2,0.1c-8.8,6.8-36.1,17.4-54.2,19.8l-0.2,0l-0.2,0.5l0.2,0
			c-1.3,3.9-3.5,17.4,14.1,39.8c0.4,0.5,8.7,12.3,13.5,13.2c0,0.3,0.1,0.8,0.4,1.3c0.3,0.4,0.8,0.6,1.4,0.7
			c-0.1,0.5-0.2,1.9-0.2,3.2c0,3.4,0.9,9.7,6.5,13.8c0.1,0.1,5.8,5,10.8-0.1l0.2-0.2l-0.2-0.1c-0.1,0-2.9-0.8-3.5-3.4
			c0.7,1,2.4,2.9,4.7,3c2.1,0.1,4.2-1.5,6.2-4.6l0.2-0.2l-0.3,0c0,0-1.9,0.2-3-0.8c-0.4-0.3-0.6-0.7-0.7-1.2c0.6,0.5,2,1.5,3.7,1.5
			c1.2,0,2.3-0.5,3.3-1.5c2.5-2.6,1.8-5.3,1.5-6.1c-0.4-1.1-1.2-1.9-1.9-1.9l-0.1,0l0,0.1c0,0-1.5,1.7-5.2-0.3l-0.1,0.2
			c0,0,0.4,0.3,0,1.2c0-0.3-0.1-0.6-0.3-0.8l-0.1-0.1l-0.6,0.7l-0.2-0.5c0.3-0.2,0.9-1,0.2-3.9l0.7-0.4c0.1,0.2,0.4,0.8,0.1,2.3l0,0
			l0,0c0,0,0.2,0.9,1.2,1.4c0.9,0.5,2.3,0.6,3.9,0.1l0,0c0.1-0.1,1.5-1.3,1.6-3.2c0-1.4-0.8-2.9-2.4-4.2c0,0-0.2-0.2-0.3-0.4
			c-0.8-0.9-2.7-3.1-4-3.1c-1.1,0-4-1.4-6.4-6.3c0-0.1-1.4-5.2-2.7-7.7c-0.1-0.1-5.1-9.1-12.6-16.9c1.1,1,2.3,2.2,3.6,3.5
			c4,4.2,9.3,10.6,11.7,17.6c0,0.1,1.3,6.6,7.1,9c3.8,1.6,6,4.9,6.4,7.4c0.3,1.6,0,3-0.9,3.8l-0.2,0.2l0.2,0.1c0,0,2.5,0.9,3.1,3
			c0.4,1.6-0.2,3.4-1.9,5.5l0,0.1l0,0.1c0,0.1,2.7,12.2,13.1,10.3c0.4-0.1,0.7-0.1,1-0.2c2.5-0.3,15.2-2.4,17.5-18.3l0.1-0.5
			l-0.3,0.3c-0.2-0.1-0.7-0.5-1.4-1.6c-1.2-1.8-3.6-6.6-2.3-13.6c0,3.9,0.9,12.3,6.7,14.9c7,3,6.7,7,6.5,9.7l0,0.4l0.3-0.3
			c0.2-0.2,5.5-5,11.7-1.3c-2.5-0.7-9-1.7-12.2,3.7c0,0-2,4.2,0,7.9c1.5,2.8,4.7,4.5,9.7,5.3c0.1,0,10.1,1.8,13.6,10
			c0,0.4-0.1,3.8,1.6,5.5c0.5,0.5,1.1,0.8,1.8,0.9c0.3,0,0.6,0.1,1,0c0.1,0,1.9,0,2.7-1.2c0.4-0.6,0.5-1.3,0.3-2.2
			c0.4,0.5,0.8,0.9,1.4,1c0.6,0.2,1.3,0.1,1.9-0.3c0.1,0,1.3-0.8,1.3-1.9c0-0.6-0.3-1.1-1-1.6c1.6,0.3,2.9-0.3,3.5-1.3
			c0.5-0.9,0.5-2.2-0.7-3.5c1.4,0.6,2.9,0.9,4-0.1c0.1-0.1,0.2-0.2,0.3-0.3C362,410.7,364.3,407.2,360.7,403.9z"/>
		<circle id="XMLID_430_" class="st5" cx="376.3" cy="108.4" r="2.9"/>
		<path id="XMLID_420_" class="st5" d="M327.1,229.5c-6.3-8.1-11.7-0.4-11.7-0.4c-1.3-1.6-2.6-3.1-3.9-4.6c-0.3-2.1-1-4.2-2.5-4.7
			c-0.9-0.3-1.7,0.3-1.8,0.4c-5-4.7-10.6-8.5-16.5-11.6c-1-1.6-2-2.7-2.6-3.2c-0.6-0.5-1.4-0.8-2.2-0.7c-0.9,0.1-1.2,0.6-1.3,1.1
			c-7.7-3.3-16-5.3-24.5-6.3c-0.8-1-1.6-1.8-2.3-2.4c-0.7-0.6-1.5-0.9-2.4-0.7c-0.9,0.1-1.9,0.7-1.8,2.6c-7.3-0.4-14.8,0-22.1,1
			c-0.4-0.4-0.8-0.8-1.1-1.1c-0.7-0.6-1.5-0.9-2.4-0.7c-0.9,0.1-1.9,0.7-1.8,2.6c0,0.1,0,0.1,0,0.2c-9.1,1.7-18.1,4.5-26.6,8.3
			c-1.2-0.4-2.4-0.6-3.9-0.6c-1.7-0.1-2.1,1.9-1.3,3c-0.7,0.3-1.4,0.7-2.1,1.1c-8.2,4.8-15.1,9.9-21.1,15c-5.3-1.8-4,1.6-3.3,3
			c-7.7,7.2-13.6,14.6-18,21.7c-4.3,0-2.8,2.4-2,3.4c-3.9,6.9-6.5,13.5-8.2,19.4c-4.1,0.8-1.9,3.9-1.1,4c0,0,0,0,0.1,0
			c-1.8,7.8-2.1,14.1-2,17.7c-1.3,0.1-2.4,0.5-3.1,1c-1.1,0.9,0.1,2.7,0.5,2.9c0.2,0.1,0.3,0,0.3-0.1c0-0.1,0-0.2-0.1-0.3
			c-0.7-0.6-1.2-2.4,2.4-2.8c0.1,1.8,0.2,2.7,0.2,2.7c-2.5,0.3-4.9,2-5.5,4.3c-0.6,3.1,0.5,5.2,3.4,7c7.8,4.5,12-0.5,12-0.5
			c10.2,10.2,39,20.4,62.7,16.1c1.1-0.2,2.1-0.4,3.2-0.5c28.1-4,49-12.1,64.5-21.7c-0.2-0.4-0.4-0.8-0.6-1.2
			c-15.5,9.8-36.6,18-65.2,21.9c-23.5,5-54.5-5.1-64.7-15.3c0,0-3.5,4-8.6,2.3c-1.1-0.1-7.2-2.1-6.6-7.6c0,0,1.4-6.4,13.3-3.6
			c0,0-4.3-2.3-7.8-1.2c0,0-0.1-0.9-0.1-2.7c0.1,0,0.2,0,0.3,0c4.5-0.3,6.6,2.8,6.7,3c0.1,0.2,0.8,0.7,0.4-0.1
			c-0.4-0.8-1.2-2-3.9-3.1c-1.1-0.4-2.3-0.6-3.5-0.5c0.1-4.1,0.6-11.6,3.5-20.9c0.5-0.1,1-0.1,1.7-0.1c4.8-0.1,7.6,3.1,7.6,3.1
			c1,0.1-0.7-4.2-8.2-3.9c-0.3,0-0.5,0-0.8,0.1c2.1-6.6,5.3-14.1,10.2-21.8c0.3,0,0.5,0.1,0.8,0.1c6.8,1.2,6.7,2.2,7.3,2.4
			c0.6,0.2,0.3-0.5,0.3-0.5c-0.9-0.8-3.7-2.1-6.8-2.6c-0.4-0.1-0.8-0.1-1.1-0.1c5-7.8,11.8-15.9,20.8-23.7c6.2,2.3,6.1,3.7,6.7,4
			c0.6,0.3,0.4-0.5,0.4-0.5c-0.7-1-3.3-2.8-6.2-3.8c-0.1-0.1-0.2-0.1-0.4-0.2c5.8-5,12.6-9.8,20.4-14.5c2.3-1.2,4.6-2.3,7-3.3
			c1.8,0.8,3.6,2,7.1,6.5c0.3,0.4,0.5,0.4,0.7,0.3c0.2-0.1,0.2-0.3,0.1-0.5c-0.5-0.9-2.6-4.7-6.6-6.8c9.5-4,19.7-6.7,30.2-8
			c1.1,1,3.2,3.1,4.4,4.9c0.1,0.2,0.5,0.2,0.5-0.1c0-0.1,0-0.2,0-0.3c-0.4-0.5-1.9-2.7-3.5-4.7c9.4-1.1,18.9-1,28.1,0.3
			c0.9,0.9,1.8,2,2.5,3c0.1,0.2,0.5,0.2,0.5-0.1c0-0.1,0-0.2,0-0.3c-0.2-0.3-0.9-1.3-1.8-2.5c10.2,1.6,20.1,4.7,29.1,9.4
			c0.4,0.8,0.7,1.6,0.7,2.1c0.2,0.5,0.8,0.2,0.7,0c-0.2-0.5-0.3-1.1-0.5-1.5c6.7,3.7,13,8.3,18.5,13.9c0,0.3,0,0.6,0,1
			c0,0.7,0.4,1.5,0.8,1.9c0,0,0.1-0.8,0-2c1.5,1.6,3,3.3,4.4,5.1c0,0,1.8-7.9,8.8-2.5c0.8,0.6,1.4,1.4,1.8,2.4c1,2.7,2,8.5-6.7,9.5
			c0,0-2,24.8-25.3,47.8c0.3,0.4,0.7,0.8,1,1.2c24.1-23.4,26.1-48.6,26.1-48.6C334.4,240.2,327.1,229.5,327.1,229.5z M139,278.1
			c-1.2-0.7-1.2-1.6,0.6-2.1C139.3,276.7,139.1,277.4,139,278.1z M148.2,255.2c-0.5-0.8-0.7-2.1,1.3-2.2
			C149.1,253.7,148.6,254.5,148.2,255.2z M168.4,230.1c-0.5-1-0.9-2.9,2.3-2.1C169.9,228.7,169.2,229.4,168.4,230.1z M195.1,211.1
			c-0.1-1.1,0.1-2.5,2.7-1.6c0.1,0.1,0.3,0.1,0.4,0.1C197.2,210.1,196.2,210.6,195.1,211.1z M226.7,200.6c0.4-1.2,0.8-2.6,3.2-0.5
			C228.8,200.3,227.8,200.4,226.7,200.6z M254.3,198.8c0.4-1.3,1.5-2.4,4.1,0.3C257,199,255.6,198.9,254.3,198.8z M285.2,205.9
			c0.7-1.5,2.4-0.2,3.9,1.8C287.8,207.1,286.5,206.5,285.2,205.9z M308.2,221.1c0.3-0.1,1.6-0.3,2.2,2.3
			C309.7,222.6,309,221.9,308.2,221.1z"/>
		<path id="XMLID_416_" class="st5" d="M288.5,221.1c-17.4-11.1-45.9,6.7-35.7,23.3c0,0,10.6,15.5,33,7.8
			C300.4,246.1,299.5,228,288.5,221.1z M254.3,243.8C254.3,243.8,254.3,243.8,254.3,243.8c2.6-7,27.8-19.4,39.3-15
			c3.7,7.7,1.5,18.1-8.5,22.3C264.2,258.3,254.3,243.8,254.3,243.8z M292.6,227.1c-20-2.6-36.2,10.1-39.2,15.1
			c-6.8-15,18.5-30.1,34.2-20.1C289.7,223.4,291.3,225.1,292.6,227.1z"/>
		<path id="XMLID_412_" class="st5" d="M204.4,252.2c-19.5-10.4-48.5,11-36.2,27.9c0,0,12.7,15.7,35.9,5.6
			C219.2,277.9,216.7,258.6,204.4,252.2z M169.7,279.3C169.7,279.3,169.7,279.3,169.7,279.3c2.2-7.7,28.1-23.1,40.7-19.3
			c4.6,7.9,3.1,19.2-7.2,24.6C181.5,294,169.7,279.3,169.7,279.3z M209.3,258.3c-21.6-1.1-37.8,13.8-40.7,19.4
			c-8.5-15.5,17.3-33.7,34.9-24.3C205.8,254.5,207.8,256.3,209.3,258.3z"/>
		<path id="XMLID_411_" class="st5" d="M172.4,252.3c0,0-1,0.4-0.3-0.8s7.5-8.7,13.6-10.1c2.3-1,2.7-0.2,2.1,0.2
			C187.1,242,177.6,245.7,172.4,252.3z"/>
		<path id="XMLID_410_" class="st5" d="M254.8,216c0,0-1.1,0.2,0.1-1.1c1.3-1.4,14.5-5.9,23.5-2.3c2.9,1.5,0.5,1.8-0.2,0.9
			C277.5,212.5,265.7,210.4,254.8,216z"/>
		<path id="XMLID_409_" class="st5" d="M246,258.8c0,0-1.4-1-0.7-3.7c0.8-3.1,1.9-6.9-3.6-7.7c0,0-4.9-0.8-6.9-1.8
			c-0.2-0.3,0.1-0.6,1.6-0.2c1.5,0.4,10.6,1.6,10.6,5.2c0,3.6-1,4.2-0.8,6C246.3,257.3,246.6,258.8,246,258.8z"/>
		<path id="XMLID_408_" class="st5" d="M141.9,308c0,0-0.7-1.7-3.7-1.1c-0.8,0.1-0.7-0.4-0.4-0.4c0.3,0,3.7-0.8,4.4,1.4
			C142.3,308.3,142.1,308.3,141.9,308z"/>
		<path id="XMLID_407_" class="st5" d="M323.5,235.4c0,0,0.5-1.8-2.2-3.2c-0.7-0.4-0.3-0.7-0.1-0.6c0.2,0.1,3.4,1.6,2.6,3.8
			C323.7,235.9,323.4,235.8,323.5,235.4z"/>
		<path id="XMLID_401_" class="st5" d="M362.7,404.6c-1.5-2.2-4.1-3.2-7.1-2.8c-0.7,0.1-1.3,0.3-1.9,0.7c-0.6-1.2-5.1-9.4-11.6-11.9
			c0.2-0.9,1.3-6.7,1.1-13.8c-0.2-12.9-4.2-20.2-7.5-24c-5.4-6.3-13.5-9.2-24.1-8.6c-0.2-1.3-2-10.1-10.7-17.7
			c2.5-3.5,9.6-15.4,1.4-28.1c-8.8-13.6-13.4-16.3-14.2-16.7c0.2-0.7,1-4.1-1-7.5c-1.8-3.1-5.3-5.2-10.5-6.2
			c-0.7-1.2-3.2-3.1-7.5-2.2c-0.5-0.3-4.7-2.5-8.8,0c-0.1-0.2-0.2-0.4-0.4-0.7c-0.8-1-2.7-2.2-7.4-2.5l0,0c-0.1,0-0.6,0.1-0.7,0.4
			c0,0.1,0,0.2,0.1,0.4c0.1,0.1,0.6,0.2,1.7,0.4c2,0.3,5.4,0.8,5.8,2.2c0.2,0.8,0.2,1.4-0.2,1.8c-0.5,0.7-1.7,1.2-3.8,1.4
			c-3.6,0.3-9.5,6.6-11.3,9.2c-1.6,2.2-6.3,1.6-7.1,1.4c0-0.3-0.1-0.9-0.5-0.9c-0.1,0-0.2,0-0.2,0.1c-0.2,0.1-0.2,0.6-0.3,1.1
			c0,0.5-0.1,1-0.3,1.3c-0.3,0.5-0.2,0.7-0.1,0.8c0.2,0.1,0.4,0.2,0.6,0c0.3-0.2,0.5-0.6,0.6-1.1c1,0.2,6.3,0.9,9-2.7
			c1.3-0.7,4.9-1,9.3,2.4c-0.5,0.4-1.9,1.7-2.3,3.6c-0.2,0.8-0.2,1.2,0.1,1.3c0.4,0.2,1.1-0.9,1.1-0.9c0-0.1,0.1-0.2,0.2-0.3
			c0.3-0.7,1.1-2.4,1.8-2.9c0.6,0.4,4.3,3,6.5,6.8c1.6,2.7,3.6,4.3,6.1,4.9c2.3,0.5,4.3-0.1,5.1-0.5c0.2,2.2,0.8,8.7,2.8,12.1
			l-0.7,0.2l-0.1,0l0,0.2l0.1,0.1c8,6,8.1,13.6,8.1,13.7l0,0.1l0.1,0c11.2,2.8,17.6,9.5,20.9,14.6c3.4,5.2,4.5,9.8,4.6,10.6
			c-16.2,7.3-15.4,15.8-15.4,15.8l0.1,0.5l0.2-0.4c1.9-4.3,5.9-8.2,11-10.9c5.3-2.8,10.9-3.8,15.9-2.9c6.1,1.2,10.9,4.2,14.4,9
			c2.8,3.8,4.7,8.8,5.6,14.7c1.5,9.4,0.3,18.1,0,19.7c-1.9-1.4-3-0.8-3.1-0.7l-0.2,0.1l0.2,0.1c12.4,7,14.9,14.2,15,14.5l0.1,0.2
			l0.2-0.1c3.8-2.4,7.3,0.1,7.4,0.1c3.4,3.2,1.3,6.5,0.5,7.5c-0.1,0.1-0.2,0.2-0.3,0.3c-1.2,1.1-3.3,0.3-4.8-0.5l-0.2,0.2
			c2.1,1.5,2.2,3.1,1.6,4c-0.7,1.1-2.3,1.6-4.1,0.8c-0.1-0.1-0.3-0.2-0.5-0.2l-0.1,0.3c0.2,0.1,0.3,0.2,0.5,0.2
			c1.1,0.6,1.7,1.3,1.7,1.9c0,0.9-1.1,1.6-1.1,1.6c-0.6,0.4-1.2,0.5-1.7,0.3c-0.9-0.2-1.5-1.1-1.8-1.8l-0.3,0.1
			c0.5,1.2,0.5,2.2,0,2.9c-0.7,1.1-2.4,1.1-2.5,1.1c-1,0.1-1.9-0.2-2.6-0.8c-1.7-1.7-1.5-5.3-1.5-5.3l0,0l0,0
			c-3.5-8.3-13.8-10.2-13.9-10.2c-4.9-0.7-8-2.4-9.5-5.1c-1.9-3.5,0-7.6,0-7.6c1.6-2.7,4.3-4.1,7.9-4.1c2.7,0,5,0.8,5,0.8l1,0.4
			l-0.9-0.6c-6-4.3-11.3-0.5-12.6,0.5c0.2-2.6,0.2-6.6-6.7-9.6c-2.5-1.1-4.3-3.3-5.4-6.7c-1.3-4-1.3-8.3-1.1-9.5
			c0-0.1,0.1-0.3,0.1-0.4l0.1-0.3l-0.3,0.1c-0.1,0-0.1,0.2-0.2,0.5c-2.6,9.8,2.2,16.5,3.4,17.3c0,0,0,0,0.1,0
			c-2.4,15.6-14.8,17.7-17.3,17.9c-0.3,0-0.6,0.1-1,0.2c-9.8,1.8-12.5-9-12.7-10c1.8-2.3,2.4-4.4,1.8-6.1c-0.7-1.7-2.3-2.5-3-2.8
			c0.8-0.9,1.2-2.3,0.9-3.9c-0.5-2.7-2.7-6-6.6-7.6c-5.7-2.3-6.9-8.7-6.9-8.8c-2.4-7-7.7-13.5-11.7-17.7c-4.3-4.5-8.2-7.5-8.2-7.5
			l-0.2,0.2c9.9,8.3,16.8,20.8,16.9,21c1.3,2.4,2.7,7.6,2.7,7.7c3.1,6.4,6.5,6.5,6.6,6.5c1.2,0,3.1,2.2,3.8,3
			c0.2,0.2,0.3,0.3,0.4,0.4c1.6,1.3,2.3,2.6,2.3,4c0,1.7-1.3,2.8-1.4,3c-1.6,0.5-2.8,0.5-3.6,0c-0.7-0.4-1-1.1-1-1.2
			c0.3-2-0.2-2.5-0.3-2.6l-0.1-0.1l-1.1,0.6l0,0.1c0.8,3.4-0.1,3.7-0.2,3.8l-0.2,0l0.5,1.2l0.7-0.8c0.2,0.4,0.2,1,0.2,1l0,0.6
			l0.3-0.5c0.5-0.8,0.5-1.3,0.4-1.6c3.2,1.6,4.7,0.3,5,0c0.6,0.1,1.2,0.8,1.6,1.7c0.3,0.7,1,3.2-1.5,5.8c-0.9,0.9-2,1.4-3.1,1.5
			c-2.1,0-3.7-1.6-3.8-1.6l-0.3-0.3l0,0.4c0,0.9,0.4,1.5,1.1,2c0.9,0.6,2.1,0.7,2.7,0.7c-1.9,2.9-3.8,4.3-5.8,4.3
			c-2.9-0.1-4.9-3.4-4.9-3.4l-0.3-0.6l0.1,0.7c0.3,2.9,2.8,4,3.6,4.3c-4.8,4.6-10,0.1-10.3-0.1c-8.1-5.9-6.1-16.7-6.1-16.8l0-0.2
			l-0.2,0c-0.6,0-1-0.2-1.3-0.6c-0.5-0.5-0.4-1.2-0.4-1.3l0-0.1l-0.1,0c-4.7-0.7-13.4-13-13.4-13.1c-17.8-22.8-15.2-36.2-14-39.8
			l0.1-0.2l-0.2,0c-0.7,0.1-1.4,0.2-2,0.3l-0.1,0l0,0.1c-2.7,12.3,5.2,26.7,12.2,36.5c7.6,10.7,16,18.5,16,18.6c1,1,1.7,7.2,1.7,7.3
			c1,5.2,5,9.6,6.2,10.1c5.3,3.1,8.7,2.7,10.5,1.8c1.5-0.7,2.3-1.9,2.5-2.3c4.4,0.2,6.6-4.3,7-5.2c0.6,0.1,1.4-0.2,1.8-0.3
			c1.4,4.7,3.9,7.9,7.4,9.5c6.1,2.7,13.4-0.5,14.1-0.8c8.8,4.7,10.5,19.7,10.6,20.8c-1.8,3.6-2.1,6.6-0.9,8.8c1.6,2.9,5.3,3.8,7.4,4
			c2.5,0.3,4.8,1.3,6.6,2.8c5.4,4.4,6.3,11.6,6.3,11.7c0.1,2,0.9,3.5,2.2,4.6c0.9,0.7,2,1.1,2.9,1.2c0.6,0.1,1.2,0.1,1.5,0
			c1.4-0.2,1.7-1.9,1.7-2.6c1.2,1,2.3,1.3,3.3,0.9c1.5-0.6,2.2-2.6,2.3-3.2c1.8,0.7,3.1,0.7,3.9,0c1.1-1,0.8-2.9,0.6-3.7
			c0.3,0.1,0.6,0.2,0.9,0.2c2.4,0.3,3.8-1.8,4.6-3.3c0.8-1.5,0.8-3.2,0-4.5c-0.9-1.5-1.9-2.3-3-2.4c-1.3-0.2-2.5,0.7-2.9,1.1
			c-1.3-5.3-3.5-9.3-6.7-11.8c-2.2-1.8-4.3-2.4-5-2.5c0.5-3.3-1.7-11.6-2.2-13.2c8.1,2,9.5,8.3,9.5,8.3c0.3,5.1,2.2,6.7,3.8,7.2
			c1.9,0.6,4.1-0.4,5-1.7c0.5-0.6,0.6-1.3,0.5-1.8c2.2,0.9,3.4,0.4,4-0.2c0.8-0.8,1-2.3,0.6-3.3c1.4,0,2.4-0.5,2.9-1.5
			c0.6-1.2,0.3-2.7,0.1-3.2c1.8,0,3.3-0.8,4.1-2.2C364.3,409.3,364.1,406.6,362.7,404.6z M276.2,268.9L276.2,268.9L276.2,268.9
			L276.2,268.9z M272.2,269.9c-3.3,2.9-3.6,6.8-2.8,9.4c-1.9-0.4-2.9-1.9-3.2-4.9c0-3,0.7-5.2,2.2-6.5c1.8-1.5,4-1.3,4.5-1.2
			c0,0,0,0,0.1,0c1.3,0.4,2.1,1,2.6,1.6C273.3,268.9,272.3,269.9,272.2,269.9z M261.6,285.8c-6.4-8.9-13.7-8.9-15.3-8.7
			c3.4-4.8,7.9-6.5,7.9-6.6c1.3-0.4,2.6,1.3,2.9,1.7c-0.2,0.6-1.4,4,2.4,6.1c3.7,2.1,5.6,1,6.1,0.7c1.2,1.7,3.2,1.9,4.4,1.9
			c1,1.9,2.6,2.9,4.5,2.9c1.8,0,3.2-1,4-2.9c1.1-2.5,0.9-5.8,0.4-6.3c-0.4-0.4-0.7-0.5-0.9-0.4c-0.2,0.1-0.2,0.4-0.2,0.4l0,0l0,0
			c0,0,0.9,1.3-0.1,4.4c-0.5,1.5-2.3,2.5-4.2,2.2c-2-0.3-3.2-2-3.3-4.6c0.4-7.3,6.3-7.6,6.7-7.6c4.3,0.8,7.3,2.6,9,5.2
			c2.2,3.5,1.2,7.2,1.2,7.4l0,0.1l0.5,0.3c10,8.9,15.6,17.8,16.9,26.4c1.1,7.7-1.6,13.7-4.1,17.5c-1.8-1.5-3.8-2.8-5.9-4
			c-2.6-1.5-5.7-2.9-9.1-4c-0.5-3.3-2.5-6.3-4-8.2c-0.8-1.1-1.6-2.2-2.5-3.1c-0.2-0.3-0.4-0.5-0.6-0.8c-3.7-4.7-3.7-14.5-3.7-14.6
			l0-0.2l-0.2,0.1c-0.2,0.1-0.5,0.1-0.7,0.2l0-0.7l-0.1,0.7c-3.2,0.7-6.1,0.1-8.6-1.8C262.9,288.1,261.8,286.2,261.6,285.8z
			 M267.7,266.2c-2.4,1.5-3.6,4-3.6,7.1c0,2.2,0.7,4.1,0.8,4.4c0,0.1-0.1,0.6-0.5,0.8c-0.5,0.3-1.4,0.5-3.4-0.3
			c-3.3-1.3-3.6-4.7-3.6-5.7l0,0l0-0.4l0.1-0.7l0,0.1c0.2-1,0.8-1.8,1-1.9c1.6-0.5,2-2.7,2.1-3.2C264,265,266.6,265.7,267.7,266.2z"
			/>
		<path id="XMLID_397_" class="st6" d="M375.5,163.2c0.3,0,11,0,10.5-0.8c-0.2-0.2-0.3-0.2-0.5-0.1c-0.5,0.5-7.3,0.6-8.5,0.6
			c-1.6-0.1-2.8-0.5-4.3-0.2c-1.1,0.3-3.1,1.5-4.3,1.3c-0.9-0.2-0.6-0.9-1.2-1.3c-1.6-1.1-2.5,0-4,0c-1.2,0-2.6-0.2-3.8-0.2
			c-0.2,0-0.9-0.4-1.5-0.4c-0.3,0-1.8,0.4-2.2,0.5c-1.2,0.4-2.1,0.2-3.1,0.5c-1.1,0.3-2,1-3.3,1.6c-1.5,0.7-4.6,0.1-3.5-2
			c0.6-1.1,4.4-2.7,5.6-2.8c1.1,0,4.6,1.9,5.5,1.3c0.1-0.1-3.5-2.1-4.3-1.3c0.1-0.1,0.3-0.5,0-0.6c-2.4-0.3-4.1,1-5.9,2.4
			c-1.5,1.2-2.2,1.6-3.7,0.2c-1-0.9-2.2-2.3-3-3.2c-2.3-2.7,0.6-3.1,3.1-4.2c1-0.4,6.2-2.8,6.1-4.1c-0.5-0.4-4.4,2-5,2.3
			c-0.8,0.4-1.5,0.9-2.3,1.3c-0.9,0.3-2,0.5-2.8,1.1c-0.6,0.5-0.9,0.9-0.9,1.4c-4.5-0.9-9.6-0.3-13.7,1.8c-2,1-3.5,2.7-4.2,4.7
			c0,0,0.3,0.5,0.8,0.1c0.8-0.6,2.3-2.9,4-3.9c1.7-1,5-1.1,7-1.5c1.7-0.3,4.2-0.4,6.4-0.1c0.3,0.6,0.9,1.2,1.4,1.8
			c1.3,1.5,2.1,4.1,4.3,4.2c-3.2,3.3-5,8.2-4.8,12.8c0.1,2.3,1.1,4.2,3,5.5c1,0.7,4.8,3.9,5.8,3.6c-0.3,1-0.1,1.6-0.7,2.6
			c-0.5,0.7-2.1,2.7-2.8,3.3c-0.6,0.6-1.2,0.7-1.9,1.2c-0.7,0.5-0.8,1.3-1.8,1.7c-0.8,0.4-1.3,2.9-1.5,3.4c-0.6,0.6,0.8,3.7,0.8,4.7
			c-0.1,1.6,4.9,8.2,5.5,9.8c0.7,1.6,2.6,2.1-0.1,10.8c-0.5,1.7,1,3,1.9,6.5c1,3.5-0.7,4-0.2,6.6c0.5,2.5-1.8,4.5-2.6,7.8
			s-1.5,1.3-1.9,4c-0.4,2.7-1,5.9-3.4,7.6c-2.4,1.7-6.5,2.2-7,7.8c-0.5,5.6-1.6,5.2-2.7,6.8c-1.1,1.6-3.1,2.4-4.1,6.1
			c-1,3.7-2.3,8.1-1.7,9.6c0.7,1.6,2.6,4.3,1.8,8.2s-1.6,4.2-1.7,6.7s-5.4,6.7-5.4,8.6c0,0-5.2,2.6-8.5,10.6c0,0-2.4,5.4-4.9,5.5
			c-1.2,0-3.1,0.2-4.5,1.2c4.2,3.7,6.8,7.6,8.4,10.8c0.7-0.3,1.3-0.6,1.8-1c2.8-1.9,3.4-4.9,5.7-5.9s4.1-1.6,6.2-4.2
			c2.1-2.6,2.4-3.6,3.1-6.3c0.7-2.7,1.7-5.8,3.1-8.5c1.4-2.7,1.7-1.9,0.5-5.8c-1.2-3.8,0.4-2.7,1.3-5.8c0.9-3.1,2.2-6.1,1.7-7.8
			c-0.5-1.7,1.7-4.5-0.5-7.6s-0.2-6,0.4-7.1s2.7-7.7,2.4-8.2c-0.4-0.6,10-4.3,11.1-10.2c1.1-5.8,0.3-7.2,2.4-8.8
			c2.1-1.6,4.5-4.8,4.8-8.7c0.3-3.9,0.3-2.8-0.1-3.3c-0.4-0.5,1.7,0.5,1.3-1.8s-0.2-3.6-0.1-4.2s0.4-8.3-1-12.7c0,0-0.9-2.2,0.5-3.4
			c1.3-1.1,4.3-6,3.4-8.5c0.2-0.7-0.5-0.8-1.2-1.2c0-0.2-0.1-0.3-0.1-0.4c-0.6-1.4,0.2-2.5-1.9-3.4c-1.7-0.7-2.5-3.4-5.2-5.5
			c-0.4-0.8-0.8-1.6-0.4-1.6c0.8-0.1,1-2.2,1.1-2.9c0.3-1.1,0.6-2.2,1.1-3.3c0.3-0.6,0.5-1.7,0.9-2.3c0.5-0.7,1.1-0.6,1.6-1
			c0.6-0.4,1.3-1.7,2-2.1c0,0,0.2,1.4,0.6,1c0.2,0,0.4,0.1,0.6,0.1c0.3-0.2,0.3-0.5,0-0.8c1-1-1-0.4,0.7-1.4
			c0.5-0.3,1.2-0.4,1.7-0.4c1.7-0.1,2,0.9,3.4,1.1c2.3,0.3,0.6-1.5,2.5-2.1c0,0.9,0.8,2.3,1.1,2.8c1,1.7,1.3,2.6,1.2,4.4
			c-0.1,1.4,0.9,2.7,1,4.1c0.1,2.4-2.8,1.3-2.9,2.9c0.1-0.6,2.5,0.7,2.4,0.7c-0.4,0-1.8-0.6-1.9,0.7c0-0.3,2-0.1,2.1-0.1
			c1.1,0.4,0.7,0.7,1.4,1.6c0.8,1,1.6,2.2,2,3.4c0.6,1.8,0.6,4,1,5.9c0.1,0.3,1.4,4,1.6,2.9c0,0-0.5-1.2-0.5-1.4
			c-0.2-0.6-0.3-1.3-0.5-1.9c-0.3-1.4-0.5-2.9-0.8-4.3c-0.4-2.1-1.1-3.1-2.2-4.8c-0.2-0.4-1.3-2-1.3-2.4c0-0.5,0.7-0.6,0.8-1
			c0.1-0.4,0.4-0.7,0.5-1.3c0.1-1.5-0.8-1.5-1.2-2.7c-0.2-0.5-0.5-2.1-0.5-2.6c0-0.4,0.3-1.7,0.2-2c-0.4-1.8-5.1-7.1,0.2-7.1
			c0.4,0.9-1,4.4,0,5.1c0.1,0.1,1.1-4,0.2-4.5c0.1,0.1,0.6,0.2,0.5-0.1c-0.1-1.1,1.4-2.6,1.5-4.3c0-1.6-1.7-3.4-1.1-4.7
			c-1.1-0.5-1.7,4.6-2.2,5.9c-0.1,0-2.1-2.1-2.4-2.4c-1.9-1.5-1.5-2-0.3-3.9c0.7-1.2,1.6-2.2,2.2-3.1c-0.1,0.2,0.5-1.3,0.9-1.4
			c0,0.4,0.4,1.2,0.7,1.4c-0.1-0.1,0.1-1,0.1-1.1c1.4,1.2,2.2,2.7,3.4,4c0.6,0.7,3.9,4.3,4.8,3.9c0.4-0.7-7-8.1-7.8-9.1
			C369.2,163.5,374.3,163.3,375.5,163.2z M364,174.1C364,174,364,174,364,174.1c0.3,1.1,2.5,1.9,3.1,2.8c-0.3,1.8-2.3,0.7-3.2,2
			c-1-1-1.7-1.4-1.7-2.8C362.2,175.7,363.5,172.4,364,174.1z M363.7,169.6c-1.1,1.4-1.4,2.7-1.8,4.4c-0.7,2.6-0.8,4.7,1.9,6.4
			c0.2,1.7-3.3,0-4-0.1c-1.5-0.2-2.2,0.7-3.4,0.9c-3.1,0.5-5.6,0.4-7.7,3.4c-0.9-1.5-4.2-2.3-5.6-3.1c-1.7-1.1-2.7-2.9-2.9-5
			c-0.2-1.6,0.9-4.3,1.3-5.9c0.5-2,1.9-4.9,3.3-6.4c1.4,1.5,3.3,2.3,5.1,1.6c1.2-0.4,2.1-1.4,3.2-1.7c0.9-0.2,1.9-0.3,2.9-0.6
			c1.9-0.4,3.9-0.1,5.8,0.1c0.3,0,0.7,0.6,1.2,0.6c0.8,0,1.2-0.5,2-0.4c1.6,0.3,1.5,1.2,1.3,2.4
			C366.1,167.2,364.3,168.8,363.7,169.6z"/>
		<g id="XMLID_393_">
			<path id="XMLID_396_" class="st6" d="M339.8,158.6l0.7-3.2C339.1,156,338.3,156.8,339.8,158.6z"/>
			<polygon id="XMLID_395_" class="st6" points="346.4,165.4 346.4,165.4 346.4,165.4 			"/>
			<path id="XMLID_394_" class="st6" d="M387.7,112.6c-0.8,1.6-1.9,3.1-3.4,4.2c-5.2,4-12.6,3-16.6-2.1c-0.6-0.8-1.1-1.7-1.5-2.6
				l-5.6,16.6c-1,3-2,6.4-2.9,10.2c0.1-2.3,0.3-4.5,0.3-6.5c0.1-2,0.1-3.9,0-5.6l-0.5-21.1l-20.5-2.9l-15.2,57.4
				c0.7-0.7,1.5-1.4,2.5-1.9c4-2.1,9.1-2.7,13.7-1.8c0-0.5,0.3-0.9,0.9-1.4c0.5-0.4,1.2-0.6,1.8-0.8l3.4-16.4l2-11.2
				c-0.1,1.8-0.1,3-0.2,3.6c-0.1,3.9-0.1,6.7-0.1,8.3l0.2,12.9c1.3-0.7,2.6-1.4,2.9-1.1c0.1,0.7-1.4,1.6-2.9,2.5l0.2,9
				c0.1-0.1,0.2-0.1,0.3-0.2c1.8-1.4,3.5-2.7,5.9-2.4c0.4,0.1,0.1,0.5,0,0.6c0.8-0.8,4.4,1.3,4.3,1.3c-0.9,0.7-4.3-1.3-5.5-1.3
				c-1,0-3.8,1.2-5,2.2l0,2.5c0.8,0.4,2.1,0.4,2.9,0.1c1.2-0.5,2.2-1.3,3.3-1.6c1-0.3,1.9-0.1,3.1-0.5c0.4-0.1,1.9-0.5,2.2-0.5
				c0.6,0,1.3,0.4,1.5,0.4c0.8,0.1,1.7,0.2,2.6,0.2l7.5-20.6c0.6-1.8,1.2-3.6,1.7-5.5c0.5-1.9,1-3.9,1.5-6l-1.1,11.2l-2.6,22.3
				c1.2-0.1,2.8-1,3.7-1.3c1.5-0.4,2.8,0.1,4.3,0.2c1.1,0.1,7.7,0,8.4-0.5L387.7,112.6z"/>
		</g>
		<polygon id="XMLID_392_" class="st6" points="378.3,100.6 384,106.7 388.3,97.5 		"/>
	</g>
</g>
</svg>
